<svg xmlns="http://www.w3.org/2000/svg" viewBox="0 0 301 300"><defs><style>.cls-1{fill:#e6e6e6;opacity:0;}.cls-2{fill:none;stroke:#000;stroke-miterlimit:10;}</style></defs><g id="レイヤー_2" data-name="レイヤー 2"><g id="レイヤー_1-2" data-name="レイヤー 1"><rect class="cls-1" x="0.5" width="300" height="300"/><path class="cls-2" d="M247.2,4.07H53.8C25.69,4.07.5,26.3.5,55.16V244.84c0,28.86,25.19,51.09,53.3,51.09H247.2c28.11,0,53.3-22.23,53.3-51.09V55.16C300.5,26.3,275.31,4.07,247.2,4.07Z"/><polygon class="cls-2" points="79.76 78.89 114.57 78.89 161.24 210 131.69 210 120.5 178.94 74.57 178.89 64.2 210 37.54 210 37.54 207 79.02 87.78 79.02 87.04 79.76 78.89"/><polygon class="cls-2" points="96.8 104.07 97.54 104.07 113.09 154.44 81.98 154.44 96.8 104.07"/><path class="cls-2" d="M213.66,109.26c-30.94,0-46.49,28.15-46.49,46.67a49.75,49.75,0,0,0,0,5.5c1.84,71.73,81.44,49.27,81.44,45.49V184.81c0,2.15-50.42,16-53.88-17h60.54s.75,0,1.49-1.48.74-12.6.74-14.08C257.54,130,243.46,109.26,213.66,109.26Z"/><path class="cls-2" d="M213.83,130.74a18.33,18.33,0,0,0-18.52,18.52h36.3C231.61,139.63,224.94,130.74,213.83,130.74Z"/></g></g></svg>