<svg xmlns="http://www.w3.org/2000/svg" viewBox="0 0 300 301"><defs><style>.cls-1{fill:#e6e6e6;opacity:0;}.cls-2{fill:none;stroke:#000;stroke-miterlimit:10;}</style></defs><g id="レイヤー_2" data-name="レイヤー 2"><g id="レイヤー_1-2" data-name="レイヤー 1"><rect class="cls-1" y="0.5" width="300" height="300"/><path class="cls-2" d="M150,.5H18.21a.59.59,0,0,0-.58.64L41.85,270.52a.59.59,0,0,0,.43.52l107.56,29.44a.58.58,0,0,0,.32,0L257.72,271a.59.59,0,0,0,.43-.52L282.37,1.14a.59.59,0,0,0-.58-.64Z"/><polygon class="cls-2" points="125.01 105.44 125.01 105.44 125.01 105.44 125.01 105.44"/><polygon class="cls-2" points="196.16 89.09 150 89.22 150 122.49 193.23 122.49 196.16 89.09"/><polygon class="cls-2" points="186.53 198.29 190.3 155.62 150 155.72 150 208.28 150.02 208.29 186.53 198.29"/><path class="cls-2" d="M150,22.9V55.69h82.34a.59.59,0,0,1,.58.64L217.8,224.55a.59.59,0,0,1-.43.51L150,243.5h0v34.57a.59.59,0,0,0,.75.57l87.79-25a.59.59,0,0,0,.42-.51L259.66,23a.58.58,0,0,0-.58-.64H150.59A.58.58,0,0,0,150,22.9Z"/><polygon class="cls-2" points="67.24 55.69 70.09 89.43 150 89.22 150 55.69 67.24 55.69"/><path class="cls-2" d="M113.47,197.89l-2.18-24.22a1.17,1.17,0,0,0-1.17-1.07H78.21a.59.59,0,0,0-.59.64l4.62,51.31a.58.58,0,0,0,.43.51l66.59,18.23a.59.59,0,0,0,.74-.57v-34a.6.6,0,0,0-.43-.57L113.9,198.4A.58.58,0,0,1,113.47,197.89Z"/><path class="cls-2" d="M150,122.49H73.74a.58.58,0,0,0-.58.64L76,155.36a.59.59,0,0,0,.59.53l73.43-.17v-.1"/><path class="cls-2" d="M217.8,224.55,232.92,56.33a.59.59,0,0,0-.58-.64H150V89.22l45.52-.13a.59.59,0,0,1,.58.64L193.27,122a.58.58,0,0,1-.58.53H150v33.13h39.66a.59.59,0,0,1,.59.64l-3.69,41.63a.58.58,0,0,1-.43.51L150,208.29h0v35.21h0l67.35-18.44A.59.59,0,0,0,217.8,224.55Z"/><polygon class="cls-2" points="150 155.62 150 155.72 190.3 155.62 150 155.62"/></g></g></svg>