<svg xmlns="http://www.w3.org/2000/svg" viewBox="0 0 300.16 301"><defs><style>.cls-1{fill:#e6e6e6;opacity:0;}.cls-2{fill:none;stroke:#000;stroke-miterlimit:10;}</style></defs><g id="レイヤー_2" data-name="レイヤー 2"><g id="レイヤー_1-2" data-name="レイヤー 1"><rect class="cls-1" x="0.08" y="0.5" width="300" height="300"/><path class="cls-2" d="M238,.5H62.13C30.42.5.5,28.4.5,60.41V240.59c0,32,29.92,59.91,61.63,59.91H238c31.72,0,61.64-27.9,61.64-59.91V60.41C299.66,28.4,269.74.5,238,.5Z"/><path class="cls-2" d="M111.81,38.84C92.6,38.84,77,55.35,77,75.71s15.57,36.87,34.78,36.87h38.27V38.84Z"/><path class="cls-2" d="M111.81,112.58C92.6,112.58,77,128.94,77,149.11s15.57,36.52,34.78,36.52h38.27v-73Z"/><circle class="cls-2" cx="186.6" cy="149.11" r="36.52"/><path class="cls-2" d="M111.81,185.63v.05A36.52,36.52,0,1,0,150,223.9h.05V185.63Z"/><path class="cls-2" d="M188.34,38.84H150.08v73.74h38.26c19.21,0,34.79-16.5,34.79-36.87S207.55,38.84,188.34,38.84Z"/></g></g></svg>