<svg xmlns="http://www.w3.org/2000/svg" viewBox="0 0 301 301"><defs><style>.cls-1{fill:#e6e6e6;opacity:0;}.cls-2{fill:none;stroke:#000;stroke-miterlimit:10;}</style></defs><g id="レイヤー_2" data-name="レイヤー 2"><g id="レイヤー_1-2" data-name="レイヤー 1"><rect class="cls-1" x="0.5" y="0.5" width="300" height="300"/><path class="cls-2" d="M295.87,137.92l-66.4-66.39L163.08,5.13c-7-7-20.34-4.82-23.7-1.46L71.53,71.53,3.67,139.38C.31,142.74-1.9,156,5.13,163.08l66.4,66.39,66.39,66.4c7,7,20.34,4.82,23.7,1.46l67.85-67.86,67.86-67.85C300.69,158.26,302.9,145,295.87,137.92Z"/><path class="cls-2" d="M174.42,214.34a22.75,22.75,0,0,0-13.15-20.62V111.9L193,143.59a22.72,22.72,0,1,0,13.73-13.43L173.05,96.53a22.73,22.73,0,0,0-29-29L109.79,33.26,96.21,46.84,130.34,81a22.74,22.74,0,0,0,12.53,29v83.41a22.73,22.73,0,1,0,31.55,21Z"/></g></g></svg>