<svg xmlns="http://www.w3.org/2000/svg" viewBox="0 0 300 301"><defs><style>.cls-1{fill:#e6e6e6;opacity:0;}.cls-2,.cls-4{fill:none;stroke:#000;stroke-miterlimit:10;}.cls-3{fill:#fff;}.cls-4{opacity:0.99;isolation:isolate;}</style></defs><g id="レイヤー_2" data-name="レイヤー 2"><g id="レイヤー_1-2" data-name="レイヤー 1"><rect class="cls-1" y="0.5" width="300" height="300"/><path class="cls-2" d="M149.61,23.06a.58.58,0,0,1,.59-.58l108.48-.34a.59.59,0,0,1,.59.64L239.28,253a.59.59,0,0,1-.43.51l-87.71,25.25a.59.59,0,0,1-.75-.56Z"/><path class="cls-2" d="M150,.5H18.21a.59.59,0,0,0-.58.64L41.85,270.52a.59.59,0,0,0,.43.52l107.56,29.44a.58.58,0,0,0,.32,0L257.72,271a.59.59,0,0,0,.43-.52L282.37,1.14a.59.59,0,0,0-.58-.64Z"/><line class="cls-2" x1="125.01" y1="105.44" x2="125.01" y2="105.44"/><polygon class="cls-3" points="150.06 89.22 150.05 89.22 150 89.22 150 89.22 150.06 89.22"/><path id="path5117" class="cls-2" d="M232.9,217l7.2-87.47-53.27,5.94V88.75l56.83-.2L246,56.64l-85.76.42,1.15,116.14,51.81-8.86-.73,25.86-52.23,13.87.52,31.69L232.9,217Z"/><path id="path5157" class="cls-4" d="M61.18,214.58l-.1-32s33,9.29,51.69,14.09l.31-140h26.58V235.76L61.18,214.58Z"/></g></g></svg>