<svg xmlns="http://www.w3.org/2000/svg" viewBox="0 0 300 300.66"><defs><style>.cls-1{fill:#e6e6e6;opacity:0;}.cls-2{fill:none;stroke:#000;stroke-miterlimit:10;}</style></defs><g id="レイヤー_2" data-name="レイヤー 2"><g id="レイヤー_1-2" data-name="レイヤー 1"><rect class="cls-1" y="0.16" width="300" height="300"/><path class="cls-2" d="M249,187.53c3.51-24.55-19.9-23.36-27-22.46a.18.18,0,0,1-.09-.34c7.11-2.87,33.93-9.34,39.33,16h0s4.74,25.51-40.2,37.19c-.19,0-.33-.2-.17-.31C225.5,214.31,247.47,198.19,249,187.53Z"/><path class="cls-2" d="M111,163.68c-.55-1.46-48.57,10.71-47.69,17,2.45,17.78,136.62,9.18,144.44-2.16a.72.72,0,0,0-.65-1.13c-11.39,1.28-116.82,12.78-121.65-.11C83.65,172.46,111.42,164.76,111,163.68Z"/><path class="cls-2" d="M163.82,172.2c-2.68,3.12,20.44-15.33,20.44-27.26,0-14.92-15-20-17-34.06-3.78-26,51-48.56,49.4-51.1C215.87,58.55,150.42,81,151.9,116c.19,4.54,1.74,14.63,14,26.25a13,13,0,0,1,4.07,7.9C170.62,155.66,170.32,164.62,163.82,172.2Z"/><path class="cls-2" d="M112.72,99c-9.47,28.41,35.77,61.32,37.48,63,1.93,1.93-29-30.47-22.15-57.92,4.84-19.34,37.48-34.06,52.81-59.61,10.2-17,6.8-29.47,1.7-44.29a46.24,46.24,0,0,1,.36,17.18,66,66,0,0,1-3.77,11.78C167.23,56.37,119.54,78.52,112.72,99Z"/><path class="cls-2" d="M260.91,274.4c.4,1.24-13.62,23.84-85.16,25.55s-93.85-7.12-93.69-8.52,40.88,5.11,92,3.41C228.55,293,260.51,273.15,260.91,274.4Z"/><path class="cls-2" d="M101.65,198.6c-2.23-2.22-14.82,6.93-14.48,11.07,1.71,20.44,124.35,10.22,114.13,3.41s-10.22-6.82-13.63-6.82c-2.41,0-74.95,11.93-88.57,0C97.44,204.81,102.84,199.78,101.65,198.6Z"/><path class="cls-2" d="M106.76,232.66c-4.26.86-10.87,6-9.37,9.37,11.08,24.7,111.57,7.67,101.35,4.26-8.08-2.69-16.25-8.15-17.88-7.66-17,5.11-61.79,4.87-71.54,0C105.91,236.92,111,231.81,106.76,232.66Z"/><path class="cls-2" d="M84.62,253.1c-16.18-.85-47.06,11.22-46,18.74,2.55,17.89,201.84,19.59,209.51-8.52,1.14-4.19-5-7.5-4.26-6,11.92,25.55-177.15,22.15-185.66,10.22C53.27,260.65,85.87,253.17,84.62,253.1Z"/></g></g></svg>