<svg xmlns="http://www.w3.org/2000/svg" viewBox="0 0 300 301"><defs><style>.cls-1{fill:#e6e6e6;opacity:0;}.cls-2{fill:none;stroke:#000;stroke-miterlimit:10;}</style></defs><g id="レイヤー_2" data-name="レイヤー 2"><g id="レイヤー_1-2" data-name="レイヤー 1"><rect class="cls-1" y="0.5" width="300" height="300"/><path class="cls-2" d="M247.66,142.74c1.81-2.45-19,49.58-81.63,51.59-59.1,1.89-103.17-38.06-115.69-86.14-12.89-49.49,18-78.13,20-78.13,1,0-25,70.62,44.57,117.69,2.73,1.85,15.48,10,23.15,13.34,32.94,14.21,59.49,7.2,72.44,4.3C216,164.17,240.65,152.26,247.66,142.74Z"/><path class="cls-2" d="M123.46,11.53c1,0-13,41.07,18,72.62,2.26,2.3,21,20.53,44.57,26,44.23,10.35,66.52-20.53,67.61-20.53.5,0-14.53,42.2-69.11,40.06-25.55-1-51.66-16-65.61-39.56C91.41,43.58,123,11.53,123.46,11.53Z"/><path class="cls-2" d="M167.53.51c.5,1-3.8,23.86,8.51,38.07,6.51,7.51,16,19,37.06,23,17.47,3.33,30.55-6.21,30.55-5.51,0,1.51-10.52,17.53-33.05,17S174.47,61.65,165,45.59C150,20.05,167.21-.12,167.53.51Z"/><polygon class="cls-2" points="27.8 243.41 41.32 243.41 43.83 232.39 30.31 232.39 27.8 243.41"/><path class="cls-2" d="M22.29,268.45c-1,8.51-5,17.53-7,19.53l-7,.5c0,1.5-2,7.51-2.5,11.52l13,.5C28.3,298,29,293.9,30.81,289c2-5.51,10-41.57,10-41.57H27.3S23.94,254.44,22.29,268.45Z"/><path class="cls-2" d="M81.89,218.87c-16.29-1.3-28.72,8.45-34.06,25-4.5,14-4,33,11.52,36.56h41.57a106.6,106.6,0,0,0,3-12h-7a225.17,225.17,0,0,0,7.52-23.54C104.7,243.82,106.93,220.87,81.89,218.87Zm8,25.54-6.51,24h-15c-8-2-8.18-6.05-8-9.52.35-7.16,3-17,6-21.53s8.52-6.51,15.53-5.51C88.16,232.78,90.4,237.9,89.9,244.41Z"/><path class="cls-2" d="M144.49,232.39l-8,36.06H123a35,35,0,0,1,0-11.52c3-16,4.5-19,4.5-24.54H114.94c-2,9.52-7,28.55-6.51,37.56a12.09,12.09,0,0,0,10,10.52H147l10-48.08Z"/><path class="cls-2" d="M187.06,230.89c-16,0-22.54,9.22-24,11-.54.64-7.51,15-6.51,28C156.9,275,162,280.47,168,280.47h29.05l2.5-11.52s-17,.5-25-.5c-2-.25-5-1.5-4-7h31.05a63.13,63.13,0,0,0,2.51-16.53C204.09,231.89,188.56,230.89,187.06,230.89Zm-14,19.53c-.5-2,4-7,7-7.51h5c1.36.31,4.5,1.5,5,3.5.18.69.51,4,.51,4Z"/><path class="cls-2" d="M246.16,232.39h-31l-10,48.08h12.52l8-36.56h29C253.67,235.39,252.67,234.39,246.16,232.39Z"/><path class="cls-2" d="M278.71,224.88l-20.53,30.05c-.22,0-.1.15-.51,0l-2-8h-14c.5,6,4.51,15,5,19.53.77,7-1,9.52-2,14h14c2-9,10-21.54,15-27.55,15.93-19.11,20.53-28,20.53-28Z"/></g></g></svg>