<svg xmlns="http://www.w3.org/2000/svg" xmlns:xlink="http://www.w3.org/1999/xlink" viewBox="0 0 300 300"><defs><style>.cls-1{fill:#e6e6e6;}.cls-1,.cls-2{opacity:0;}.cls-2{fill:#fff;}.cls-3,.cls-4,.cls-5,.cls-6,.cls-7,.cls-8{fill:none;stroke-miterlimit:10;stroke-width:0.25px;}.cls-3{stroke:#303131;}.cls-4,.cls-5{stroke:#000;}.cls-5{opacity:0.6;}.cls-6{stroke:#c1c4ca;}.cls-7{stroke:#5a646e;}.cls-7,.cls-8{opacity:0.7;}.cls-8{stroke:#797d8a;}.cls-9{fill:#5c6063;}.cls-10{fill:#d7d7d7;}.cls-11{fill:url(#名称未設定グラデーション_6);}.cls-12{fill:url(#名称未設定グラデーション_6-2);}</style><linearGradient id="名称未設定グラデーション_6" x1="789.28" y1="52.85" x2="995.97" y2="299.17" gradientTransform="translate(-765.25 103.44) rotate(-7.77)" gradientUnits="userSpaceOnUse"><stop offset="0" stop-color="#a7a8a9"/><stop offset="1" stop-color="#181a1c"/></linearGradient><linearGradient id="名称未設定グラデーション_6-2" x1="912.2" y1="-50.3" x2="1118.89" y2="196.03" xlink:href="#名称未設定グラデーション_6"/></defs><g id="レイヤー_2" data-name="レイヤー 2"><g id="レイヤー_1-2" data-name="レイヤー 1"><rect class="cls-1" width="300" height="300"/><rect class="cls-2" width="300" height="300"/><path class="cls-3" d="M246.53,18c-1.21-7.69-7.17-15.66-20.68-13.81L131.85,17l-94,12.83C24.34,31.66,20.73,40.93,21.63,48.67c.06.46,15.92,116.67,15.92,116.67S53.4,281.56,53.47,282c1.21,7.69,7.17,15.66,20.68,13.81l94-12.82,94-12.83c13.52-1.84,17.13-11.11,16.23-18.85-.06-.46-15.92-116.67-15.92-116.67S246.6,18.44,246.53,18Z"/><path class="cls-3" d="M220.5,14.44,133.13,26.37,45.76,38.29c-17.22,2.35-16.23.06-13.87,17.36L46.69,164.1,61.48,272.55c2.36,17.3.8,15.36,18,13l87.37-11.93,87.37-11.92c17.22-2.35,16.23-.06,13.87-17.36L253.31,135.9,238.52,27.45C236.16,10.15,237.72,12.09,220.5,14.44Z"/><rect class="cls-4" x="118.71" y="218.87" width="86.03" height="38.6" transform="translate(-30.71 24.05) rotate(-7.77)"/><circle class="cls-4" cx="145.57" cy="119.81" r="81.76"/><circle class="cls-5" cx="145.57" cy="119.81" r="80.54"/><circle class="cls-6" cx="145.88" cy="119.77" r="70.17"/><circle class="cls-6" cx="145.88" cy="119.77" r="59.19"/><circle class="cls-6" cx="145.88" cy="119.77" r="47.29"/><circle class="cls-7" cx="145.88" cy="119.77" r="33.56"/><circle class="cls-8" cx="145.88" cy="119.77" r="23.19"/><circle class="cls-9" cx="145.88" cy="119.77" r="2.75"/><rect class="cls-4" x="120.57" y="220.57" width="82.98" height="35.72" transform="translate(-30.75 24.1) rotate(-7.77)"/><path class="cls-10" d="M253.64,261.79c3.34-.45,6-.73,8.09-1-2.05.27-4.61.55-7.8,1Z"/><path class="cls-11" d="M253.64,261.79c3.34-.45,6-.73,8.09-1-2.05.27-4.61.55-7.8,1Z"/><path class="cls-10" d="M228,13.34c-2.1.29-4.73.73-8.07,1.19l.29,0C223.38,14.05,225.92,13.63,228,13.34Z"/><path class="cls-12" d="M228,13.34c-2.1.29-4.73.73-8.07,1.19l.29,0C223.38,14.05,225.92,13.63,228,13.34Z"/></g></g></svg>