<svg xmlns="http://www.w3.org/2000/svg" viewBox="0 0 301 300"><defs><style>.cls-1{fill:#e6e6e6;opacity:0;}.cls-2,.cls-3{fill:none;stroke:#000;stroke-miterlimit:10;}.cls-3{fill-rule:evenodd;}</style></defs><g id="レイヤー_2" data-name="レイヤー 2"><g id="レイヤー_1-2" data-name="レイヤー 1"><rect class="cls-1" x="0.5" width="300" height="300"/><path class="cls-2" d="M249,3H54.2C25.87,3,.5,25.37.5,54.45v191.1C.5,274.63,25.87,297,54.2,297H249c24.59,0,51.46-22.38,51.46-51.46V54.45C300.5,25.37,272.89,3,249,3Z"/><path class="cls-2" d="M111.69,78.36h-44V210.45H94.47V168.66h12c10.45,0,55.22.74,55.22-46.27C161.69,88.06,133.34,78.36,111.69,78.36Z"/><path class="cls-2" d="M106.47,102.24H94.53v42.54h11.94c10.45,0,28.36-3,28.36-21.65S116.92,102.24,106.47,102.24Z"/><path class="cls-3" d="M223.63,152.24c-19.4-7.46-22.38-10.45-22.38-14.18,0-5.22,7.46-6.72,7.46-6.72h10.45c6,0,17.91,3.73,21.1,6a11.42,11.42,0,0,0,2,0V114.18S234.08,109,219.16,109H207.82s-26.72,2.23-31.95,24.62a28,28,0,0,0,0,13.2c3.73,15.16,20.15,22.62,28.36,25.61,3.51,1.27,16.42,5.22,16.42,11.19s-6,6.72-9.7,7.46c0,0-9.59-.53-11.28-.74-17.83-2.24-20.81-8.21-24.54-7.46v23.82c0,.8,11.19,6,26.12,6.77l7.74.06c25.84,0,38.52-17.22,38.52-26.92V177.9S248.34,161.74,223.63,152.24Z"/></g></g></svg>