<svg xmlns="http://www.w3.org/2000/svg" viewBox="0 0 301 300"><defs><style>.cls-1{fill:#e6e6e6;opacity:0;}.cls-2{fill:none;stroke:#000;stroke-miterlimit:10;}</style></defs><g id="レイヤー_2" data-name="レイヤー 2"><g id="レイヤー_1-2" data-name="レイヤー 1"><rect class="cls-1" x="0.5" width="300" height="300"/><path class="cls-2" d="M247.2,4.07H53.8C25.69,4.07.5,26.3.5,55.16V244.84c0,28.86,25.19,51.09,53.3,51.09H247.2c28.11,0,53.3-22.23,53.3-51.09V55.16C300.5,26.3,275.31,4.07,247.2,4.07Z"/><path class="cls-2" d="M98.85,78.92l20.4,0A52.52,52.52,0,0,1,158,96.07c5.48,5.89,9,16.17,9,27.16,0,4.17.28,18.67-10.53,29.73-13.62,13.92-30.45,15.56-38.52,15.56H99.52v41.12a.63.63,0,0,1-.68.56H72.51a.63.63,0,0,1-.68-.56V78.92Z"/><path class="cls-2" d="M99.7,102.33v42.73h12.7c5.69,0,26.88-1.73,26.88-21.12,0-19.63-19-21.61-25.73-21.61Z"/><path class="cls-2" d="M184,210V129.26s-.74-14.82-.74-18.52H207s3,2.22,3,12.59c0,0,14.82-15.55,34.08-14.81v27.15s-22.22-2-31.85,9.14V210Z"/></g></g></svg>