<svg xmlns="http://www.w3.org/2000/svg" viewBox="0 0 301 301"><defs><style>.cls-1{fill:#e6e6e6;opacity:0;}.cls-2,.cls-3{fill:none;stroke:#000;stroke-miterlimit:10;}.cls-3{opacity:0.9;}</style></defs><g id="レイヤー_2" data-name="レイヤー 2"><g id="レイヤー_1-2" data-name="レイヤー 1"><rect class="cls-1" x="0.5" y="0.5" width="300" height="300"/><circle class="cls-2" cx="150.5" cy="150.5" r="137.61"/><path class="cls-3" d="M150.5.5a150,150,0,1,0,150,150A150,150,0,0,0,150.5.5Zm0,287.56A137.56,137.56,0,1,1,288.06,150.5,137.56,137.56,0,0,1,150.5,288.06Z"/><path class="cls-2" d="M97.6,127.73c1.34.67,22.1,3.35,22.1,3.35l-.67,97.1c-8,.67-20.76,3.35-20.76,3.35v12.05h65V231.53c-1.34-1.34-21.43-3.35-21.43-3.35V115H97.6"/><path class="cls-2" d="M144.47,58.09V85.54h11.39c1.34-12.05,2-12.05,2-16.74,0-1.34,34.15-10,34.82,17.41.26,10.6-6.7,25.45-33.48,28.13V128.4c0,2,34.82-4.69,34.82,24.11,0,5.4,1.34,25.45-34.82,28.12V196c0,2,54.91-2.68,54.91-42.86,0-36.17-32.15-34.15-27.46-35.49,18.13-5.18,25.21-22.41,24.78-36.16C210.1,38.67,144.47,52.73,144.47,58.09Z"/></g></g></svg>