<svg xmlns="http://www.w3.org/2000/svg" viewBox="0 0 300 301"><defs><style>.cls-1{fill:#e6e6e6;opacity:0;}.cls-2{fill:none;stroke:#000;stroke-miterlimit:10;}</style></defs><g id="レイヤー_2" data-name="レイヤー 2"><g id="レイヤー_1-2" data-name="レイヤー 1"><rect class="cls-1" y="0.5" width="300" height="300"/><path class="cls-2" d="M48.66,76.69h101V68H78.6V33.66c1.71-19.41,13.09-23.07,13.09-23.07,18.09-10.6,58-10,58-10s48-2.49,61.74,16.21c0,0,8.17,6.92,10,21.83v73s-1.62,26.14-28.68,32.43l-3.12.63H109.15s-36.16,5-39.28,41.78V222H41.8s-38,3.74-39.91-73.58C1.89,148.41-.6,78.56,48.66,76.69Z"/><circle class="cls-2" cx="109.78" cy="35.84" r="13.1"/><path class="cls-2" d="M261.08,221.82h-111v9.35h71.09l.23,31.36c-3.11,18.08-15.82,23.52-15.82,23.52a121.29,121.29,0,0,1-55.5,14.34s-35.31,2.67-60.49-18.7c0,0-9.42-6.3-11.23-21.21v-73s1.63-26.13,28.69-32.43l3.12-.62h80.44s36.17-5,39.29-41.78V77.14h31.81s32-4.19,36.4,68.77c0,0,.27,13.59-1.25,23.7C293.12,194.55,281.27,220.75,261.08,221.82Z"/><circle class="cls-2" cx="190.22" cy="262.84" r="13.1"/></g></g></svg>