<svg xmlns="http://www.w3.org/2000/svg" viewBox="0 0 301.48 300"><defs><style>.cls-1{fill:#e6e6e6;opacity:0;}.cls-2{fill:none;stroke:#000;stroke-miterlimit:10;}</style></defs><g id="レイヤー_2" data-name="レイヤー 2"><g id="レイヤー_1-2" data-name="レイヤー 1"><rect class="cls-1" x="0.68" width="300" height="300"/><path class="cls-2" d="M10,188.59H114.47C92.63,64,198.7,7.06,295.67,83.07l5-3.55C120-82.63,16.61,119.5,10,188.59Z"/><path class="cls-2" d="M118.58,162.29s.46,14.57,1.37,16.39l15.47,5.46s-3.64-16.39-2.73-16.84Z"/><path class="cls-2" d="M120.4,128.6l10.47,8.2s1.37-13.2,3.19-15.48L124,114Z"/><path class="cls-2" d="M145.9,95.37s5.91-7.74,7.73-9.56c0,0-2-1.74-5.91-8.65,0,0-7.29,6.83-8.2,8.65C139.52,85.81,145.44,94.92,145.9,95.37Z"/><path class="cls-2" d="M172.3,61.23l11.84-4.1,2.73,8.65c-2.28.46-11.38,4.55-11.38,4.55Z"/><path class="cls-2" d="M215.09,54s-.45.91-.45,8.19c0,0,9.1,0,12.74,1.82l.46-8.19A128,128,0,0,0,215.09,54Z"/><path class="cls-2" d="M215.09,12.52l-.45,8.65s10.92,3.19,12.74,4.55l.46-8.65A89.21,89.21,0,0,0,215.09,12.52Z"/><path class="cls-2" d="M165,4.78l2.27,7.74s-11.83.45-12.75.45l-2.27-7.73Z"/><polygon class="cls-2" points="96.28 23.45 106.75 17.53 112.66 26.63 102.19 32.55 96.28 23.45"/><polygon class="cls-2" points="53.48 57.59 62.59 65.78 53.48 76.25 43.47 67.6 53.48 57.59"/><polygon class="cls-2" points="7.5 119.5 22.53 124.96 16.15 140.44 0.68 134.98 7.5 119.5"/><path class="cls-2" d="M47.56,269.83c-.59.05-.67,0,0-.1v.1c3-.25,19.58-3.67,19.58-26.51,0-18.66-12.75-25.49-22.31-27.77H.68v79.67H22.07V276.1h.46l18.21,19.12H72.6l-25-25Zm-7.73-16.49H22.53V235.58h17.3c1.08.89,4.09,2.74,4.09,9.11S40.5,252.8,39.83,253.34Z"/><path class="cls-2" d="M47.56,269.83v-.1C46.89,269.8,47,269.88,47.56,269.83Z"/><path class="cls-2" d="M121.77,216H95.82a21.25,21.25,0,0,0-18.21,18.66v60.55H99.46V281.11h20v14.11h21.4v-61C139.07,222.84,131.78,217.83,121.77,216Zm-2.28,42.79h-20v-20c0-1.82,1.82-3.19,4.1-3.64H114a5.38,5.38,0,0,1,5.46,3.64Z"/><rect class="cls-2" x="150.9" y="216.01" width="22.76" height="79.21"/><polygon class="cls-2" points="205.53 216.01 182.77 216.01 182.77 295.22 236.03 295.22 236.03 274.73 205.53 274.73 205.53 216.01"/><path class="cls-2" d="M280.64,245.6H261.53v-9.11h36.41V216H261.07c-5,.45-17.3,5-19.12,18.66v11.84c1.82,11.38,10,16.84,18.21,18.21h20v10H243.32v20.49H281.1c5.46-.91,18.21-5,19.12-19.12V264.26C299.31,252.88,290.2,246.51,280.64,245.6Z"/></g></g></svg>