<svg xmlns="http://www.w3.org/2000/svg" viewBox="0 0 301 300"><defs><style>.cls-1{fill:#e6e6e6;opacity:0;}.cls-2{fill:none;stroke:#000;stroke-miterlimit:10;}</style></defs><g id="レイヤー_2" data-name="レイヤー 2"><g id="レイヤー_1-2" data-name="レイヤー 1"><rect class="cls-1" x="0.5" width="300" height="300"/><path class="cls-2" d="M295.75,184c-22.83-30.45-64-11-64-11-5.51-9.5-7.51-15.25-6.51-26.25.41-4.49,3.6-12,3.51-12.51-.25-1.5-3.2-2.88-5-3-3.75-.25-12,.75-13,2-1.44,1.8-2.62,7.35-3,9.76-.75,4.75-18,35.92-18.51,35-5.25-8.76-5.25-15.26-5-19.51.5-8.52,4-14,4-15.25,0-1.5-3.23-2.89-4.75-3-3.25-.25-13.25.25-14,3-.83,3.05-1.54,6.3-2,7.5-7.5,19.5-28.27,64.5-29,62.27-1.75-5.26,1-15.76,7.25-37.77.71-2.51,0-3.75-.75-4.5a7.11,7.11,0,0,0-5.5-2c-2.25.25-2.5,1.5-3.5,1.75-.49.12,3.93-17-7.75-19-6-1-19.26,5.25-27.76,17.75L70.19,185.71c-10.25-11-15.76-13.26-26.76-22.51-11.27-9.48-21.21-18-20.25-34,2-33.51,61.27-59.26,62.76-60,24.26-12.25,65.77-21.25,83.28-4.75,11.19,10.56,2,37.51-29.26,55-13.7,7.67-52,20.5-67.77,1.25-1.12-1.37-3.09,1-2,3.5,10.5,23.76,54,18.51,77.27,7.5,32.16-15.21,48.52-47.76,39.76-70.52-10.72-27.87-62-27-87.27-17.75-59.45,21.77-83,46.26-95,69.27-1.55,3-5.25,12-4.25,19,1.26,8.83,7.25,22.76,33.51,41.76,12,8.71,25.26,18.26,25.26,18.26-13,6.75-38.52,21.26-45,34.51-8.91,18.17-.25,31.26,4.5,33.51,16.69,7.9,51.52-1.25,59.77-35.76,1.92-8,1.75-22.76-2.75-30.51l17-9.75c-2.76,8-7.24,25.53.25,42,3.75,8.25,8.5,10.25,14.5,9,7.25-1.51,12.5-17,17.26-27.76a93.41,93.41,0,0,0-.25,13.51c.5,5,3,12,10.25,10,3-.84,7.69-6.16,9.5-9.25,14.76-25.26,26.76-55.77,26.76-55.77,2.75,16.51,9.25,26,9.25,26-10.25,14-20.25,23.51-22,28.26a5.28,5.28,0,0,0,.51,4.75c2.5,3.25,12.15,2.28,16.75.75,10.5-3.5,20.51-10.27,21.26-22.51a30.51,30.51,0,0,0-3.5-15.25c10-15,18.25-30.76,18.25-30.76a70.76,70.76,0,0,0,8,24C217.48,183,205,192.21,202.48,207c-1.24,7.31,3.75,10.51,7.25,10,11-1.58,18.26-8.26,20.76-10.51,2.76-2.48,6.49-7.25,6.75-13.5.25-6-2.25-12.5-2.25-12.5,11.75-5,30.26-4.76,40.76-.5,2,.8,16.5,5.5,18.5,19.75,1.65,11.74-10.5,16-10.5,17.26,0,1,.25,1.46,1,1.5,5.5.25,14.51-7.75,15.51-15.51A26.4,26.4,0,0,0,295.75,184ZM67.19,217.22c-3,12.44-14,25.5-28.26,28.26-5.45,1.05-9.75-1-10-6.26-.48-10,5.5-19.75,20.25-30,5.24-3.63,8-6,17.51-11.25A38.41,38.41,0,0,1,67.19,217.22ZM128,168.7c-1.5,7.26-8,28-16,43.77-.67,1.32-2.33,4.64-4.08,4.46s-2.58-3.47-2.92-4.71c-4-14.27,4.5-36,14.25-45.52a13.63,13.63,0,0,1,6-3.5C130.45,162.15,128.09,168,128,168.7ZM182.72,207c-1.6,3.21-6.71,8-11.25,10.26-1,.5-2.31.06-1.75-.5a153.65,153.65,0,0,0,14.5-17C185.22,200.21,183.72,205,182.72,207Zm42-13.5a14.78,14.78,0,0,1-4,9.25c-2.47,2.68-7.5,4.75-8,4.5s-.43-1.57-.25-2.25c3-11.25,11.46-19.24,11.75-18.5A23.48,23.48,0,0,1,224.73,193.46Z"/></g></g></svg>