<svg xmlns="http://www.w3.org/2000/svg" viewBox="0 0 301 301"><defs><style>.cls-1{fill:#e6e6e6;opacity:0;}.cls-2{fill:none;stroke:#000;stroke-miterlimit:10;}</style></defs><g id="レイヤー_2" data-name="レイヤー 2"><g id="レイヤー_1-2" data-name="レイヤー 1"><rect class="cls-1" x="0.5" y="0.5" width="300" height="300"/><path class="cls-2" d="M272.48.5h-244C13.75.5.5,13.68.5,29.19V271.81c0,15.51,13.25,28.69,28,28.69h244c14.77,0,28-13.18,28-28.69V29.19C300.5,13.68,287.25.5,272.48.5Z"/><path class="cls-2" d="M257.14,166.11a97,97,0,0,0-10.84-2.35c-3.42-.34-3.4-.64-7.23-.54-7.44.2-8.77.86-12.87,2-1.4.39-9.41,4.14-9.41,10.83,0,7.23,5.55,10.3,7.53,12,.68.57,9.13,4.81,15.36,7.56,9,3.95,16.21,7.35,21.61,11.52s9.25,8.75,11.54,13.73,3.17,9.55,3.17,16.34c0,12-3.58,19.17-11.28,26.69s-21.17,11.53-38.91,11.95c-6.77.16-17.35-.22-23.95-2s-7.85-1.63-15.65-4.9v-29.7c1.71,1,2.37,3,13.15,8.2,5,2.4,17.16,5.3,23.17,5.3,10.13,0,21-3.85,21.82-10.69.74-6.39-.8-9.06-3.52-11.71-6-5.88-11.78-7.66-15.6-9.41-3.54-1.62-7.18-2.87-13.26-5.79-7.5-3.78-12.56-6.2-17.81-12.57s-8.54-13.47-8.54-22.67c0-6.54.42-12.15,3.91-18.17A37.51,37.51,0,0,1,204.68,147c7-3.83,12.31-5.41,22.24-6.4,3.38-.34,10-.59,13.81-.59,4.81,0,13.41.91,13.41.91,4,.67,11.92,2.65,16.16,5v26.81A47,47,0,0,0,257.14,166.11Z"/><polygon class="cls-2" points="70.04 142.88 70.04 167.06 107.12 167.06 107.12 274.07 136.83 274.07 136.83 167.06 175 167.06 175 142.88 70.04 142.88"/></g></g></svg>