<svg xmlns="http://www.w3.org/2000/svg" viewBox="0 0 301.26 301.22"><defs><style>.cls-1{fill:#e6e6e6;opacity:0;}.cls-2{fill:none;stroke:#000;stroke-miterlimit:10;}</style></defs><g id="レイヤー_2" data-name="レイヤー 2"><g id="レイヤー_1-2" data-name="レイヤー 1"><rect class="cls-1" x="0.72" y="0.61" width="300" height="300"/><path class="cls-2" d="M300.72,119.81,267.23.61,145.36,32.75,128,63.56H89.11L.72,150.61l89.73,87H128l17.41,30.81,121.87,32.14,33.49-117.86L282,150.61ZM130.63,67.57l93.75-22.76-54.91,91.07H62.32Zm0,166.07-68.31-68.3H170.8l53.58,91.07Zm119.19,6.7-53.57-89.73,53.57-91.07L275.27,152Z"/><polygon class="cls-2" points="224.38 44.8 130.63 67.57 62.32 135.88 169.47 135.88 224.38 44.8"/><polygon class="cls-2" points="196.25 150.61 249.82 240.34 275.27 151.95 249.82 59.54 196.25 150.61"/><polygon class="cls-2" points="62.32 165.34 130.63 233.65 224.38 256.41 170.81 165.34 62.32 165.34"/></g></g></svg>