<svg xmlns="http://www.w3.org/2000/svg" viewBox="0 0 301 300"><defs><style>.cls-1{fill:#e6e6e6;opacity:0;}.cls-2{fill:none;stroke:#000;stroke-miterlimit:10;}</style></defs><g id="レイヤー_2" data-name="レイヤー 2"><g id="レイヤー_1-2" data-name="レイヤー 1"><rect class="cls-1" x="0.5" width="300" height="300"/><path class="cls-2" d="M246.59,4.43H53.67C25.62,4.43.5,26.6.5,55.39V244.61c0,28.79,25.12,51,53.17,51H246.59c28,0,53.91-22.17,53.91-51V55.39C300.5,26.6,274.64,4.43,246.59,4.43Z"/><polygon class="cls-2" points="76.61 79.06 102.47 127.83 103.21 127.09 128.43 79.06 157.89 79.06 157.89 80.54 120.2 141.87 120.2 142.61 160.11 208.37 160.11 209.11 126.86 209.11 100.99 161.08 100.25 161.08 74.39 209.11 44.1 209.11 44.1 208.37 82.52 144.83 82.52 144.09 44.84 80.54 44.84 79.06 76.61 79.06"/><path class="cls-2" d="M254.66,187.68h0V68H226.61v40.64H221.4c-42.08,0-59.08,28.82-59.08,51.72,0,34.73,21.43,51.73,53.9,51.73l11.13-.74c22.16-3,28.08-8.13,28.08-8.13C255.43,199.43,254.83,190.33,254.66,187.68Z"/><path class="cls-2" d="M220.54,132.27c-19,0-29.4,11.08-29.4,28.07,0,21.43,12.56,28.08,29.4,28.08l6.07-.74V132.27Z"/></g></g></svg>