<svg xmlns="http://www.w3.org/2000/svg" viewBox="0 0 300 300"><defs><style>.cls-1{fill:#e6e6e6;opacity:0;}.cls-2{fill:#00005b;}.cls-3{fill:#99f;}</style></defs><g id="レイヤー_2" data-name="レイヤー 2"><g id="レイヤー_1-2" data-name="レイヤー 1"><rect class="cls-1" width="300" height="300"/><path class="cls-2" d="M246.7,4.07H53.3C25.19,4.07,0,26.3,0,55.16V244.84c0,28.86,25.19,51.09,53.3,51.09H246.7c28.11,0,53.3-22.23,53.3-51.09V55.16C300,26.3,274.81,4.07,246.7,4.07Z"/><polyline class="cls-3" points="79.26 78.89 114.07 78.89 160.74 210 131.19 210 120 178.94 74.07 178.89 63.7 210 37.04 210 37.04 207 78.52 87.78 78.52 87.04"/><polyline class="cls-2" points="96.3 104.07 97.04 104.07 112.59 154.44 81.48 154.44"/><path class="cls-3" d="M213.16,109.26c-30.94,0-46.49,28.15-46.49,46.67a49.75,49.75,0,0,0,0,5.5c1.84,71.73,81.44,49.27,81.44,45.49V184.81c0,2.15-50.42,16-53.88-17h60.54s.75,0,1.49-1.48.74-12.6.74-14.08C257,130,243,109.26,213.16,109.26Z"/><path class="cls-2" d="M213.33,130.74a18.33,18.33,0,0,0-18.52,18.52h36.3C231.11,139.63,224.44,130.74,213.33,130.74Z"/></g></g></svg>