<svg xmlns="http://www.w3.org/2000/svg" viewBox="0 0 300 300"><defs><style>.cls-1{fill:#e6e6e6;opacity:0;}.cls-2{fill:#3b9adb;}.cls-3{fill:none;}.cls-4{fill:#71b2de;}.cls-5{fill:#ebebeb;}.cls-6{fill:#fff;}</style></defs><g id="レイヤー_2" data-name="レイヤー 2"><g id="レイヤー_1-2" data-name="レイヤー 1"><rect class="cls-1" width="300" height="300"/><path class="cls-2" d="M150,0H18.21a.59.59,0,0,0-.58.64L41.85,270a.59.59,0,0,0,.43.52L149.84,300a.58.58,0,0,0,.32,0l107.56-29.44a.59.59,0,0,0,.43-.52L282.37.64a.59.59,0,0,0-.58-.64Z"/><polygon class="cls-3" points="125.01 104.94 125.01 104.94 125.01 104.94 125.01 104.94"/><polygon class="cls-4" points="196.16 88.59 150 88.72 150 121.99 193.23 121.99 196.16 88.59"/><polygon class="cls-4" points="186.53 197.79 190.3 155.12 150 155.22 150 207.78 150.02 207.79 186.53 197.79"/><path class="cls-4" d="M150,22.4V55.19h82.34a.59.59,0,0,1,.58.64L217.8,224.05a.59.59,0,0,1-.43.51L150,243h0v34.57a.59.59,0,0,0,.75.57l87.79-25a.59.59,0,0,0,.42-.51l20.7-230.19a.58.58,0,0,0-.58-.64H150.59A.58.58,0,0,0,150,22.4Z"/><polygon class="cls-5" points="67.24 55.19 70.09 88.93 150 88.72 150 55.19 67.24 55.19"/><path class="cls-5" d="M113.47,197.39l-2.18-24.22a1.17,1.17,0,0,0-1.17-1.07H78.21a.59.59,0,0,0-.59.64l4.62,51.31a.58.58,0,0,0,.43.51l66.59,18.23a.59.59,0,0,0,.74-.57v-34a.6.6,0,0,0-.43-.57L113.9,197.9A.58.58,0,0,1,113.47,197.39Z"/><path class="cls-5" d="M150,122H73.74a.58.58,0,0,0-.58.64L76,154.86a.59.59,0,0,0,.59.53l73.43-.17v-.1"/><path class="cls-6" d="M217.8,224.05,232.92,55.83a.59.59,0,0,0-.58-.64H150V88.72l45.52-.13a.59.59,0,0,1,.58.64l-2.83,32.23a.58.58,0,0,1-.58.53H150v33.13h39.66a.59.59,0,0,1,.59.64l-3.69,41.63a.58.58,0,0,1-.43.51L150,207.79h0V243h0l67.35-18.44A.59.59,0,0,0,217.8,224.05Z"/><polygon class="cls-6" points="150 155.12 150 155.22 190.3 155.12 150 155.12"/></g></g></svg>