<svg xmlns="http://www.w3.org/2000/svg" viewBox="0 0 300 300"><defs><style>.cls-1{fill:#e6e6e6;opacity:0;}.cls-2{fill:#76ec73;}.cls-3{fill:none;stroke:#94fa91;stroke-miterlimit:10;opacity:0.85;}.cls-4{fill:#27392a;}</style></defs><g id="レイヤー_2" data-name="レイヤー 2"><g id="レイヤー_1-2" data-name="レイヤー 1"><rect class="cls-1" width="300" height="300"/><rect class="cls-2" x="31.52" width="236.96" height="300"/><line class="cls-3" x1="31.52" y1="33.04" x2="268.48" y2="33.04"/><line class="cls-3" x1="31.52" y1="66.84" x2="268.48" y2="66.84"/><line class="cls-3" x1="31.52" y1="100.82" x2="268.48" y2="100.82"/><line class="cls-3" x1="31.52" y1="133.9" x2="268.48" y2="133.9"/><line class="cls-3" x1="31.52" y1="167.44" x2="268.48" y2="167.44"/><line class="cls-3" x1="31.52" y1="200.52" x2="268.48" y2="200.52"/><line class="cls-3" x1="31.52" y1="233.61" x2="268.48" y2="233.61"/><line class="cls-3" x1="31.52" y1="266.69" x2="268.48" y2="266.69"/><path class="cls-4" d="M134.11,126.11a20.63,20.63,0,0,1-7.41,5.5,18.72,18.72,0,0,0-2.11-3.57,16.06,16.06,0,0,0,7.34-5.81,40.24,40.24,0,0,1-2.24-6.52c-.44.75-.92,1.49-1.39,2.14-.58-.61-1.67-1.66-2.52-2.38h-.07a34.79,34.79,0,0,1-4.82,4.69v.71l6.76-.61,0,3.2c-2.28.3-4.59.61-6.8.85v3.46c0,2.89-.85,3.91-6.56,3.81a13.86,13.86,0,0,0-1.15-3.47c.68,0,1.39,0,2,0,1.67,0,1.87,0,1.87-.48v-2.89c-1.9.21-3.6.41-5,.55a.67.67,0,0,1-.61.54l-1.22-4.15c1.86-.13,4.24-.3,6.86-.54v-2.75l1.36.07c.58-.51,1.19-1.13,1.77-1.74h-2.59a34.35,34.35,0,0,1-5.16,3.71,23.17,23.17,0,0,0-2.55-3,27.67,27.67,0,0,0,3.43-2.14V113.6h2.18a20.7,20.7,0,0,0,1.59-1.53h-6.79v-3.5h5.23V106.2h-3.7v-3.44h3.7V99.5l4.66.27c0,.31-.31.51-.89.61v2.38h3.4v1.6a40.62,40.62,0,0,0,1.84-4l4.34,1.46c-.1.27-.47.41-1,.38a42.07,42.07,0,0,1-3.36,6.38h2.89v2.65A47.92,47.92,0,0,0,130.3,99.5l4.83,1a.84.84,0,0,1-.89.51c-.27,1.6-.57,3.23-1,4.79h9.08v3.78h-2a39.24,39.24,0,0,1-3.71,12.81C135.91,123.59,134.11,126.11,134.11,126.11ZM119.29,106.2v2.37H120c.58-.78,1.09-1.56,1.6-2.37Zm4.45,7.23,1.91,1.19a15,15,0,0,0,1.42-2.55h-5l-1.29,1.53h2.41Zm8.5-3.9,0,.06a44.14,44.14,0,0,0,2.08,8,36.76,36.76,0,0,0,1.83-8Z"/><path class="cls-4" d="M137,124a15.33,15.33,0,0,0,5.26,4.52,16.15,16.15,0,0,0-2.82,3.57,18,18,0,0,1-5.19-4.68Z"/><path class="cls-4" d="M155.62,114.11c1,.92,4.08,4.08,4.72,4.9L158,122.23a37,37,0,0,0-2.41-3.94v13.32h-4V119.18a31.08,31.08,0,0,1-3.74,7,22.45,22.45,0,0,0-1.91-3.87,32.5,32.5,0,0,0,4.9-9.18h-4.32v-3.8h5.07v-4c-1.4.37-2.82.68-4.18,1a11,11,0,0,0-1.23-3,44.29,44.29,0,0,0,11-3.77l3.26,3a1.34,1.34,0,0,1-.85.16,29.16,29.16,0,0,1-4,1.53v5.14h4.15v3.8h-4.15ZM169.89,99.7,175,100c0,.34-.28.54-.92.64V118.9l3.7-.68.68,3.88-4.38.78v8.73h-4.15ZM169,123.79l-9,1.6-.65-3.87,9.62-1.74Zm-3-5.4a29.39,29.39,0,0,0-5.57-5.4l2.82-2.34a32.19,32.19,0,0,1,5.74,5.09Zm-2-16.75a28.91,28.91,0,0,1,5.27,5.2l-3.13,2.45a29.72,29.72,0,0,0-5.06-5.44Z"/><path class="cls-4" d="M200.85,109.7h3.53v-1.29h-3.53v-2.82h3.53v-1.26h-3.53V102h7.57v3.64h4.38v2.82h-4.38v3.67h-7.57ZM199.31,117h13.77v2.82H181.92V117H195.2v-1.26H184.4v-2.48h10.8v-1.19h-9.89V109.7h9.89v-1.29H182v-2.82H195.2v-1.26h-9.55V102h9.55V99.78l5,.27c0,.37-.27.54-.92.65Zm1.54-3.74h9.44v2.48h-9.44Zm-9.48,15.19h13.55v-1.33H191.37v-2.38h13.55V123.5H190.24v8.56H186.3V120.91H209V132h-4.11v-1H191.37Z"/><path class="cls-4" d="M96.25,112.09l0,1.84c-1,7.95-3.1,11.86-7.1,11.86-2.53,0-4.37-2.14-4.37-6.1A10.32,10.32,0,0,1,95.4,109.37c.33,0,.66,0,1,0Zm-2.87.28a7.41,7.41,0,0,0-5.79,7.21c0,2,.58,3.32,1.6,3.32C91.47,122.9,93,117.81,93.38,112.37Z"/><path class="cls-4" d="M97.52,109.52c5.18.76,7.83,4.33,7.83,8.8,0,5.47-2.81,8.3-8.67,9.79a15.15,15.15,0,0,0-1.86-2.46c5.3-1.05,7.42-3.58,7.42-7.28,0-3.28-1.89-5.63-4.72-6.16Z"/><path class="cls-4" d="M175.67,63.66v3.66H160.49V63.66Zm9.44,26.51c-2.58,1.84-4.24,3.23-7.58,4.23-.46-1.12-1.95-2.52-2.83-3.56V92.4h-7.15V87.85h2.7v-4h-4.11V93.9h-4.37V80.63H174.7V90.77A26.47,26.47,0,0,0,182.54,87a34.55,34.55,0,0,1-4.9-7.66l4-1.27h-5.43V73.93h1.35a23.29,23.29,0,0,0-3.68-2.81V73H162.33V69.09h11.51v1.84a9.21,9.21,0,0,0,4.22-8V58.36h13v8.69c0,1.07.08,1.19.5,1.19h1c.5,0,.66-.5.73-3.88A11.51,11.51,0,0,0,197,66c-.38,4.81-1.42,6.15-4,6.15h-2.26c-3.12,0-4-1.19-4-5V62.47H182.4c0,2.66,0,8.19-4.8,11.46h14l.81-.15,2.92,1.15a1.26,1.26,0,0,1-.42.58,24.59,24.59,0,0,1-5.81,10.65C186.51,88.9,185.11,90.17,185.11,90.17ZM173.84,74.39V78.3H162.33V74.39Zm-.52-15.92V62H162.49v-3.5Zm8.39,19.61a19.19,19.19,0,0,0,3.81,5.27,18.68,18.68,0,0,0,3.65-5.27Z"/><path class="cls-4" d="M190.18,87.26A22.3,22.3,0,0,0,197.09,90a20.4,20.4,0,0,0-3,4A23.53,23.53,0,0,1,187,90.46,38,38,0,0,1,190.18,87.26Z"/><path class="cls-4" d="M216.48,64.07v3.66H200.15V64.07ZM207,88.7h2.92V84.24h-4.43v9.62H201V80.59h13.8V92.36H207ZM202,73v-3.5h12.45V73Zm0,5.27V74.8h12.45v3.46Zm12.49-19.38v3.5H202.71v-3.5ZM229.58,94h-5.14V73.88h-7.22V69.31h7.22V57.4l6.21.75c0,.39-.34.62-1.07.73Zm1.51-24.82h5.64v4.58h-5.66Z"/><path class="cls-4" d="M79.53,94.4c-2.52,0-3.44,0-5.45-.82s-4.61-2-6-3.61a17,17,0,0,1-3.67-5.74,23.81,23.81,0,0,1-1.13-7.61,26.59,26.59,0,0,1,1.13-8.05,14.2,14.2,0,0,1,3.23-5.28,16.82,16.82,0,0,1,5.56-4.06A15.24,15.24,0,0,1,79.53,58V64.8a6.26,6.26,0,0,0-3.23.82A7.84,7.84,0,0,0,73.51,68a11.25,11.25,0,0,0-1.76,3.72,15,15,0,0,0-.61,4.48,18.28,18.28,0,0,0,.61,4.93,11,11,0,0,0,1.76,3.73,8.05,8.05,0,0,0,2.79,2.35,6.31,6.31,0,0,0,3.25.83Z"/><path class="cls-4" d="M81.21,87.91a15.18,15.18,0,0,0,2.14-.35,7.36,7.36,0,0,0,4.11-3.23A5.11,5.11,0,0,0,88,82.19h7.51a13.33,13.33,0,0,1-1.43,5.14,13.08,13.08,0,0,1-3.2,4,11.45,11.45,0,0,1-4.2,2.15,26.58,26.58,0,0,1-5.44.86ZM81,58a21.86,21.86,0,0,1,5.12.92,11.75,11.75,0,0,1,4.21,2.25,13.88,13.88,0,0,1,3.22,4.11A11.29,11.29,0,0,1,95,70.06H87.5A3.73,3.73,0,0,0,87,68.24a7.31,7.31,0,0,0-1.74-2.08,7.46,7.46,0,0,0-2.39-1.34A9.3,9.3,0,0,0,81,64.45Z"/><path class="cls-4" d="M111.33,63.9a6.22,6.22,0,0,0-2,.3,6,6,0,0,0-1.9.86,3.88,3.88,0,0,0-1.22,1.37,3.71,3.71,0,0,0-.44,1.79c0,1.07,1.18,1.87,1.78,2.15a17.58,17.58,0,0,0,3.94,1.18l4.18.89a22.14,22.14,0,0,1,4.5,1.41,10.06,10.06,0,0,1,5.33,5.28,16.24,16.24,0,0,1,.58,4.5,11,11,0,0,1-1,4.7,11,11,0,0,1-3.25,3.55c-1.21,1-2.69,1.26-4.42,1.78a19.18,19.18,0,0,1-4.29.74V88a14.86,14.86,0,0,0,1.86-.24,6.63,6.63,0,0,0,2-.91,4.42,4.42,0,0,0,1.33-1.4,3.52,3.52,0,0,0,.48-1.8,3.33,3.33,0,0,0-.33-1.49,3.41,3.41,0,0,0-1.06-1.2,7.32,7.32,0,0,0-1.86-.95,30.38,30.38,0,0,0-3.17-.76l-4.52-1q-9.42-2-9.41-9.89a12.15,12.15,0,0,1,1-4.89,8.45,8.45,0,0,1,2.67-3,12.31,12.31,0,0,1,4.18-2.19,15.35,15.35,0,0,1,5-.77Z"/><path class="cls-4" d="M113,57.75a22.54,22.54,0,0,1,4.45.7,12.62,12.62,0,0,1,4.16,1.81,9.93,9.93,0,0,1,2.76,3.2A16.81,16.81,0,0,1,125.9,69h-7.72a9.28,9.28,0,0,0-.65-2.76,5.13,5.13,0,0,0-1.35-1.44,6.41,6.41,0,0,0-2-.93,7.19,7.19,0,0,0-1.23-.22Z"/><path class="cls-4" d="M111.46,94.4a19.86,19.86,0,0,1-5.62-1,13.18,13.18,0,0,1-4.32-2.1,11.59,11.59,0,0,1-2.82-3.77,17.16,17.16,0,0,1-1.12-5.71h7.11a8.59,8.59,0,0,0,.6,2.81,6.74,6.74,0,0,0,1.52,1.9,7.9,7.9,0,0,0,2.23.92,7.79,7.79,0,0,0,2.36.32Z"/><path class="cls-4" d="M142.18,63.9a6.22,6.22,0,0,0-2,.3,6,6,0,0,0-1.9.86A3.88,3.88,0,0,0,137,66.43a3.71,3.71,0,0,0-.44,1.79c0,1.07,1.18,1.87,1.78,2.15a17.58,17.58,0,0,0,3.94,1.18l4.18.89a22.14,22.14,0,0,1,4.5,1.41,10.06,10.06,0,0,1,5.33,5.28,16.24,16.24,0,0,1,.58,4.5,11,11,0,0,1-1,4.7,11,11,0,0,1-3.25,3.55c-1.21,1-2.69,1.26-4.42,1.78a19.18,19.18,0,0,1-4.29.74V88a14.86,14.86,0,0,0,1.86-.24,6.63,6.63,0,0,0,2-.91,4.42,4.42,0,0,0,1.33-1.4,3.52,3.52,0,0,0,.48-1.8,3.33,3.33,0,0,0-.33-1.49,3.41,3.41,0,0,0-1.06-1.2,7.32,7.32,0,0,0-1.86-.95,30,30,0,0,0-3.18-.76l-4.51-1q-9.42-2-9.41-9.89a12.15,12.15,0,0,1,.95-4.89,8.45,8.45,0,0,1,2.67-3,12.31,12.31,0,0,1,4.18-2.19,15.35,15.35,0,0,1,5.05-.77Z"/><path class="cls-4" d="M143.85,57.75a22.54,22.54,0,0,1,4.45.7,12.62,12.62,0,0,1,4.16,1.81,10.06,10.06,0,0,1,2.76,3.2A16.81,16.81,0,0,1,156.75,69H149a9.28,9.28,0,0,0-.65-2.76A5.13,5.13,0,0,0,147,64.82a6.41,6.41,0,0,0-1.95-.93,7.19,7.19,0,0,0-1.23-.22Z"/><path class="cls-4" d="M142.31,94.4a19.86,19.86,0,0,1-5.62-1,13.18,13.18,0,0,1-4.32-2.1,11.59,11.59,0,0,1-2.82-3.77,16.91,16.91,0,0,1-1.12-5.71h7.11a8.34,8.34,0,0,0,.6,2.81,6.74,6.74,0,0,0,1.52,1.9,7.9,7.9,0,0,0,2.23.92,7.79,7.79,0,0,0,2.36.32Z"/></g></g></svg>