<svg xmlns="http://www.w3.org/2000/svg" viewBox="0 0 300 300"><defs><style>.cls-1{fill:#e6e6e6;opacity:0;}.cls-2{fill:#2c2d35;}.cls-3{fill:#f24e1e;}.cls-4{fill:#a259ff;}.cls-5{fill:#1abcfe;}.cls-6{fill:#0acf83;}.cls-7{fill:#ff7262;}</style></defs><g id="レイヤー_2" data-name="レイヤー 2"><g id="レイヤー_1-2" data-name="レイヤー 1"><rect class="cls-1" width="300" height="300"/><path class="cls-2" d="M237.94,0H62.06C30.34,0,.42,27.9.42,59.91V240.09c0,32,29.92,59.91,61.64,59.91H237.94c31.72,0,61.64-27.9,61.64-59.91V59.91C299.58,27.9,269.66,0,237.94,0Z"/><path class="cls-3" d="M111.74,38.34C92.52,38.34,77,54.85,77,75.21s15.57,36.87,34.79,36.87H150V38.34Z"/><path class="cls-4" d="M111.74,112.08C92.52,112.08,77,128.44,77,148.61s15.57,36.52,34.79,36.52H150v-73Z"/><circle class="cls-5" cx="186.52" cy="148.61" r="36.52"/><path class="cls-6" d="M111.74,185.13v.05A36.52,36.52,0,1,0,150,223.4h0V185.13Z"/><path class="cls-7" d="M188.26,38.34H150v73.74h38.26c19.22,0,34.79-16.5,34.79-36.87S207.48,38.34,188.26,38.34Z"/></g></g></svg>