<svg xmlns="http://www.w3.org/2000/svg" viewBox="0 0 300 300"><defs><style>.cls-1{fill:#e6e6e6;opacity:0;}.cls-2{fill:#f05033;}.cls-3{fill:#fff;}</style></defs><g id="レイヤー_2" data-name="レイヤー 2"><g id="レイヤー_1-2" data-name="レイヤー 1"><rect class="cls-1" width="300" height="300"/><path class="cls-2" d="M295.37,137.42,229,71,162.58,4.63c-7-7-20.34-4.82-23.7-1.46L71,71,3.17,138.88c-3.36,3.36-5.57,16.66,1.46,23.7L71,229l66.39,66.4c7,7,20.34,4.82,23.7,1.46L229,229l67.86-67.85C300.19,157.76,302.4,144.46,295.37,137.42Z"/><path class="cls-3" d="M173.92,213.84a22.75,22.75,0,0,0-13.15-20.62V111.4l31.69,31.69a22.72,22.72,0,1,0,13.73-13.43L172.55,96a22.73,22.73,0,0,0-29-29L109.29,32.76,95.71,46.34l34.13,34.13a22.74,22.74,0,0,0,12.53,29v83.41a22.73,22.73,0,1,0,31.55,21Z"/></g></g></svg>