<svg xmlns="http://www.w3.org/2000/svg" viewBox="0 0 300 300"><defs><style>.cls-1{fill:#e6e6e6;opacity:0;}.cls-2{fill:#e44d26;}.cls-3{fill:#f16529;}.cls-4{fill:#fff;}.cls-5{fill:#ebebeb;}</style></defs><g id="レイヤー_2" data-name="レイヤー 2"><g id="レイヤー_1-2" data-name="レイヤー 1"><rect class="cls-1" width="300" height="300"/><path class="cls-2" d="M150,0H18a.59.59,0,0,0-.59.64L41.68,270a.6.6,0,0,0,.43.52L149.84,300a.58.58,0,0,0,.32,0l107.73-29.44a.6.6,0,0,0,.43-.52L282.58.64A.59.59,0,0,0,282,0Z"/><path class="cls-3" d="M150.39,277.73a.59.59,0,0,0,.75.56L239,253a.57.57,0,0,0,.42-.51l20-230.25a.59.59,0,0,0-.59-.64L150.2,22a.58.58,0,0,0-.59.58"/><polygon class="cls-4" points="150.06 88.72 150.05 88.72 150 88.72 150 88.72 150.06 88.72"/><path class="cls-5" d="M150.05,207.77l-.07,0h0v.45a.6.6,0,0,0-.44-.57l-35.72-9.76a.58.58,0,0,1-.43-.51l-2.18-24.22A1.17,1.17,0,0,0,110,172.1h-32a.57.57,0,0,0-.48.27.53.53,0,0,0-.1.37l4.62,51.31a.58.58,0,0,0,.43.51l66.69,18.23a.68.68,0,0,0,.2,0l.55.15v0h0V207.78h0"/><path class="cls-5" d="M150,122H107.38a.59.59,0,0,1-.59-.53L104,89.23a.59.59,0,0,1,.12-.39L150,88.72h0V55.19H67.67a.6.6,0,0,0-.56.39l.8,9.39,2.15,24,3,33.39,3,32.92a.56.56,0,0,0,.38.15l33.56-.08,40-.09v-.1h0V122Z"/><path class="cls-4" d="M230,88.93h0l1.63-18.07.5-5.89.82-9.14a.52.52,0,0,0,0-.25v0a.57.57,0,0,0-.52-.34H150V88.72h.07"/><path class="cls-4" d="M189.72,155.12a.59.59,0,0,1,.59.64l-3.69,41.63a.58.58,0,0,1-.43.51L150,207.79h0V243h.07l.07,0h0l.55-.15h0l66.74-18.24a.56.56,0,0,0,.43-.51l4.65-51.62,0-.06,1.55-17.13,0,0,3-32.81,0-.07a.57.57,0,0,0-.52-.33H150v33.13h.14"/></g></g></svg>