<svg xmlns="http://www.w3.org/2000/svg" viewBox="0 0 300 300"><defs><style>.cls-1{fill:#e6e6e6;opacity:0;}.cls-2{fill:#5582a9;}.cls-3{fill:#5384a0;}.cls-4{fill:#e86c00;}.cls-5{fill:#e76b00;}.cls-6{fill:#5181a2;}.cls-7{fill:#5783a1;}.cls-8{fill:#5583a1;}.cls-9{fill:#5783a2;}</style></defs><g id="レイヤー_2" data-name="レイヤー 2"><g id="レイヤー_1-2" data-name="レイヤー 1"><rect class="cls-1" width="300" height="300"/><path class="cls-2" d="M249,187.36c3.51-24.54-19.9-23.35-27-22.45a.18.18,0,0,1-.09-.34c7.11-2.87,33.93-9.34,39.33,16h0s4.74,25.51-40.2,37.19c-.19,0-.33-.2-.17-.31C225.5,214.14,247.47,198,249,187.36Z"/><path class="cls-3" d="M111,163.52c-.55-1.46-48.57,10.7-47.69,17,2.45,17.78,136.62,9.17,144.44-2.17a.71.71,0,0,0-.65-1.12C195.73,178.54,90.3,190,85.47,177.14,83.65,172.29,111.42,164.6,111,163.52Z"/><path class="cls-4" d="M163.82,172c-2.68,3.13,20.44-15.33,20.44-27.25,0-14.92-15-20-17-34.06-3.78-26,51-48.56,49.4-51.1-.76-1.23-66.21,21.18-64.73,56.21.19,4.54,1.74,14.63,14,26.24A13,13,0,0,1,170,150C170.62,155.5,170.32,164.46,163.82,172Z"/><path class="cls-5" d="M112.72,98.79c-9.47,28.41,35.77,61.32,37.48,63,1.93,1.94-29-30.47-22.15-57.91,4.84-19.34,37.48-34.06,52.81-59.61,10.2-17,6.8-29.47,1.7-44.29a46.19,46.19,0,0,1,.36,17.17A66,66,0,0,1,179.15,29C167.23,56.21,119.54,78.35,112.72,98.79Z"/><path class="cls-6" d="M260.91,274.23c.4,1.25-13.62,23.85-85.16,25.55s-93.85-7.12-93.69-8.51,40.88,5.11,92,3.4C228.55,292.86,260.51,273,260.91,274.23Z"/><path class="cls-7" d="M101.65,198.44c-2.23-2.22-14.82,6.93-14.48,11.07,1.71,20.44,124.35,10.22,114.13,3.4s-10.22-6.81-13.63-6.81c-2.41,0-74.95,11.92-88.57,0C97.44,204.65,102.84,199.62,101.65,198.44Z"/><path class="cls-8" d="M106.76,232.5c-4.26.85-10.87,6-9.37,9.37,11.08,24.7,111.57,7.66,101.35,4.26-8.08-2.69-16.25-8.16-17.88-7.67-17,5.11-61.79,4.88-71.54,0C105.91,236.76,111,231.65,106.76,232.5Z"/><path class="cls-9" d="M84.62,252.94c-16.18-.85-47.06,11.22-46,18.74,2.55,17.88,201.84,19.59,209.51-8.52,1.14-4.19-5-7.5-4.26-6,11.92,25.55-177.15,22.14-185.66,10.22C53.27,260.49,85.87,253,84.62,252.94Z"/></g></g></svg>