<svg xmlns="http://www.w3.org/2000/svg" viewBox="0 0 300 300"><defs><style>.cls-1{fill:#e6e6e6;opacity:0;}.cls-2{fill:#d4b830;}.cls-3{fill:none;}.cls-4{fill:#fff;}.cls-5{fill:#fdd83c;}.cls-6{fill:#ebebeb;fill-opacity:0.92;opacity:0.99;isolation:isolate;}</style></defs><g id="レイヤー_2" data-name="レイヤー 2"><g id="レイヤー_1-2" data-name="レイヤー 1"><rect class="cls-1" width="300" height="300"/><path class="cls-2" d="M150,0H18.21a.59.59,0,0,0-.58.64L41.85,270a.59.59,0,0,0,.43.52L149.84,300a.58.58,0,0,0,.32,0l107.56-29.44a.59.59,0,0,0,.43-.52L282.37.64a.59.59,0,0,0-.58-.64Z"/><line class="cls-3" x1="125.01" y1="104.94" x2="125.01" y2="104.94"/><polygon class="cls-4" points="150.06 88.72 150.05 88.72 150 88.72 150 88.72 150.06 88.72"/><path class="cls-5" d="M149.61,22.56a.58.58,0,0,1,.59-.58l108.48-.34a.59.59,0,0,1,.59.64l-20,230.25a.59.59,0,0,1-.43.51l-87.71,25.25a.59.59,0,0,1-.75-.56Z"/><path id="path5117" class="cls-4" d="M232.9,216.49,240.1,129,186.83,135V88.25l56.83-.2L246,56.14l-85.76.42,1.15,116.14,51.81-8.86-.73,25.86-52.23,13.87.52,31.69,72.19-18.77Z"/><path id="path5157" class="cls-6" d="M61.18,214.08l-.1-32s33,9.29,51.69,14.09l.31-140h26.58V235.26L61.18,214.08Z"/></g></g></svg>