<svg xmlns="http://www.w3.org/2000/svg" viewBox="0 0 300 300"><defs><style>.cls-1{fill:#e6e6e6;opacity:0;}.cls-2{fill:#0c6aac;}.cls-3{fill:#141414;}</style></defs><g id="レイヤー_2" data-name="レイヤー 2"><g id="レイヤー_1-2" data-name="レイヤー 1"><rect class="cls-1" width="300" height="300"/><path class="cls-2" d="M247.66,142.24c1.81-2.45-19,49.58-81.63,51.59-59.1,1.89-103.17-38.06-115.69-86.14-12.89-49.49,18-78.13,20-78.13,1,0-25,70.62,44.57,117.69,2.73,1.85,15.48,10,23.15,13.34,32.94,14.21,59.49,7.2,72.44,4.3C216,163.67,240.65,151.76,247.66,142.24Z"/><path class="cls-2" d="M123.46,11c1,0-13,41.07,18,72.62,2.26,2.3,21,20.53,44.57,26,44.23,10.35,66.52-20.53,67.61-20.53.5,0-14.53,42.2-69.11,40.06-25.55-1-51.66-16-65.61-39.56C91.41,43.08,123,11,123.46,11Z"/><path class="cls-2" d="M167.53,0c.5,1-3.8,23.86,8.51,38.07,6.51,7.51,16,19,37.06,23,17.47,3.33,30.55-6.21,30.55-5.51,0,1.51-10.52,17.53-33.05,17S174.47,61.15,165,45.09C150,19.55,167.21-.62,167.53,0Z"/><polygon class="cls-3" points="27.8 242.91 41.32 242.91 43.83 231.89 30.31 231.89 27.8 242.91"/><path class="cls-3" d="M22.29,268c-1,8.51-5,17.53-7,19.53l-7,.5c0,1.5-2,7.51-2.5,11.52l13,.5c9.51-2.5,10.23-6.6,12-11.52,2-5.51,10-41.57,10-41.57H27.3S23.94,253.94,22.29,268Z"/><path class="cls-3" d="M81.89,218.37c-16.29-1.3-28.72,8.45-34.06,25-4.5,14-4,33,11.52,36.56h41.57a106.6,106.6,0,0,0,3-12h-7a225.17,225.17,0,0,0,7.52-23.54C104.7,243.32,106.93,220.37,81.89,218.37Zm8,25.54-6.51,24h-15c-8-2-8.18-6.05-8-9.52.35-7.16,3-17,6-21.53s8.52-6.51,15.53-5.51C88.16,232.28,90.4,237.4,89.9,243.91Z"/><path class="cls-3" d="M144.49,231.89l-8,36.06H123a35,35,0,0,1,0-11.52c3-16,4.5-19,4.5-24.54H114.94c-2,9.52-7,28.55-6.51,37.56a12.09,12.09,0,0,0,10,10.52H147l10-48.08Z"/><path class="cls-3" d="M187.06,230.39c-16,0-22.54,9.22-24,11-.54.64-7.51,15-6.51,28C156.9,274.54,162,280,168,280h29.05l2.5-11.52s-17,.5-25-.5c-2-.25-5-1.5-4-7h31.05a63.13,63.13,0,0,0,2.51-16.53C204.09,231.39,188.56,230.39,187.06,230.39Zm-14,19.53c-.5-2,4-7,7-7.51h5c1.36.31,4.5,1.5,5,3.5.18.69.51,4,.51,4Z"/><path class="cls-3" d="M246.16,231.89h-31l-10,48.08h12.52l8-36.56h29C253.67,234.89,252.67,233.89,246.16,231.89Z"/><path class="cls-3" d="M278.71,224.38l-20.53,30.05c-.22,0-.1.15-.51,0l-2-8h-14c.5,6,4.51,15,5,19.53.77,7-1,9.52-2,14h14c2-9,10-21.54,15-27.55,15.93-19.11,20.53-28,20.53-28Z"/></g></g></svg>