<svg xmlns="http://www.w3.org/2000/svg" viewBox="0 0 300 300"><defs><style>.cls-1{fill:#e6e6e6;opacity:0;}.cls-2{fill:#001e36;}.cls-3{fill:#31a8ff;}.cls-4{fill:#30a8ff;fill-rule:evenodd;}</style></defs><g id="レイヤー_2" data-name="レイヤー 2"><g id="レイヤー_1-2" data-name="レイヤー 1"><rect class="cls-1" width="300" height="300"/><path class="cls-2" d="M248.54,3H53.7C25.37,3,0,25.37,0,54.45v191.1C0,274.63,25.37,297,53.7,297H248.54c24.59,0,51.46-22.38,51.46-51.46V54.45C300,25.37,272.39,3,248.54,3Z"/><path class="cls-3" d="M111.19,78.36h-44V210.45H94V168.66h12c10.45,0,55.22.74,55.22-46.27C161.19,88.06,132.84,78.36,111.19,78.36Z"/><path class="cls-2" d="M106,102.24H94v42.54H106c10.45,0,28.36-3,28.36-21.65S116.42,102.24,106,102.24Z"/><path class="cls-4" d="M223.13,152.24c-19.4-7.46-22.38-10.45-22.38-14.18,0-5.22,7.46-6.72,7.46-6.72h10.45c6,0,17.91,3.73,21.1,6a11.42,11.42,0,0,0,2,0V114.18S233.58,109,218.66,109H207.32s-26.72,2.23-31.95,24.62a28,28,0,0,0,0,13.2c3.73,15.16,20.15,22.62,28.36,25.61,3.51,1.27,16.42,5.22,16.42,11.19s-6,6.72-9.7,7.46c0,0-9.59-.53-11.28-.74-17.83-2.24-20.81-8.21-24.54-7.46v23.82c0,.8,11.19,6,26.12,6.77l7.74.06c25.84,0,38.52-17.22,38.52-26.92V177.9S247.84,161.74,223.13,152.24Z"/></g></g></svg>