<svg xmlns="http://www.w3.org/2000/svg" xmlns:xlink="http://www.w3.org/1999/xlink" viewBox="0 0 300.19 300"><defs><style>.cls-1{fill:#e6e6e6;opacity:0;}.cls-2{fill:#010204;}.cls-10,.cls-11,.cls-12,.cls-13,.cls-14,.cls-15,.cls-16,.cls-17,.cls-18,.cls-19,.cls-20,.cls-3,.cls-4,.cls-5,.cls-6,.cls-7,.cls-8,.cls-9{fill:none;stroke-miterlimit:10;}.cls-13,.cls-16,.cls-17,.cls-3,.cls-5,.cls-6,.cls-7,.cls-9{stroke:#346a9b;}.cls-20,.cls-3,.cls-4,.cls-7{opacity:0.8;}.cls-14,.cls-4{stroke:#ff0;}.cls-10,.cls-11,.cls-12,.cls-13,.cls-14,.cls-16,.cls-20,.cls-4,.cls-5,.cls-7,.cls-9{stroke-width:2px;}.cls-5{opacity:0.6;}.cls-6{opacity:0.4;}.cls-12,.cls-8{stroke:#faca2e;}.cls-10{stroke:#1a3650;}.cls-10,.cls-13{opacity:0.5;}.cls-11,.cls-15,.cls-19,.cls-20{stroke:#fff;}.cls-11,.cls-16,.cls-17{opacity:0.7;}.cls-18{stroke:#000;}.cls-18,.cls-19{stroke-width:0.5px;}.cls-21{opacity:0.9;fill:url(#名称未設定グラデーション_3);}.cls-22{fill:#fff;}</style><linearGradient id="名称未設定グラデーション_3" x1="150.19" y1="9.76" x2="150.19" y2="309.76" gradientUnits="userSpaceOnUse"><stop offset="0" stop-color="#e5e6e6"/><stop offset="1" stop-color="#8b8b8b"/></linearGradient></defs><g id="レイヤー_2" data-name="レイヤー 2"><g id="レイヤー_1-2" data-name="レイヤー 1"><rect class="cls-1" x="0.19" width="300" height="300"/><circle class="cls-2" cx="150.19" cy="150" r="137.61"/><polyline class="cls-3" points="68.83 119.53 102.64 157.37 173.29 246.76 218.28 282.59"/><line class="cls-4" x1="15.76" y1="83.54" x2="69.16" y2="119.87"/><polyline class="cls-5" points="9.56 98.44 37.69 103.8 43.71 156.7 11.92 208.12"/><polyline class="cls-6" points="252.59 41.94 171.28 152.34 143.93 29.33 242.99 33.54"/><polyline class="cls-7" points="240.72 164.16 194.72 53.63 125.08 23.1 68.83 119.53"/><line class="cls-8" x1="238.25" y1="158.37" x2="226.19" y2="129.58"/><line class="cls-9" x1="291.04" y1="102.21" x2="243.18" y2="169.4"/><line class="cls-10" x1="197.54" y1="56.63" x2="221.31" y2="19.03"/><line class="cls-11" x1="197.16" y1="57.24" x2="197.54" y2="56.63"/><polyline class="cls-11" points="284.28 85.58 196.73 57.92 197.16 57.24"/><polyline class="cls-12" points="106.17 7.06 125.08 23.1 197.76 8.64"/><polyline class="cls-13" points="121.89 3.22 145.16 28.46 170.89 2.19"/><polyline class="cls-5" points="250.8 259.73 232.22 250.78 293.32 109.62"/><polyline class="cls-3" points="232.44 250.27 173.01 150 297.07 126.87"/><line class="cls-4" x1="83.56" y1="248.77" x2="49.77" y2="261.13"/><line class="cls-14" x1="83.46" y1="247.96" x2="83.53" y2="248.53"/><line class="cls-15" x1="67.79" y1="119.69" x2="83.46" y2="247.96"/><line class="cls-14" x1="67.75" y1="119.41" x2="67.77" y2="119.55"/><line class="cls-14" x1="67.73" y1="119.18" x2="67.75" y2="119.41"/><polyline class="cls-4" points="0.34 143.21 67.69 118.86 67.72 119.18"/><line class="cls-7" x1="198.07" y1="291.26" x2="171.44" y2="244.43"/><line class="cls-4" x1="49.91" y1="152.61" x2="8.78" y2="99.97"/><polyline class="cls-4" points="67.84 120.09 50.74 153.68 49.91 152.61"/><line class="cls-15" x1="50.08" y1="152.83" x2="26.64" y2="234.88"/><line class="cls-16" x1="83.11" y1="245.1" x2="50.5" y2="153.99"/><polyline class="cls-17" points="43.61 155.82 89.67 168.14 118.04 296.01"/><polyline class="cls-13" points="5 112.27 90.59 168.75 37.69 103.8 145.16 28.46"/><line class="cls-18" x1="3.02" y1="120.93" x2="43.45" y2="154.39"/><line class="cls-4" x1="49.64" y1="154.39" x2="0.34" y2="156.28"/><line class="cls-19" x1="50.64" y1="154.39" x2="101.68" y2="156.28"/><line class="cls-20" x1="102.83" y1="156.93" x2="83.56" y2="247.62"/><line class="cls-20" x1="83.56" y1="248.77" x2="173.16" y2="247.45"/><line class="cls-9" x1="174.16" y1="247.45" x2="242.62" y2="169"/><line class="cls-18" x1="43.01" y1="157.84" x2="35.8" y2="202.8"/><line class="cls-17" x1="231.63" y1="248.92" x2="121.67" y2="296.74"/><polyline class="cls-5" points="99.66 154.02 170.86 150.47 90.24 170.71 35.8 246.8"/><polyline class="cls-18" points="139.81 165.07 170.61 149.33 136.46 138.95"/><path class="cls-21" d="M150.19,0a150,150,0,1,0,150,150A150,150,0,0,0,150.19,0Zm0,287.56A137.56,137.56,0,1,1,287.74,150,137.56,137.56,0,0,1,150.19,287.56Z"/><path class="cls-22" d="M97.29,127.23c1.33.67,22.09,3.35,22.09,3.35l-.67,97.1C110.68,228.35,98,231,98,231v12.05h65V231c-1.34-1.34-21.43-3.35-21.43-3.35V114.51H97.29"/><path class="cls-22" d="M144.16,57.59V85h11.38c1.34-12.05,2-12.05,2-16.74,0-1.34,34.16-10,34.82,17.41.26,10.6-6.69,25.45-33.48,28.13V127.9c0,2,34.82-4.69,34.82,24.11,0,5.4,1.34,25.45-34.82,28.12v15.41c0,2,54.91-2.68,54.91-42.86,0-36.17-32.14-34.15-27.45-35.49C204.48,112,211.55,94.78,211.12,81,209.79,38.17,144.16,52.23,144.16,57.59Z"/></g></g></svg>