<svg xmlns="http://www.w3.org/2000/svg" xmlns:xlink="http://www.w3.org/1999/xlink" viewBox="0 0 300 300"><defs><style>.cls-1{fill:#e6e6e6;opacity:0;}.cls-2{fill:url(#名称未設定グラデーション_16);}.cls-3{fill:#fff;}.cls-4{fill:url(#名称未設定グラデーション_19);}</style><linearGradient id="名称未設定グラデーション_16" x1="1.87" y1="110.76" x2="221.4" y2="110.76" gradientUnits="userSpaceOnUse"><stop offset="0" stop-color="#4a87b8"/><stop offset="1" stop-color="#2e6b9a"/></linearGradient><linearGradient id="名称未設定グラデーション_19" x1="78.36" y1="188.3" x2="298.13" y2="188.3" gradientUnits="userSpaceOnUse"><stop offset="0" stop-color="#fbea74"/><stop offset="1" stop-color="#fcda4d"/></linearGradient></defs><g id="レイヤー_2" data-name="レイヤー 2"><g id="レイヤー_1-2" data-name="レイヤー 1"><rect class="cls-1" width="300" height="300"/><path class="cls-2" d="M48.66,76.19h101V67.46H78.6V33.16c1.71-19.41,13.09-23.07,13.09-23.07,18.09-10.6,58-10,58-10s48-2.49,61.74,16.21c0,0,8.17,6.92,10,21.83v73s-1.62,26.14-28.68,32.43l-3.12.63H109.15S73,149.15,69.87,186v35.54H41.8s-38,3.74-39.91-73.58C1.89,147.91-.6,78.06,48.66,76.19Z"/><circle class="cls-3" cx="109.78" cy="35.34" r="13.1"/><path class="cls-4" d="M261.08,221.32h-111v9.35h71.09L221.4,262c-3.11,18.08-15.82,23.52-15.82,23.52a121.29,121.29,0,0,1-55.5,14.34s-35.31,2.67-60.49-18.7c0,0-9.42-6.3-11.23-21.21V187s1.63-26.13,28.69-32.43l3.12-.62h80.44s36.17-5,39.29-41.78V76.64h31.81s32-4.19,36.4,68.77c0,0,.27,13.59-1.25,23.7C293.12,194.05,281.27,220.25,261.08,221.32Z"/><circle class="cls-3" cx="190.22" cy="262.34" r="13.1"/></g></g></svg>