<svg xmlns="http://www.w3.org/2000/svg" viewBox="0 0 300 300"><defs><style>.cls-1{fill:#e6e6e6;opacity:0;}.cls-2{fill:#cd2027;}</style></defs><g id="レイヤー_2" data-name="レイヤー 2"><g id="レイヤー_1-2" data-name="レイヤー 1"><rect class="cls-1" width="300" height="300"/><path class="cls-2" d="M9.37,188.59H113.8C92,64,198,7.06,295,83.07l5-3.55C119.27-82.63,15.93,119.5,9.37,188.59Z"/><path class="cls-2" d="M117.91,162.29s.45,14.57,1.36,16.39l15.48,5.46s-3.64-16.39-2.73-16.84Z"/><path class="cls-2" d="M119.73,128.6l10.47,8.2s1.36-13.2,3.18-15.48l-10-7.28Z"/><path class="cls-2" d="M145.22,95.37s5.92-7.74,7.74-9.56c0,0-2-1.74-5.92-8.65,0,0-7.28,6.83-8.19,8.65C138.85,85.81,144.76,94.92,145.22,95.37Z"/><path class="cls-2" d="M171.62,61.23l11.84-4.1,2.73,8.65c-2.27.46-11.38,4.55-11.38,4.55Z"/><path class="cls-2" d="M214.42,54s-.46.91-.46,8.19c0,0,9.11,0,12.75,1.82l.45-8.19A127.39,127.39,0,0,0,214.42,54Z"/><path class="cls-2" d="M214.42,12.52,214,21.17s10.93,3.19,12.75,4.55l.45-8.65A89.35,89.35,0,0,0,214.42,12.52Z"/><path class="cls-2" d="M164.34,4.78l2.28,7.74s-11.84.45-12.75.45l-2.28-7.73Z"/><polygon class="cls-2" points="95.6 23.45 106.07 17.53 111.99 26.63 101.52 32.55 95.6 23.45"/><polygon class="cls-2" points="52.81 57.59 61.91 65.78 52.81 76.25 42.79 67.6 52.81 57.59"/><polygon class="cls-2" points="6.83 119.5 21.85 124.96 15.48 140.44 0 134.98 6.83 119.5"/><path class="cls-2" d="M46.89,269.83c-.59.05-.67,0,0-.1v.1c3-.25,19.57-3.67,19.57-26.51,0-18.66-12.74-25.49-22.3-27.77H0v79.67H21.4V276.1h.45l18.21,19.12H71.93l-25-25Zm-7.74-16.49H21.85V235.58h17.3c1.08.89,4.1,2.74,4.1,9.11S39.82,252.8,39.15,253.34Z"/><path class="cls-2" d="M46.89,269.83v-.1C46.22,269.8,46.3,269.88,46.89,269.83Z"/><path class="cls-2" d="M121.09,216H95.14a21.26,21.26,0,0,0-18.21,18.66v60.55H98.79V281.11h20v14.11h21.39v-61C138.39,222.84,131.11,217.83,121.09,216Zm-2.27,42.79h-20v-20c0-1.82,1.82-3.19,4.09-3.64h10.47a5.4,5.4,0,0,1,5.47,3.64Z"/><rect class="cls-2" x="150.23" y="216.01" width="22.76" height="79.21"/><polygon class="cls-2" points="204.86 216.01 182.09 216.01 182.09 295.22 235.36 295.22 235.36 274.73 204.86 274.73 204.86 216.01"/><path class="cls-2" d="M280,245.6H260.85v-9.11h36.42V216H260.39c-5,.45-17.29,5-19.12,18.66v11.84c1.83,11.38,10,16.84,18.21,18.21h20v10H242.64v20.49h37.78c5.47-.91,18.21-5,19.12-19.12V264.26C298.63,252.88,289.53,246.51,280,245.6Z"/></g></g></svg>