<svg xmlns="http://www.w3.org/2000/svg" viewBox="0 0 300 300"><defs><style>.cls-1{fill:#e6e6e6;opacity:0;}.cls-2{fill:#fff;}</style></defs><g id="レイヤー_2" data-name="レイヤー 2"><g id="レイヤー_1-2" data-name="レイヤー 1"><rect class="cls-1" width="300" height="300"/><path d="M300,119.2,266.52,0,144.64,32.14,127.23,63H88.39L0,150l89.73,87.05h37.5l17.41,30.81L266.52,300,300,182.14,281.25,150ZM129.91,67,223.66,44.2l-54.91,91.07H61.61Zm0,166.08-68.3-68.31H170.09l53.57,91.07Zm119.2,6.69L195.54,150l53.57-91.07,25.44,92.41Z"/><polygon class="cls-2" points="223.66 44.2 129.91 66.96 61.61 135.27 168.75 135.27 223.66 44.2"/><polygon class="cls-2" points="195.54 150 249.11 239.73 274.55 151.34 249.11 58.93 195.54 150"/><polygon class="cls-2" points="61.61 164.73 129.91 233.04 223.66 255.8 170.09 164.73 61.61 164.73"/></g></g></svg>