<svg xmlns="http://www.w3.org/2000/svg" viewBox="0 0 300 300"><defs><style>.cls-1{fill:#e6e6e6;opacity:0;}.cls-2{fill:#470137;}.cls-3{fill:#ff61f6;}</style></defs><g id="レイヤー_2" data-name="レイヤー 2"><g id="レイヤー_1-2" data-name="レイヤー 1"><rect class="cls-1" width="300" height="300"/><path class="cls-2" d="M246.09,4.43H53.17C25.12,4.43,0,26.6,0,55.39V244.61c0,28.79,25.12,51,53.17,51H246.09c28,0,53.91-22.17,53.91-51V55.39C300,26.6,274.14,4.43,246.09,4.43Z"/><polygon class="cls-3" points="76.11 79.06 101.97 127.83 102.71 127.09 127.93 79.06 157.39 79.06 157.39 80.54 119.7 141.87 119.7 142.61 159.61 208.37 159.61 209.11 126.36 209.11 100.49 161.08 99.75 161.08 73.89 209.11 43.6 209.11 43.6 208.37 82.02 144.83 82.02 144.09 44.34 80.54 44.34 79.06 76.11 79.06"/><path class="cls-3" d="M254.16,187.68h0V68H226.11v40.64H220.9c-42.08,0-59.08,28.82-59.08,51.72,0,34.73,21.43,51.73,53.9,51.73l11.13-.74c22.16-3,28.08-8.13,28.08-8.13C254.93,199.43,254.33,190.33,254.16,187.68Z"/><path class="cls-2" d="M220,132.27c-19,0-29.4,11.08-29.4,28.07,0,21.43,12.56,28.08,29.4,28.08l6.07-.74V132.27Z"/></g></g></svg>