<svg xmlns="http://www.w3.org/2000/svg" viewBox="0 0 1980 1404"><defs><style>.cls-1{fill:#666;}.cls-2{opacity:0.6;}.cls-3{fill:#c6c6c6;}</style></defs><g id="レイヤー_2" data-name="レイヤー 2"><g id="レイヤー_1-2" data-name="レイヤー 1"><rect class="cls-1" width="1980" height="1404"/><g id="レイヤー_2-2" data-name="レイヤー 2" class="cls-2"><g id="レイヤー_1-2-2" data-name="レイヤー 1-2"><path class="cls-3" d="M1065.43,1119.06h-.3a416.45,416.45,0,0,1-93.7-.77h-.31l-36.71,104.18a513.89,513.89,0,0,1-81.07-20.66l15.58-109.65-.28-.12a413.24,413.24,0,0,1-81.84-44l-.26-.17-80.2,74.75a525.15,525.15,0,0,1-62.46-56.62l63.91-89.11-.2-.23a420.68,420.68,0,0,1-52.26-76.47l-.14-.27-104.5,28.37a522.39,522.39,0,0,1-29.43-79.61l96.39-48.31-.07-.29A422.55,422.55,0,0,1,606.34,708v-.31l-104-23.5a529.5,529.5,0,0,1,10.39-84.55l105.78,2.26.08-.3A418.08,418.08,0,0,1,651,514l.14-.28-80-68.35a525,525,0,0,1,48.17-70.15l91.07,50.68.21-.23a419.35,419.35,0,0,1,69.66-63.26l.25-.18-38.76-96.67a518.7,518.7,0,0,1,74.74-39.9L873,312l.29-.11a410.52,410.52,0,0,1,92.09-23.67l.31-.05,10.21-102.87c15-1.28,30.19-1.94,45.23-1.94,13,0,26.17.5,39.14,1.47l10.15,102.44h.3a411,411,0,0,1,93.61,22.48l.28.11,56.47-86.3a518.67,518.67,0,0,1,74.68,38.85l-38.45,95.86.25.18A419.25,419.25,0,0,1,1330.43,423l.2.23,90.48-50.35a525.2,525.2,0,0,1,48.06,69l-79.08,67.6.14.28a417.29,417.29,0,0,1,34.5,91.66l.07.3,104.76-2.25a529.83,529.83,0,0,1,10.36,83.34L1437,706.07v.31a423.37,423.37,0,0,1-12,97l-.08.3,95.36,47.83A523.34,523.34,0,0,1,1491,929.87l-103.66-28.12-.15.27a420.34,420.34,0,0,1-55.25,79.13l-.2.23L1395,1069.7a523.69,523.69,0,0,1-62.36,55.5l-80-74.46-.25.17a413.74,413.74,0,0,1-84.44,43.77l-.29.11,15.48,109a516.45,516.45,0,0,1-81,19.64Zm-42.72-573.6c-86.18,0-156.29,70.62-156.29,157.45s70.11,157.46,156.29,157.46S1179,789.73,1179,702.91,1108.89,545.46,1022.71,545.46Z"/><path class="cls-3" d="M1021.16,183.79c12.89,0,25.93.49,38.79,1.44L1070,287l0,.63.62.07a410.25,410.25,0,0,1,93.52,22.43l.57.21.34-.52,56.11-85.73a516.86,516.86,0,0,1,74,38.53l-38.18,95.2-.23.57.51.35a419.23,419.23,0,0,1,72.76,64.48l.41.46.53-.3L1421,373.36a526.28,526.28,0,0,1,47.66,68.43L1390.07,509l-.47.4.29.55a417.77,417.77,0,0,1,34.47,91.58l.14.6h.62l104.12-2.25a528.42,528.42,0,0,1,10.28,82.67L1437.24,705.6l-.6.13v.62a423,423,0,0,1-12,96.84l-.14.6.55.28,94.79,47.55a522.75,522.75,0,0,1-29.11,77.75l-103.06-28-.58-.15-.29.53A420,420,0,0,1,1331.61,981l-.41.46.36.51,62.92,87.77a523.29,523.29,0,0,1-61.8,55.07l-79.5-74.07-.44-.41-.5.34a412.79,412.79,0,0,1-84.34,43.66l-.58.23.09.61,15.4,108.37a515.29,515.29,0,0,1-80.35,19.48l-36.57-103.76-.2-.57-.6.06a415.16,415.16,0,0,1-93.62-.78l-.6-.07-.21.59L934.16,1222a513.09,513.09,0,0,1-80.38-20.48l15.49-109,.08-.6-.56-.23a413.57,413.57,0,0,1-81.74-43.9l-.51-.35-.45.42-79.77,74.32a524.66,524.66,0,0,1-62-56.13l63.53-88.6.35-.5-.4-.46a419.69,419.69,0,0,1-52.2-76.4l-.29-.54-.59.16L550.9,927.88a521.84,521.84,0,0,1-29.18-78.94l95.83-48.09.54-.27L618,800a423,423,0,0,1-11.23-92.08v-.61l-.59-.13L502.7,683.84A529.22,529.22,0,0,1,513,600l105.17,2.27h.61l.16-.61a418.2,418.2,0,0,1,32.33-87.53l.28-.54-.46-.4-79.48-67.94a525.21,525.21,0,0,1,47.78-69.56l90.52,50.38.54.29.4-.47a419.77,419.77,0,0,1,69.6-63.19l.5-.36-.23-.57-38.49-96.08a517.69,517.69,0,0,1,74.13-39.56l56.2,85.9.34.52.58-.22a411.43,411.43,0,0,1,92-23.67l.6-.08.06-.61,10.13-102.23c14.86-1.28,29.94-1.93,44.88-1.93m1.54,677c86.27-.1,156.13-70.64,156-157.56S1108.61,545.9,1022.33,546s-156.13,70.64-156,157.56a157.39,157.39,0,0,0,95.41,144.78,154.67,154.67,0,0,0,61,12.41M1021.16,183q-23,0-45.58,2L965.41,287.87a410.56,410.56,0,0,0-92.2,23.7l-56.58-86.44a516,516,0,0,0-75.37,40.23L780,362a419.34,419.34,0,0,0-69.73,63.32l-91.08-50.69a525.1,525.1,0,0,0-48.58,70.74l80,68.37a417,417,0,0,0-32.44,87.69l-105.77-2.28a527,527,0,0,0-10.49,85.27l104,23.46a422.76,422.76,0,0,0,11.25,92.26l-96.4,48.33a523.07,523.07,0,0,0,29.67,80.29L655,900.48A419.52,419.52,0,0,0,707.29,977l-63.91,89.13a523.18,523.18,0,0,0,63,57.07l80.24-74.77a413,413,0,0,0,81.89,44L852.91,1202.1a512.21,512.21,0,0,0,81.75,20.84l36.71-104.2a416.67,416.67,0,0,0,93.79.77l36.77,104.35a512.32,512.32,0,0,0,81.7-19.81l-15.48-109a413.78,413.78,0,0,0,84.52-43.81l80,74.47a523.24,523.24,0,0,0,62.86-56l-63.31-88.3a420,420,0,0,0,55.29-79.3l103.68,28.12a522.24,522.24,0,0,0,29.61-79.07l-95.37-47.83a422.89,422.89,0,0,0,12-97l102.91-23.22a527.89,527.89,0,0,0-10.45-84l-104.77,2.26a418.13,418.13,0,0,0-34.53-91.73L1469.7,442a524.76,524.76,0,0,0-48.5-69.59l-90.49,50.36a419.13,419.13,0,0,0-72.89-64.59l38.42-95.84A516,516,0,0,0,1221,223.12l-56.47,86.32A410.59,410.59,0,0,0,1070.8,287L1060.65,184.5Q1041.1,183,1021.16,183Zm1.54,677c-86.1,0-155.91-70.33-155.91-157.07S936.6,545.84,1022.7,545.84s155.9,70.32,155.9,157.07S1108.8,860,1022.7,860Z"/></g></g><path d="M251.51,823.48H125.62L77.28,775V622.11l48-48.85H250.88l49.91,50.43v45.38H274.74V634.72l-34.85-35.3H136.61l-33.27,33.72V763.29L136.61,797H240.52l34.53-35v-37.5H182.44V700.58H301.11v72.48Z"/><path d="M361.38,735.88V769l29.82,29.62H524v24.89H379.27l-43.63-44.43V664.34L378,621.8H484.44l42.06,42.85v71.23Zm139.38-61.14-28.57-28.36H390l-28.57,28.67V713.5H500.76Z"/><path d="M596.51,823.17,557.9,784.72V735.25l36.72-36.88h135.3v-29l-23.54-23H567V621.8H718.62l36.73,37.81V823.17ZM729.92,720.43H606.55l-23.54,24v29l25.11,25.52h121.8Z"/><path d="M868.36,648.27l-54.93,55.46V823.48H786.74V621.8h26.69v46l45.83-46h64v26.47Z"/><path d="M1061.42,823.48V573h26.37V796.7h167.64v26.78Z"/><path d="M1483.3,735.22a113.22,113.22,0,0,0,1-14.48,116.63,116.63,0,0,0-.6-11.67l-29-4-11.86-28.85,18-23.74a110,110,0,0,0-18.22-18.37l-23.26,17.77L1390,639.82l-3.9-29a114.2,114.2,0,0,0-12-.66,110,110,0,0,0-13.93.91l-4,29.73L1328,652.62l-23.18-17.72a110.19,110.19,0,0,0-18.25,18.88L1305,678.1l-11,26.75-29.26,3.95a108.17,108.17,0,0,0-.66,11.94,113.26,113.26,0,0,0,1,14.72l30.28,4.12,10.49,25.56-18.2,23.91a112.51,112.51,0,0,0,19,18.93l24.2-18.49,25,10.36,4.11,30.4a110.42,110.42,0,0,0,14.31,1,106.33,106.33,0,0,0,12.36-.72l4.16-30.09,25.38-10.64,24.77,18.9a110.49,110.49,0,0,0,18.94-18.43l-18.06-23.82L1453,739.33ZM1429.21,776H1319.1V665.47h110.11Z"/><polygon points="1308.22 654.22 1315.05 680.11 1333.99 661.07 1308.22 654.22"/><polygon points="1307.7 787.8 1333.49 780.98 1314.53 761.94 1307.7 787.8"/><polygon points="1439.69 654.22 1432.87 680.11 1413.93 661.07 1439.69 654.22"/><polygon points="1440.22 787.8 1414.42 780.98 1433.39 761.94 1440.22 787.8"/><path d="M1615.81,823.48h-46.46L1495.26,621.8H1522L1586.61,797h11.62L1662.9,621.8h26.68Z"/><path d="M1743.57,735.88V769l29.83,29.62h132.78v24.89H1761.47l-43.64-44.43V664.34l42.38-42.54h106.42l42.06,42.85v71.23ZM1883,674.74l-28.56-28.36h-82.25l-28.57,28.67V713.5H1883Z"/></g></g></svg>