<svg xmlns="http://www.w3.org/2000/svg" viewBox="0 0 1980 1404"><defs><style>.cls-1{fill:#143160;}.cls-2{fill:#bd6023;}.cls-3{fill:#dca864;}.cls-4{fill:#661c20;}.cls-5{fill:#32080e;}.cls-6{fill:#d41819;}.cls-7{fill:#861b20;}.cls-8{fill:#f4d12e;}.cls-9{fill:#4da135;}.cls-10{fill:#c06d2c;}.cls-11{fill:#fff;}.cls-12{fill:#c4c8c6;}.cls-13{fill:none;stroke:#409796;stroke-miterlimit:10;}</style></defs><g id="レイヤー_2" data-name="レイヤー 2"><g id="レイヤー_1-2" data-name="レイヤー 1"><rect class="cls-1" width="1980" height="1404"/><path class="cls-2" d="M1213.32,1235.39c0,18.85-8.81,42.35-48.13,54.86-40.67,12.93-112.89,14.55-175.75,14.55-61.79,0-135.24-6.49-175.75-19s-48.13-31.2-48.13-50.38"/><path class="cls-3" d="M1214.44,1237.63c0,15.46-100.23,19-223.88,19s-223.88-3.57-223.88-19,100.23-28,223.88-28S1214.44,1222.18,1214.44,1237.63Z"/><path class="cls-4" d="M1183.22,1237.16l-83.14,5.6L990.38,1245l-100.75-2.24-94.33-5.6a29.92,29.92,0,0,1-29.92-29.92v-11.8c0-16.52,41.68-16.49,58.21-16.49l315.67-2.23c16.53,0,73.88,2.2,73.88,18.72v11.8A29.91,29.91,0,0,1,1183.22,1237.16Z"/><path class="cls-5" d="M1214.62,1188.17c0,15.45-100.24,19-223.88,19s-223.88-3.58-223.88-19,100.23-28,223.88-28S1214.62,1172.71,1214.62,1188.17Z"/><path class="cls-6" d="M1190.55,1186.39l-105.4,6.87h-206l-89.73-6.87c-13.5,0-24.45-8.39-24.45-18.74v-32.88c0-10.36,17.84-8.67,31.34-8.67l394-2.24c13.51,0,24.63.55,24.63,10.91v32.88C1215,1178,1204.05,1186.39,1190.55,1186.39Z"/><path class="cls-7" d="M1214.45,1128.12c0,7.92-100.23,9.75-223.88,9.75s-223.88-1.83-223.88-9.75,100.24-14.34,223.88-14.34S1214.45,1120.2,1214.45,1128.12Z"/><polygon class="cls-8" points="1213.69 1099 1058.08 1223 766.31 1125.74 931.65 996.88 1213.69 1099"/><path class="cls-9" d="M800.38,1095.11s-78.89,39.44,21.51,39.44c0,0-10.75,35.86,53.79,3.59,0,0,0,21.52,43,3.59,0,0,17.93,35.86,53.79,3.58,0,0,21.52,28.69,50.21,0,0,0,7.17,25.1,43,3.59,0,0,46.62,25.1,61-10.76,0,0,10.76,25.1,43-7.17,0,0,71.72,7.17,21.52-35.86C1191.25,1095.11,983.26,1041.32,800.38,1095.11Z"/><path class="cls-10" d="M1213.88,1064.36c0,55.65-105.33,44.78-228.36,44.78S768.36,1120,768.36,1064.36s99.73-100.74,222.76-100.74S1213.88,1008.72,1213.88,1064.36Z"/><rect class="cls-10" x="766.12" y="1044.22" width="447.76" height="71.64" rx="11.47"/><path class="cls-11" d="M1028.06,990.48s13.43,0,11.19,6.72c0,0-20.92,9.55-25,4.77S1028.06,990.48,1028.06,990.48Z"/><path class="cls-11" d="M960.9,986s-11.2,9-2.24,11.19,11.19-6.72,11.19-6.72S967.61,983.77,960.9,986Z"/><path class="cls-11" d="M1014.63,970.34s-6.72,4.47-2.24,8.95,9-4.48,9-4.48S1023.58,963.62,1014.63,970.34Z"/><path class="cls-11" d="M985.52,974.81s6.72,15.67,11.2,11.2S994.48,970.34,985.52,974.81Z"/><path class="cls-11" d="M992.24,992.72s6.72,11.2,2.24,11.2S978.81,995,992.24,992.72Z"/><path class="cls-12" d="M194.37,827.51V735.35c0-19.8,12.24-33.12,30.78-33.12s31,13.32,31,33.12v92.16a2.28,2.28,0,0,1-2.52,2.52H242.25a2.36,2.36,0,0,1-2.52-2.52v-40H210.57v40a2.23,2.23,0,0,1-2.34,2.52H196.71A2.23,2.23,0,0,1,194.37,827.51Zm45.36-54.9v-38c0-10.8-5.22-17.1-14.58-17.1-9.18,0-14.58,6.3-14.58,17.1v38Z"/><path class="cls-12" d="M274.29,827.51V771.17c0-19.44,12.6-31.5,30.78-31.5h6.66a2.23,2.23,0,0,1,2.34,2.52v9.72a2.17,2.17,0,0,1-2.34,2.34h-6.48c-9.36,0-15.48,5.94-15.48,15.66v57.6a2.28,2.28,0,0,1-2.52,2.52H276.81A2.28,2.28,0,0,1,274.29,827.51Z"/><path class="cls-12" d="M323.42,802.49V767.21c.18-17.1,11.34-29,28.62-29,16.92-.18,28.8,11.88,28.8,28.44,0,15.84-11.52,27.18-28.62,27.18H338.9v9.36c0,8.28,4.86,14,13.14,14,7.38,0,12.24-5.4,12.78-13.32a2.31,2.31,0,0,1,2.52-2.34H378a2.17,2.17,0,0,1,2.34,2.34c-.9,16.74-12.24,27.9-28.44,27.9C334.94,831.83,323.42,820.13,323.42,802.49Zm28.8-22.68c8.28,0,13.14-5.22,13.14-12.78,0-8.64-5-14.22-13.32-14.22-8.46,0-13.14,5.58-13.14,14.22v12.78Z"/><path class="cls-12" d="M491.18,742.37v96.3c0,17.82-11.16,29.34-28.44,29.34-16.38,0-27.36-11.34-28.26-29a2.08,2.08,0,0,1,2.34-2.52h10.62c1.44,0,2.16.72,2.34,2.52.54,9,5.22,14.22,13,14.22,8.28,0,13-5.22,13-14V821a18.65,18.65,0,0,1-14.22,6.48c-15.84,0-27.18-12.06-27.18-29.16v-56a2.23,2.23,0,0,1,2.52-2.34h10.44a2.23,2.23,0,0,1,2.52,2.34v56.52c0,8.28,4.86,14,13,14s13-5.76,13-14V742.37a2.23,2.23,0,0,1,2.52-2.34h10.44A2.32,2.32,0,0,1,491.18,742.37Z"/><path class="cls-12" d="M508.1,802.67V767.39c0-17.1,11.52-29.34,28.8-29.34,17.46,0,28.8,12.24,28.8,29.34v35.28c0,17.1-11.34,29.34-28.8,29.34C519.62,832,508.1,819.77,508.1,802.67Zm42.12.54V766.85c0-8.46-5-14.22-13.32-14.22s-13.14,5.76-13.14,14.22v36.36c0,8.46,4.86,14.22,13.14,14.22S550.22,811.67,550.22,803.21Z"/><path class="cls-12" d="M594.32,740a2.28,2.28,0,0,1,2.52,2.52v60.66c0,8.46,4.68,14.22,12.6,14.22s12.6-5.76,12.6-14.22V742.55a2.28,2.28,0,0,1,2.52-2.52H635a2.28,2.28,0,0,1,2.52,2.52v60.12c0,17.1-11.34,29.34-28.08,29.34s-28.08-12.24-28.08-29.34V742.55a2.28,2.28,0,0,1,2.52-2.52Z"/><path class="cls-12" d="M693.68,827.51V771.17c0-19.44,12.6-31.5,30.77-31.5h6.66a2.23,2.23,0,0,1,2.34,2.52v9.72a2.17,2.17,0,0,1-2.34,2.34h-6.48c-9.36,0-15.47,5.94-15.47,15.66v57.6a2.28,2.28,0,0,1-2.53,2.52H696.2A2.28,2.28,0,0,1,693.68,827.51Z"/><path class="cls-12" d="M742.81,802.49V767.21c.18-17.1,11.34-29,28.62-29,16.92-.18,28.8,11.88,28.8,28.44,0,15.84-11.52,27.18-28.62,27.18H758.29v9.36c0,8.28,4.86,14,13.14,14,7.38,0,12.24-5.4,12.78-13.32a2.31,2.31,0,0,1,2.52-2.34h10.62a2.17,2.17,0,0,1,2.34,2.34c-.9,16.74-12.24,27.9-28.44,27.9C754.33,831.83,742.81,820.13,742.81,802.49Zm28.8-22.68c8.28,0,13.14-5.22,13.14-12.78,0-8.64-5-14.22-13.32-14.22-8.46,0-13.14,5.58-13.14,14.22v12.78Z"/><path class="cls-12" d="M811.75,802.85c0-14.94,11.52-26.46,28.44-26.46h13.5v-9.9c0-8.1-4.86-13.68-13-13.68-7.56,0-11.7,5-12.24,12.42-.18,1.62-.9,2.16-2.52,2.16H815.53a2.32,2.32,0,0,1-2.34-2.52c1.08-15.66,11.7-26.82,27.72-26.82,17.1,0,28.08,12.24,28.08,29.16v36.18c0,16.56-10.8,28.44-28.08,28.44C823.45,831.83,811.75,819.77,811.75,802.85Zm41.94.54V790.25h-13c-8.46,0-13.5,5.58-13.5,12.6,0,8.64,5,14.22,13.5,14.22C849,817.07,853.69,811.67,853.69,803.39Z"/><path class="cls-12" d="M940.45,706.37v96.3c0,17.1-11.52,29.34-28.62,29.34-17.28,0-28.62-12.24-28.62-29.34V767.39c0-17.1,10.62-29.34,26.82-29.34A19.17,19.17,0,0,1,925,744.71V706.37a2.23,2.23,0,0,1,2.52-2.34h10.44A2.23,2.23,0,0,1,940.45,706.37ZM925,766.85c0-8.46-4.86-14-13.14-14s-13.32,5.58-13.32,14v36.36c0,8.46,5,14,13.32,14s13.14-5.58,13.14-14Z"/><path class="cls-12" d="M1014.25,742.37v96.3c0,17.82-11.16,29.34-28.44,29.34-16.38,0-27.36-11.34-28.26-29a2.08,2.08,0,0,1,2.34-2.52h10.62c1.44,0,2.16.72,2.34,2.52.54,9,5.22,14.22,13,14.22,8.28,0,13-5.22,13-14V821a18.65,18.65,0,0,1-14.22,6.48c-15.84,0-27.18-12.06-27.18-29.16v-56a2.23,2.23,0,0,1,2.52-2.34h10.44a2.23,2.23,0,0,1,2.52,2.34v56.52c0,8.28,4.86,14,13,14s13-5.76,13-14V742.37a2.23,2.23,0,0,1,2.52-2.34h10.44A2.32,2.32,0,0,1,1014.25,742.37Z"/><path class="cls-12" d="M1111.81,818.33v9.9a2.23,2.23,0,0,1-2.52,2.34h-2.7c-17.82,0-28.44-12.06-28.44-31.86V754.07h-10.08a2.17,2.17,0,0,1-2.34-2.34v-9.36a2.17,2.17,0,0,1,2.34-2.34h10.08V716.81a2.28,2.28,0,0,1,2.52-2.52h10.44a2.23,2.23,0,0,1,2.34,2.52V740h13.86a2.17,2.17,0,0,1,2.34,2.34v9.36a2.17,2.17,0,0,1-2.34,2.34h-13.86v44.82c0,11.34,4.68,17.1,13.86,17.1h2A2.23,2.23,0,0,1,1111.81,818.33Z"/><path class="cls-12" d="M1122.43,802.67V767.39c0-17.1,11.52-29.34,28.8-29.34,17.45,0,28.79,12.24,28.79,29.34v35.28c0,17.1-11.34,29.34-28.79,29.34C1134,832,1122.43,819.77,1122.43,802.67Zm42.11.54V766.85c0-8.46-5-14.22-13.31-14.22s-13.14,5.76-13.14,14.22v36.36c0,8.46,4.86,14.22,13.14,14.22S1164.54,811.67,1164.54,803.21Z"/><path class="cls-12" d="M1234.92,827.51V767.39c0-17.1,11.34-29.34,28.08-29.34s28.08,12.24,28.08,29.34v60.12a2.28,2.28,0,0,1-2.52,2.52h-10.44a2.28,2.28,0,0,1-2.52-2.52V766.85c0-8.46-4.68-14.22-12.6-14.22s-12.6,5.76-12.6,14.22v60.66a2.28,2.28,0,0,1-2.52,2.52h-10.44A2.28,2.28,0,0,1,1234.92,827.51Z"/><path class="cls-12" d="M1321,740a2.28,2.28,0,0,1,2.52,2.52v60.66c0,8.46,4.68,14.22,12.6,14.22s12.6-5.76,12.6-14.22V742.55a2.28,2.28,0,0,1,2.52-2.52h10.44a2.28,2.28,0,0,1,2.52,2.52v60.12c0,17.1-11.34,29.34-28.08,29.34S1308,819.77,1308,802.67V742.55a2.28,2.28,0,0,1,2.52-2.52Z"/><path class="cls-12" d="M1474.13,767.39v60.12a2.23,2.23,0,0,1-2.34,2.52h-10.44a2.28,2.28,0,0,1-2.52-2.52V766.85c0-8.46-4.14-14-11.7-14s-11.87,5.58-11.87,14v60.66a2.23,2.23,0,0,1-2.34,2.52h-10.44a2.28,2.28,0,0,1-2.52-2.52V766.85c0-8.46-4.14-14-11.7-14s-11.88,5.58-11.88,14v60.66a2.28,2.28,0,0,1-2.52,2.52H1383.6a2.28,2.28,0,0,1-2.52-2.52V767.39c0-17.1,10.8-29.34,27.18-29.34a23.08,23.08,0,0,1,19.44,11,22.84,22.84,0,0,1,19.43-11C1463.51,738.05,1474.13,750.29,1474.13,767.39Z"/><path class="cls-12" d="M1491.06,827.51V767.39c0-17.1,11.34-29.34,28.07-29.34s28.08,12.24,28.08,29.34v60.12a2.28,2.28,0,0,1-2.52,2.52h-10.44a2.28,2.28,0,0,1-2.52-2.52V766.85c0-8.46-4.68-14.22-12.6-14.22s-12.59,5.76-12.59,14.22v60.66A2.28,2.28,0,0,1,1504,830h-10.44A2.28,2.28,0,0,1,1491.06,827.51Z"/><path class="cls-12" d="M1577.09,740a2.28,2.28,0,0,1,2.52,2.52v60.66c0,8.46,4.68,14.22,12.6,14.22s12.6-5.76,12.6-14.22V742.55a2.28,2.28,0,0,1,2.52-2.52h10.44a2.28,2.28,0,0,1,2.52,2.52v60.12c0,17.1-11.34,29.34-28.08,29.34s-28.08-12.24-28.08-29.34V742.55a2.28,2.28,0,0,1,2.52-2.52Z"/><path class="cls-12" d="M1730.27,767.39v60.12a2.23,2.23,0,0,1-2.34,2.52h-10.44a2.28,2.28,0,0,1-2.52-2.52V766.85c0-8.46-4.14-14-11.7-14s-11.88,5.58-11.88,14v60.66a2.23,2.23,0,0,1-2.34,2.52h-10.44a2.28,2.28,0,0,1-2.52-2.52V766.85c0-8.46-4.14-14-11.7-14s-11.88,5.58-11.88,14v60.66A2.28,2.28,0,0,1,1650,830h-10.26a2.28,2.28,0,0,1-2.52-2.52V767.39c0-17.1,10.8-29.34,27.18-29.34a23.08,23.08,0,0,1,19.44,11,22.84,22.84,0,0,1,19.44-11C1719.65,738.05,1730.27,750.29,1730.27,767.39Z"/><path class="cls-12" d="M1758.53,800v-7.92c0-31.68,23.76-34.38,23.76-58.5,0-9.9-5.22-16.92-14-16.92-8.28,0-13.68,6.3-14.22,17.64a2.32,2.32,0,0,1-2.52,2.34h-10.44a2.23,2.23,0,0,1-2.34-2.52c.9-19.44,12.78-31.86,29.16-31.86,17.64,0,29.88,12.6,29.88,30.6,0,30.6-23.76,33.3-23.76,59.94V800a2.28,2.28,0,0,1-2.52,2.52h-10.62A2.23,2.23,0,0,1,1758.53,800Zm-2,22.14a9.9,9.9,0,1,1,19.8,0,9.9,9.9,0,1,1-19.8,0Z"/><path class="cls-13" d="M190.51,831.79V739.64c0-19.8,12.24-33.12,30.78-33.12s31,13.32,31,33.12v92.15a2.28,2.28,0,0,1-2.52,2.52H238.39a2.36,2.36,0,0,1-2.52-2.52v-40H206.71v40a2.23,2.23,0,0,1-2.34,2.52H192.85A2.23,2.23,0,0,1,190.51,831.79Zm45.36-54.9v-38c0-10.8-5.22-17.1-14.58-17.1-9.18,0-14.58,6.3-14.58,17.1v38Z"/><path class="cls-13" d="M270.43,831.79V775.45C270.43,756,283,744,301.21,744h6.65a2.24,2.24,0,0,1,2.35,2.52v9.72a2.18,2.18,0,0,1-2.35,2.34h-6.47c-9.36,0-15.48,5.94-15.48,15.65v57.6a2.28,2.28,0,0,1-2.52,2.52H273A2.28,2.28,0,0,1,270.43,831.79Z"/><path class="cls-13" d="M319.56,806.77V771.49c.18-17.09,11.34-29,28.62-29C365.1,742.34,377,754.4,377,771c0,15.84-11.52,27.18-28.62,27.18H335v9.36c0,8.28,4.86,14,13.14,14,7.38,0,12.24-5.4,12.78-13.32a2.31,2.31,0,0,1,2.52-2.34H374.1a2.17,2.17,0,0,1,2.34,2.34c-.9,16.74-12.24,27.9-28.44,27.9C331.08,836.11,319.56,824.41,319.56,806.77Zm28.8-22.68c8.28,0,13.14-5.22,13.14-12.78,0-8.64-5-14.21-13.32-14.21-8.46,0-13.14,5.57-13.14,14.21v12.78Z"/><path class="cls-13" d="M487.32,746.66V843c0,17.82-11.16,29.34-28.44,29.34-16.38,0-27.36-11.34-28.26-29a2.08,2.08,0,0,1,2.34-2.52h10.62c1.44,0,2.16.72,2.34,2.52.54,9,5.22,14.22,13,14.22,8.28,0,13-5.22,13-14V825.31a18.65,18.65,0,0,1-14.22,6.48c-15.84,0-27.18-12.06-27.18-29.16v-56a2.23,2.23,0,0,1,2.52-2.34H443.4a2.23,2.23,0,0,1,2.52,2.34v56.51c0,8.28,4.86,14,13,14s13-5.76,13-14V746.66a2.23,2.23,0,0,1,2.52-2.34H484.8A2.32,2.32,0,0,1,487.32,746.66Z"/><path class="cls-13" d="M504.24,807V771.67c0-17.09,11.52-29.33,28.8-29.33,17.46,0,28.8,12.24,28.8,29.33V807c0,17.1-11.34,29.34-28.8,29.34C515.76,836.29,504.24,824.05,504.24,807Zm42.12.54V771.13c0-8.46-5-14.21-13.32-14.21s-13.14,5.75-13.14,14.21v36.36c0,8.46,4.86,14.22,13.14,14.22S546.36,816,546.36,807.49Z"/><path class="cls-13" d="M590.46,744.32a2.28,2.28,0,0,1,2.52,2.52v60.65c0,8.46,4.68,14.22,12.6,14.22s12.6-5.76,12.6-14.22V746.84a2.28,2.28,0,0,1,2.52-2.52h10.44a2.28,2.28,0,0,1,2.52,2.52V807c0,17.1-11.34,29.34-28.08,29.34S577.5,824.05,577.5,807V746.84a2.28,2.28,0,0,1,2.52-2.52Z"/><path class="cls-13" d="M689.82,831.79V775.45c0-19.43,12.6-31.49,30.77-31.49h6.66a2.23,2.23,0,0,1,2.34,2.52v9.72a2.17,2.17,0,0,1-2.34,2.34h-6.48c-9.36,0-15.48,5.94-15.48,15.65v57.6a2.28,2.28,0,0,1-2.52,2.52H692.33A2.27,2.27,0,0,1,689.82,831.79Z"/><path class="cls-13" d="M739,806.77V771.49c.18-17.09,11.34-29,28.62-29,16.92-.18,28.8,11.88,28.8,28.43,0,15.84-11.52,27.18-28.62,27.18H754.43v9.36c0,8.28,4.86,14,13.14,14,7.38,0,12.24-5.4,12.78-13.32a2.31,2.31,0,0,1,2.52-2.34h10.62a2.17,2.17,0,0,1,2.34,2.34c-.9,16.74-12.24,27.9-28.44,27.9C750.47,836.11,739,824.41,739,806.77Zm28.8-22.68c8.28,0,13.14-5.22,13.14-12.78,0-8.64-5-14.21-13.32-14.21-8.46,0-13.14,5.57-13.14,14.21v12.78Z"/><path class="cls-13" d="M807.89,807.13c0-14.94,11.52-26.46,28.44-26.46h13.5v-9.9c0-8.1-4.86-13.67-13-13.67-7.56,0-11.7,5-12.24,12.41-.18,1.62-.9,2.16-2.52,2.16H811.67a2.32,2.32,0,0,1-2.34-2.52c1.08-15.65,11.7-26.81,27.72-26.81,17.1,0,28.08,12.24,28.08,29.15v36.18c0,16.56-10.8,28.44-28.08,28.44C819.59,836.11,807.89,824.05,807.89,807.13Zm41.94.54V794.53h-13c-8.46,0-13.5,5.58-13.5,12.6,0,8.64,5,14.22,13.5,14.22C845.15,821.35,849.83,816,849.83,807.67Z"/><path class="cls-13" d="M936.59,710.66V807c0,17.1-11.52,29.34-28.62,29.34-17.28,0-28.62-12.24-28.62-29.34V771.67c0-17.09,10.62-29.33,26.82-29.33A19.17,19.17,0,0,1,921.11,749V710.66a2.23,2.23,0,0,1,2.52-2.34h10.44A2.23,2.23,0,0,1,936.59,710.66Zm-15.48,60.47c0-8.46-4.86-14-13.14-14s-13.32,5.57-13.32,14v36.36c0,8.46,5,14,13.32,14s13.14-5.58,13.14-14Z"/><path class="cls-13" d="M1010.39,746.66V843c0,17.82-11.16,29.34-28.44,29.34-16.38,0-27.36-11.34-28.26-29a2.08,2.08,0,0,1,2.34-2.52h10.62c1.44,0,2.16.72,2.34,2.52.54,9,5.22,14.22,13,14.22,8.28,0,13-5.22,13-14V825.31a18.65,18.65,0,0,1-14.22,6.48c-15.84,0-27.18-12.06-27.18-29.16v-56a2.23,2.23,0,0,1,2.52-2.34h10.44a2.23,2.23,0,0,1,2.52,2.34v56.51c0,8.28,4.86,14,13,14s13-5.76,13-14V746.66a2.23,2.23,0,0,1,2.52-2.34h10.44A2.32,2.32,0,0,1,1010.39,746.66Z"/><path class="cls-13" d="M1108,822.61v9.9a2.23,2.23,0,0,1-2.52,2.34h-2.7c-17.82,0-28.44-12.06-28.44-31.86V758.35h-10.08a2.17,2.17,0,0,1-2.34-2.33v-9.36a2.17,2.17,0,0,1,2.34-2.34h10.08V721.1a2.28,2.28,0,0,1,2.52-2.52h10.44a2.23,2.23,0,0,1,2.34,2.52v23.22h13.86a2.17,2.17,0,0,1,2.34,2.34V756a2.17,2.17,0,0,1-2.34,2.33h-13.86v44.82c0,11.34,4.68,17.1,13.86,17.1h2A2.23,2.23,0,0,1,1108,822.61Z"/><path class="cls-13" d="M1118.57,807V771.67c0-17.09,11.52-29.33,28.8-29.33,17.45,0,28.79,12.24,28.79,29.33V807c0,17.1-11.34,29.34-28.79,29.34C1130.09,836.29,1118.57,824.05,1118.57,807Zm42.11.54V771.13c0-8.46-5-14.21-13.31-14.21s-13.14,5.75-13.14,14.21v36.36c0,8.46,4.86,14.22,13.14,14.22S1160.68,816,1160.68,807.49Z"/><path class="cls-13" d="M1231.06,831.79V771.67c0-17.09,11.34-29.33,28.08-29.33s28.08,12.24,28.08,29.33v60.12a2.28,2.28,0,0,1-2.52,2.52h-10.44a2.28,2.28,0,0,1-2.52-2.52V771.13c0-8.46-4.68-14.21-12.6-14.21s-12.6,5.75-12.6,14.21v60.66a2.28,2.28,0,0,1-2.52,2.52h-10.44A2.28,2.28,0,0,1,1231.06,831.79Z"/><path class="cls-13" d="M1317.1,744.32a2.28,2.28,0,0,1,2.52,2.52v60.65c0,8.46,4.68,14.22,12.6,14.22s12.6-5.76,12.6-14.22V746.84a2.28,2.28,0,0,1,2.52-2.52h10.44a2.28,2.28,0,0,1,2.52,2.52V807c0,17.1-11.34,29.34-28.08,29.34s-28.08-12.24-28.08-29.34V746.84a2.28,2.28,0,0,1,2.52-2.52Z"/><path class="cls-13" d="M1470.27,771.67v60.12a2.23,2.23,0,0,1-2.34,2.52h-10.44a2.28,2.28,0,0,1-2.52-2.52V771.13c0-8.46-4.14-14-11.7-14s-11.87,5.57-11.87,14v60.66a2.23,2.23,0,0,1-2.34,2.52h-10.44a2.28,2.28,0,0,1-2.52-2.52V771.13c0-8.46-4.14-14-11.7-14s-11.88,5.57-11.88,14v60.66a2.28,2.28,0,0,1-2.52,2.52h-10.26a2.28,2.28,0,0,1-2.52-2.52V771.67c0-17.09,10.8-29.33,27.18-29.33a23.08,23.08,0,0,1,19.44,11,22.84,22.84,0,0,1,19.43-11C1459.65,742.34,1470.27,754.58,1470.27,771.67Z"/><path class="cls-13" d="M1487.2,831.79V771.67c0-17.09,11.34-29.33,28.07-29.33s28.08,12.24,28.08,29.33v60.12a2.28,2.28,0,0,1-2.52,2.52h-10.44a2.28,2.28,0,0,1-2.52-2.52V771.13c0-8.46-4.68-14.21-12.6-14.21s-12.59,5.75-12.59,14.21v60.66a2.28,2.28,0,0,1-2.52,2.52h-10.44A2.28,2.28,0,0,1,1487.2,831.79Z"/><path class="cls-13" d="M1573.23,744.32a2.28,2.28,0,0,1,2.52,2.52v60.65c0,8.46,4.68,14.22,12.6,14.22S1601,816,1601,807.49V746.84a2.28,2.28,0,0,1,2.52-2.52h10.44a2.28,2.28,0,0,1,2.52,2.52V807c0,17.1-11.34,29.34-28.08,29.34s-28.08-12.24-28.08-29.34V746.84a2.28,2.28,0,0,1,2.52-2.52Z"/><path class="cls-13" d="M1726.41,771.67v60.12a2.23,2.23,0,0,1-2.34,2.52h-10.44a2.28,2.28,0,0,1-2.52-2.52V771.13c0-8.46-4.14-14-11.7-14s-11.88,5.57-11.88,14v60.66a2.23,2.23,0,0,1-2.34,2.52h-10.44a2.28,2.28,0,0,1-2.52-2.52V771.13c0-8.46-4.14-14-11.7-14s-11.88,5.57-11.88,14v60.66a2.28,2.28,0,0,1-2.52,2.52h-10.26a2.28,2.28,0,0,1-2.52-2.52V771.67c0-17.09,10.8-29.33,27.18-29.33a23.08,23.08,0,0,1,19.44,11,22.84,22.84,0,0,1,19.44-11C1715.79,742.34,1726.41,754.58,1726.41,771.67Z"/><path class="cls-13" d="M1754.67,804.25v-7.92c0-31.68,23.76-34.37,23.76-58.49,0-9.9-5.22-16.92-14-16.92-8.28,0-13.68,6.3-14.22,17.64a2.32,2.32,0,0,1-2.52,2.34h-10.44a2.23,2.23,0,0,1-2.34-2.52c.9-19.44,12.78-31.86,29.16-31.86,17.64,0,29.88,12.6,29.88,30.6,0,30.59-23.76,33.29-23.76,59.93v7.2a2.28,2.28,0,0,1-2.52,2.52H1757A2.23,2.23,0,0,1,1754.67,804.25Zm-2,22.14a9.9,9.9,0,0,1,19.8,0,9.9,9.9,0,0,1-19.8,0Z"/><path class="cls-12" d="M410.52,434.44l10.78-3.51a2.17,2.17,0,0,1,2.95,1.5L461.78,547.6a2.24,2.24,0,0,1-1.45,3.13l-10.78,3.51a2.27,2.27,0,0,1-3.17-1.62L429.7,501.45,403.35,510,420,561.21a2.23,2.23,0,0,1-1.44,3.12l-10.78,3.51a2.27,2.27,0,0,1-3.18-1.61L367.09,451.05a2.23,2.23,0,0,1,1.67-3l10.78-3.51a2.17,2.17,0,0,1,2.95,1.5l16.23,49.8,26.36-8.59-16.23-49.8A2.23,2.23,0,0,1,410.52,434.44Z"/><path class="cls-12" d="M469.89,519c-4.63-14.21,2.75-28.73,18.84-34l12.83-4.18-3.06-9.41c-2.51-7.71-8.86-11.5-16.56-9-7.19,2.35-9.57,8.42-7.79,15.6.33,1.6-.19,2.34-1.73,2.84l-9.92,3.23a2.32,2.32,0,0,1-3-1.67c-3.82-15.22,2.82-29.12,18.05-34.08,16.25-5.3,30.49,2.93,35.73,19l11.21,34.4c5.13,15.74-1.46,30.38-17.89,35.74C490,543,475.13,535.11,469.89,519Zm40-12.48-4.07-12.49-12.32,4c-8.05,2.62-11.11,9.49-8.94,16.16,2.68,8.22,9.2,12,17.25,9.34C509.72,521,512.49,514.42,509.93,506.55Z"/><path class="cls-12" d="M616.52,434l18.62,57.16a2.22,2.22,0,0,1-1.44,3.12l-9.93,3.23a2.27,2.27,0,0,1-3.17-1.61l-18.79-57.68c-2.62-8-8.29-12.06-15.48-9.72s-9.56,9-6.94,17l18.79,57.67a2.23,2.23,0,0,1-1.45,3.12l-9.92,3.24a2.28,2.28,0,0,1-3.18-1.62l-18.79-57.67c-2.62-8.05-8.28-12.07-15.47-9.73s-9.57,9-7,17l18.79,57.68a2.26,2.26,0,0,1-1.61,3.17l-9.76,3.18a2.27,2.27,0,0,1-3.17-1.61L528,462.79c-5.3-16.26,1.18-31.25,16.76-36.32a23.08,23.08,0,0,1,21.88,4.42,22.83,22.83,0,0,1,15.08-16.46C597.33,409.35,611.22,417.7,616.52,434Z"/><path class="cls-12" d="M687,411,698,444.52c5.3,16.26-1.69,31.41-18.12,36.77-16.26,5.29-31-2.77-36.3-19L613.71,370.7a2.23,2.23,0,0,1,1.67-3l9.92-3.23a2.23,2.23,0,0,1,3.12,1.44l11.88,36.46a19.14,19.14,0,0,1,12.14-11C667.85,386.38,681.73,394.72,687,411Zm-14.71,4.23c-2.62-8-9.14-11.79-17-9.22s-10.76,9.37-8.14,17.42L658.42,458c2.62,8,9,11.84,16.85,9.27s10.93-9.43,8.31-17.47Z"/><path class="cls-12" d="M705.77,376.1a2.27,2.27,0,0,1,3.17,1.62l18.8,57.67c2.62,8,8.85,12.07,16.38,9.62s10.2-9.38,7.58-17.43l-18.8-57.67a2.29,2.29,0,0,1,1.62-3.18l9.93-3.23a2.27,2.27,0,0,1,3.17,1.62l18.63,57.16c5.29,16.25-1.7,31.4-17.61,36.59s-30.49-2.94-35.79-19.2l-18.62-57.16a2.27,2.27,0,0,1,1.61-3.17Z"/><path class="cls-12" d="M790,440.65l-17.45-53.57c-6-18.48,2.22-33.85,19.5-39.48l6.33-2.06a2.23,2.23,0,0,1,3,1.67l3,9.24a2.17,2.17,0,0,1-1.5,2.95l-6.16,2c-8.9,2.9-12.88,10.44-9.87,19.68l17.85,54.76a2.28,2.28,0,0,1-1.62,3.18l-9.92,3.24A2.28,2.28,0,0,1,790,440.65Z"/><path class="cls-12" d="M872.72,350.48l22.08,67.77c5.52,16.94-1.52,31.35-18.12,36.76-15.92,5.19-30-2.14-36.19-18.69a2.08,2.08,0,0,1,1.44-3.12l10.1-3.29c1.37-.44,2.45,0,3.18,1.62,3.3,8.39,9.54,11.85,16.9,9.45,7.87-2.57,10.87-9,8.14-17.42l-5.52-16.94A19.77,19.77,0,0,1,863,417.07c-15.23,5-30-3.11-35.27-19.37l-9.59-29.43c-5.3-16.26,1.86-31.47,18.29-36.82C852.68,326.15,867.42,334.22,872.72,350.48Zm-5,34.74-9.93-30.46c-2.62-8-9-11.84-16.84-9.28s-10.93,9.44-8.31,17.48l9.92,30.46c2.62,8,9.2,12,17.07,9.39S870.38,393.27,867.76,385.22Z"/><path class="cls-12" d="M898.31,379.06l-10.93-33.55c-5.12-16.31,1.81-31.06,18.24-36.42,16-5.41,31.06,2.38,36.19,18.12,4.91,15.06-2.54,29.41-18.79,34.71L910.35,366l2.9,8.9c2.57,7.88,9,11.85,16.85,9.28,7-2.28,10-8.92,8-16.62a2.31,2.31,0,0,1,1.67-3l10.1-3.29a2.18,2.18,0,0,1,3,1.5c4.33,16.2-3,30.32-18.4,35.34C918.35,403.38,903.78,395.83,898.31,379.06Zm20.36-30.49c7.87-2.57,10.87-9,8.53-16.22-2.68-8.22-9.2-12-17.07-9.39-8,2.62-10.76,9.37-8.09,17.59l4,12.15Z"/><path class="cls-12" d="M974.18,380.65l-17.45-53.57c-6-18.48,2.22-33.85,19.5-39.48l6.33-2.06a2.23,2.23,0,0,1,3,1.67l3,9.24a2.17,2.17,0,0,1-1.5,2.95l-6.16,2c-8.9,2.89-12.88,10.44-9.87,19.68l17.85,54.76a2.28,2.28,0,0,1-1.62,3.18l-9.93,3.23A2.26,2.26,0,0,1,974.18,380.65Z"/><path class="cls-12" d="M1059.57,352.82,1041,295.66c-5.3-16.25,1.69-31.4,17.61-36.59s30.49,2.94,35.78,19.2L1113,335.43a2.27,2.27,0,0,1-1.62,3.17l-9.92,3.24a2.28,2.28,0,0,1-3.18-1.62l-18.79-57.67c-2.62-8-8.85-12.07-16.39-9.62s-10.19,9.38-7.57,17.43L1074.29,348a2.28,2.28,0,0,1-1.61,3.18l-9.93,3.23A2.29,2.29,0,0,1,1059.57,352.82Z"/><path class="cls-12" d="M1114.28,243a2.28,2.28,0,0,1,3.18,1.61l18.79,57.68c2.62,8,8.85,12.07,16.38,9.61s10.2-9.38,7.58-17.42l-18.79-57.67a2.27,2.27,0,0,1,1.61-3.18l9.93-3.23a2.26,2.26,0,0,1,3.17,1.61l18.63,57.16c5.29,16.26-1.7,31.41-17.61,36.59s-30.49-2.93-35.79-19.19l-18.62-57.16a2.28,2.28,0,0,1,1.61-3.18Z"/><path class="cls-12" d="M1268.39,221.56,1287,278.72a2.23,2.23,0,0,1-1.45,3.12l-9.92,3.23a2.28,2.28,0,0,1-3.18-1.61l-18.79-57.68c-2.62-8-8.29-12.06-15.47-9.72s-9.57,9-7,17l18.79,57.67a2.23,2.23,0,0,1-1.44,3.12l-9.93,3.24a2.27,2.27,0,0,1-3.17-1.62l-18.8-57.67c-2.62-8.05-8.28-12.07-15.47-9.73s-9.57,9-7,17l18.8,57.68a2.27,2.27,0,0,1-1.62,3.17l-9.75,3.18a2.28,2.28,0,0,1-3.18-1.62l-18.62-57.15c-5.3-16.26,1.17-31.25,16.75-36.32a23.08,23.08,0,0,1,21.88,4.42A22.83,22.83,0,0,1,1233.63,202C1249.21,197,1263.1,205.3,1268.39,221.56Z"/><path class="cls-12" d="M1303.11,273.47l-18.63-57.16c-5.29-16.25,1.7-31.4,17.61-36.59s30.49,2.94,35.79,19.2l18.62,57.16a2.27,2.27,0,0,1-1.61,3.17l-9.93,3.24a2.27,2.27,0,0,1-3.17-1.62L1323,203.2c-2.62-8-8.85-12.07-16.38-9.62S1296.41,203,1299,211l18.79,57.68a2.27,2.27,0,0,1-1.62,3.17l-9.92,3.24A2.28,2.28,0,0,1,1303.11,273.47Z"/><path class="cls-12" d="M1357.81,163.65a2.28,2.28,0,0,1,3.18,1.61l18.79,57.68c2.62,8,8.85,12.06,16.38,9.61s10.2-9.38,7.58-17.42L1385,157.46a2.28,2.28,0,0,1,1.61-3.18l9.93-3.24a2.29,2.29,0,0,1,3.18,1.62l18.62,57.16c5.3,16.26-1.69,31.41-17.61,36.59s-30.49-2.93-35.78-19.19l-18.63-57.16a2.28,2.28,0,0,1,1.62-3.18Z"/><path class="cls-12" d="M1511.93,142.21l18.62,57.16a2.23,2.23,0,0,1-1.44,3.12l-9.93,3.23a2.27,2.27,0,0,1-3.17-1.62l-18.8-57.67c-2.62-8-8.28-12.06-15.47-9.72s-9.57,9-7,17l18.8,57.67a2.23,2.23,0,0,1-1.45,3.12l-9.93,3.24a2.28,2.28,0,0,1-3.17-1.62l-18.79-57.67c-2.62-8-8.29-12.07-15.48-9.73s-9.56,9-6.94,17l18.79,57.67a2.28,2.28,0,0,1-1.62,3.18l-9.75,3.18a2.29,2.29,0,0,1-3.18-1.62L1423.45,171c-5.3-16.25,1.18-31.24,16.75-36.31a23.07,23.07,0,0,1,21.89,4.42,22.82,22.82,0,0,1,15.08-16.46C1492.74,117.6,1506.63,126,1511.93,142.21Z"/><path class="cls-12" d="M1542.38,167.11l-29.16-89.5a2.24,2.24,0,0,1,1.67-3l10.27-3.34a2.17,2.17,0,0,1,2.95,1.5l29.16,89.5a2.22,2.22,0,0,1-1.44,3.12l-10.27,3.35A2.29,2.29,0,0,1,1542.38,167.11Zm4.81,21.15a9.56,9.56,0,0,1,6.35-12.48,9.9,9.9,0,1,1-6.35,12.48Z"/><path class="cls-12" d="M1581.75,154.29l-29.17-89.51a2.23,2.23,0,0,1,1.67-3l10.27-3.35a2.18,2.18,0,0,1,3,1.5l29.16,89.51a2.22,2.22,0,0,1-1.44,3.12l-10.27,3.34A2.26,2.26,0,0,1,1581.75,154.29Zm4.81,21.15A9.54,9.54,0,0,1,1592.9,163a9.65,9.65,0,0,1,12.48,6.34,9.75,9.75,0,0,1-6.34,12.48A9.65,9.65,0,0,1,1586.56,175.44Z"/></g></g></svg>