<svg xmlns="http://www.w3.org/2000/svg" viewBox="0 0 1920 1080"><defs><style>.cls-1{fill:#143160;}.cls-2{fill:#c4c8c6;}.cls-3{fill:#bd6023;}.cls-4{fill:#dca864;}.cls-5{fill:#661c20;}.cls-6{fill:#32080e;}.cls-7{fill:#d41819;}.cls-8{fill:#861b20;}.cls-9{fill:#f4d12e;}.cls-10{fill:#4da135;}.cls-11{fill:#c06d2c;}.cls-12{fill:#fff;}</style></defs><g id="レイヤー_2" data-name="レイヤー 2"><g id="レイヤー_1-2" data-name="レイヤー 1"><rect class="cls-1" width="1920" height="1080"/><path class="cls-2" d="M444.91,426.72l9.58-3.13a1.93,1.93,0,0,1,2.62,1.34l33.36,102.38a2,2,0,0,1-1.28,2.77l-9.59,3.13a2,2,0,0,1-2.82-1.44L462,486.28l-23.43,7.64,14.82,45.49a2,2,0,0,1-1.28,2.77l-9.59,3.12a2,2,0,0,1-2.82-1.43L406.3,441.48a2,2,0,0,1,1.49-2.67l9.58-3.12A1.92,1.92,0,0,1,420,437l14.43,44.27,23.43-7.63-14.43-44.27A2,2,0,0,1,444.91,426.72Z"/><path class="cls-2" d="M497.68,501.91c-4.12-12.63,2.44-25.54,16.74-30.2L525.83,468l-2.72-8.37c-2.23-6.85-7.88-10.23-14.72-8-6.39,2.08-8.5,7.48-6.93,13.86.3,1.42-.16,2.08-1.53,2.52l-8.83,2.88a2.07,2.07,0,0,1-2.67-1.49c-3.4-13.53,2.51-25.89,16.05-30.3,14.45-4.71,27.1,2.61,31.76,16.91l10,30.58c4.56,14-1.29,27-15.9,31.77S502.33,516.21,497.68,501.91Zm35.59-11.09-3.62-11.11-10.95,3.57c-7.15,2.33-9.87,8.43-7.94,14.37,2.38,7.3,8.17,10.63,15.32,8.3C533.08,503.67,535.55,497.81,533.27,490.82Z"/><path class="cls-2" d="M628,426.29l16.56,50.81a2,2,0,0,1-1.29,2.77l-8.82,2.88a2,2,0,0,1-2.82-1.44L614.94,430c-2.33-7.15-7.36-10.72-13.75-8.64s-8.51,8-6.18,15.14l16.71,51.27a2,2,0,0,1-1.29,2.77l-8.82,2.87a2,2,0,0,1-2.82-1.43l-16.71-51.27c-2.33-7.15-7.37-10.73-13.75-8.64s-8.51,8-6.18,15.13l16.71,51.27a2,2,0,0,1-1.44,2.83l-8.67,2.82a2,2,0,0,1-2.83-1.43l-16.55-50.82c-4.71-14.45,1-27.77,14.89-32.28a20.5,20.5,0,0,1,19.45,3.93,20.32,20.32,0,0,1,13.41-14.64C611,404.41,623.31,411.83,628,426.29Z"/><path class="cls-2" d="M690.7,405.87l9.71,29.81c4.71,14.46-1.5,27.92-16.11,32.68-14.45,4.71-27.56-2.46-32.27-16.91l-26.52-81.39a2,2,0,0,1,1.49-2.68l8.82-2.87a2,2,0,0,1,2.78,1.28l10.56,32.41A17,17,0,0,1,660,388.45C673.64,384,686,391.41,690.7,405.87Zm-13.08,3.75c-2.33-7.15-8.13-10.48-15.13-8.2s-9.57,8.34-7.24,15.49l10,30.73c2.32,7.15,8,10.53,15,8.25s9.72-8.39,7.39-15.54Z"/><path class="cls-2" d="M707.35,374.86a2,2,0,0,1,2.82,1.44l16.71,51.26c2.33,7.15,7.87,10.73,14.56,8.55s9.06-8.34,6.73-15.48l-16.7-51.27a2,2,0,0,1,1.44-2.83l8.82-2.87a2,2,0,0,1,2.82,1.43l16.56,50.82c4.71,14.45-1.5,27.92-15.65,32.53s-27.11-2.62-31.81-17.07l-16.56-50.81a2,2,0,0,1,1.43-2.82Z"/><path class="cls-2" d="M782.25,432.24l-15.52-47.62c-5.35-16.43,2-30.09,17.34-35.1l5.63-1.83a2,2,0,0,1,2.67,1.49l2.68,8.21a1.93,1.93,0,0,1-1.33,2.62l-5.48,1.79c-7.91,2.58-11.45,9.28-8.77,17.5L795.33,428a2,2,0,0,1-1.43,2.82l-8.83,2.88A2,2,0,0,1,782.25,432.24Z"/><path class="cls-2" d="M855.75,352.09l19.63,60.24c4.91,15.06-1.35,27.87-16.11,32.68-14.15,4.61-26.7-1.9-32.17-16.61a1.86,1.86,0,0,1,1.29-2.78l9-2.92c1.22-.4,2.18,0,2.83,1.43,2.93,7.46,8.48,10.53,15,8.4,7-2.28,9.67-8,7.24-15.48L857.54,402a17.57,17.57,0,0,1-10.44,9.29c-13.54,4.41-26.64-2.76-31.35-17.22l-8.53-26.16c-4.71-14.46,1.66-28,16.26-32.73S851,337.63,855.75,352.09ZM851.34,383l-8.82-27.08c-2.33-7.15-8-10.53-15-8.25s-9.72,8.39-7.39,15.54L829,390.26c2.33,7.15,8.18,10.63,15.17,8.35S853.67,390.12,851.34,383Z"/><path class="cls-2" d="M878.5,377.49l-9.72-29.82c-4.55-14.5,1.61-27.62,16.21-32.37,14.25-4.82,27.61,2.11,32.18,16.1,4.36,13.39-2.26,26.15-16.71,30.85l-11.26,3.67,2.58,7.91c2.28,7,8,10.53,15,8.25,6.24-2,8.86-7.93,7.14-14.78a2,2,0,0,1,1.48-2.67l9-2.92A1.93,1.93,0,0,1,927,363c3.85,14.4-2.66,26.95-16.35,31.41C896.32,399.11,883.36,392.4,878.5,377.49Zm18.09-27.1c7-2.28,9.67-8,7.59-14.42-2.38-7.3-8.17-10.63-15.17-8.35s-9.57,8.33-7.19,15.64l3.52,10.8Z"/><path class="cls-2" d="M945.94,378.91l-15.52-47.62c-5.35-16.43,2-30.09,17.34-35.1l5.63-1.83a2,2,0,0,1,2.67,1.48l2.68,8.22a1.94,1.94,0,0,1-1.34,2.62l-5.47,1.78c-7.91,2.58-11.45,9.29-8.77,17.5L959,374.64a2,2,0,0,1-1.44,2.83l-8.82,2.87A2,2,0,0,1,945.94,378.91Z"/><path class="cls-2" d="M1021.84,354.17l-16.55-50.81c-4.71-14.45,1.5-27.92,15.65-32.53s27.1,2.61,31.81,17.07l16.56,50.81a2,2,0,0,1-1.44,2.82l-8.82,2.88a2,2,0,0,1-2.82-1.44l-16.71-51.27c-2.33-7.15-7.87-10.73-14.56-8.55s-9.07,8.34-6.74,15.49l16.71,51.27a2,2,0,0,1-1.44,2.82l-8.82,2.88A2,2,0,0,1,1021.84,354.17Z"/><path class="cls-2" d="M1070.47,256.54a2,2,0,0,1,2.82,1.44L1090,309.25c2.33,7.15,7.87,10.73,14.56,8.55s9.07-8.34,6.74-15.49L1094.59,251a2,2,0,0,1,1.44-2.82l8.82-2.88a2,2,0,0,1,2.82,1.44l16.56,50.81c4.71,14.45-1.5,27.92-15.65,32.53s-27.1-2.61-31.81-17.06l-16.56-50.82a2,2,0,0,1,1.44-2.82Z"/><path class="cls-2" d="M1207.47,237.49,1224,288.3a2,2,0,0,1-1.28,2.77l-8.82,2.88a2,2,0,0,1-2.83-1.44l-16.7-51.27c-2.33-7.15-7.37-10.72-13.76-8.64s-8.5,8-6.17,15.14l16.7,51.26a2,2,0,0,1-1.28,2.78l-8.83,2.87a2,2,0,0,1-2.82-1.43L1161.53,252c-2.33-7.15-7.37-10.73-13.76-8.64s-8.5,8-6.17,15.13l16.7,51.27a2,2,0,0,1-1.43,2.82l-8.68,2.83a2,2,0,0,1-2.82-1.44l-16.56-50.81c-4.7-14.45,1-27.77,14.9-32.28a20.5,20.5,0,0,1,19.45,3.93,20.32,20.32,0,0,1,13.41-14.64C1190.41,215.61,1202.76,223,1207.47,237.49Z"/><path class="cls-2" d="M1238.32,283.64l-16.56-50.81c-4.71-14.46,1.51-27.92,15.66-32.53s27.1,2.61,31.81,17.06l16.55,50.81a2,2,0,0,1-1.43,2.83l-8.83,2.87a2,2,0,0,1-2.82-1.43L1256,221.17c-2.33-7.15-7.88-10.73-14.57-8.55s-9.06,8.34-6.73,15.49l16.7,51.27a2,2,0,0,1-1.43,2.82l-8.83,2.87A2,2,0,0,1,1238.32,283.64Z"/><path class="cls-2" d="M1286.94,186a2,2,0,0,1,2.83,1.44l16.7,51.26c2.33,7.15,7.87,10.73,14.57,8.55s9.06-8.34,6.73-15.49l-16.7-51.26a2,2,0,0,1,1.43-2.83l8.83-2.87a2,2,0,0,1,2.82,1.43l16.56,50.82c4.71,14.45-1.51,27.92-15.66,32.53s-27.1-2.62-31.81-17.07l-16.56-50.81a2,2,0,0,1,1.44-2.82Z"/><path class="cls-2" d="M1423.94,167l16.56,50.81a2,2,0,0,1-1.29,2.78l-8.82,2.87a2,2,0,0,1-2.82-1.43l-16.71-51.27c-2.33-7.15-7.36-10.73-13.75-8.65s-8.51,8-6.18,15.14l16.71,51.27a2,2,0,0,1-1.29,2.77l-8.82,2.88a2,2,0,0,1-2.83-1.44L1378,181.42c-2.33-7.15-7.37-10.73-13.75-8.65s-8.51,8-6.18,15.14l16.7,51.27a2,2,0,0,1-1.43,2.82l-8.67,2.83a2,2,0,0,1-2.83-1.44l-16.55-50.81c-4.71-14.45,1-27.77,14.89-32.28a20.52,20.52,0,0,1,19.45,3.92A20.33,20.33,0,0,1,1393,149.59C1406.88,145.08,1419.23,152.5,1423.94,167Z"/><path class="cls-2" d="M1451,189.1l-25.93-79.57a2,2,0,0,1,1.49-2.67l9.13-3a1.93,1.93,0,0,1,2.62,1.33l25.92,79.56a2,2,0,0,1-1.28,2.78l-9.13,3A2,2,0,0,1,1451,189.1Zm4.27,18.8a8.5,8.5,0,0,1,5.64-11.1,8.6,8.6,0,0,1,11.1,5.64,8.69,8.69,0,0,1-5.64,11.1A8.6,8.6,0,0,1,1455.28,207.9Z"/><path class="cls-2" d="M1486,177.69l-25.93-79.56a2,2,0,0,1,1.49-2.67l9.13-3a1.94,1.94,0,0,1,2.62,1.34l25.92,79.56a2,2,0,0,1-1.28,2.78l-9.13,3A2,2,0,0,1,1486,177.69Zm4.27,18.81a8.5,8.5,0,0,1,5.64-11.1A8.6,8.6,0,0,1,1507,191a8.69,8.69,0,0,1-5.64,11.1A8.6,8.6,0,0,1,1490.27,196.5Z"/><path class="cls-3" d="M1123.77,907.41c0,13.82-6.46,31.05-35.3,40.23-29.82,9.48-82.78,10.67-128.88,10.67-45.31,0-99.17-4.76-128.88-14s-35.3-22.88-35.3-36.94"/><path class="cls-4" d="M1124.59,909.05c0,11.34-73.51,14-164.18,14s-164.18-2.62-164.18-14,73.51-20.52,164.18-20.52S1124.59,897.72,1124.59,909.05Z"/><path class="cls-5" d="M787.7,810.13l-61,4.11-80.45,1.64-73.88-1.64-69.18-4.11a21.94,21.94,0,0,1-21.94-21.94v-8.65c0-12.12,30.57-12.09,42.69-12.09l231.49-1.64c12.12,0,54.18,1.61,54.18,13.73v8.65A21.94,21.94,0,0,1,787.7,810.13Z"/><path class="cls-6" d="M810.72,774.2c0,11.34-73.5,14-164.18,14s-164.18-2.62-164.18-14,73.51-20.52,164.18-20.52S810.72,762.87,810.72,774.2Z"/><path class="cls-7" d="M1449.07,676l-77.29,5h-151l-65.8-5c-9.9,0-17.93-6.16-17.93-13.75V638.14c0-7.59,13.08-6.36,23-6.36l289-1.64c9.9,0,18.06.41,18.06,8v24.11C1467,669.84,1459,676,1449.07,676Z"/><path class="cls-8" d="M1466.6,633.27c0,5.8-73.51,7.15-164.18,7.15s-164.18-1.35-164.18-7.15,73.51-10.52,164.18-10.52S1466.6,627.46,1466.6,633.27Z"/><polygon class="cls-9" points="944.04 459.16 829.92 550.1 615.96 478.78 737.21 384.28 944.04 459.16"/><path class="cls-10" d="M1234.94,264.93s-57.85,28.93,15.78,28.93c0,0-7.89,26.3,39.45,2.63,0,0,0,15.78,31.55,2.63,0,0,13.15,26.3,39.45,2.63,0,0,15.78,21,36.82,0,0,0,5.26,18.41,31.55,2.63,0,0,34.19,18.41,44.71-7.89,0,0,7.89,18.41,31.55-5.26,0,0,52.6,5.26,15.78-26.3C1521.58,264.93,1369.06,225.49,1234.94,264.93Z"/><path class="cls-11" d="M693.18,137c0,40.8-77.24,32.84-167.46,32.84s-159.26,8-159.26-32.84S439.6,63.11,529.82,63.11,693.18,96.19,693.18,137Z"/><rect class="cls-11" x="364.82" y="122.21" width="328.36" height="52.54" rx="11.47"/><path class="cls-12" d="M556.91,82.81s9.85,0,8.21,4.93c0,0-15.34,7-18.34,3.5S556.91,82.81,556.91,82.81Z"/><path class="cls-12" d="M507.66,79.53s-8.21,6.56-1.65,8.21,8.21-4.93,8.21-4.93S512.58,77.89,507.66,79.53Z"/><path class="cls-12" d="M547.06,68s-4.93,3.29-1.64,6.57S552,71.32,552,71.32,553.63,63.11,547.06,68Z"/><path class="cls-12" d="M525.72,71.32s4.92,11.49,8.21,8.21S532.28,68,525.72,71.32Z"/><path class="cls-12" d="M530.64,84.45s4.93,8.21,1.64,8.21S520.79,86.09,530.64,84.45Z"/></g></g></svg>