<svg xmlns="http://www.w3.org/2000/svg" viewBox="0 0 1920 1080"><defs><style>.cls-1,.cls-9{fill:#fff;}.cls-2{fill:#ff3;}.cls-3{fill:#f39;}.cls-4{font-size:90px;}.cls-10,.cls-4{font-family:HelveticaNeue-Italic, Helvetica Neue;font-style:italic;}.cls-5{opacity:0.5;}.cls-6,.cls-7{font-size:30px;}.cls-11,.cls-6,.cls-7{font-family:Helvetica;}.cls-7{opacity:0.3;}.cls-8{font-family:KozGoPr6N-Regular-83pv-RKSJ-H, Kozuka Gothic Pr6N;}.cls-9{stroke:#000;stroke-miterlimit:10;}.cls-10{font-size:90px;}.cls-11{font-size:46px;}</style></defs><g id="レイヤー_2" data-name="レイヤー 2"><g id="レイヤー_1-2" data-name="レイヤー 1"><polygon class="cls-1" points="0 0 0 165.23 937.12 0 0 0"/><polygon class="cls-1" points="0 1080 1920 1080 1920 36.3 0 374.83 0 1080"/><polygon class="cls-2" points="0 165.23 0 374.83 1920 36.3 1920 0 937.12 0 0 165.23"/><polygon class="cls-3" points="1103.78 118.57 801.08 118.57 816.22 99.57 1118.92 99.57 1103.78 118.57"/><text class="cls-4" transform="translate(834.29 117.69)">Works</text><g class="cls-5"><text class="cls-6" transform="translate(649.12 345.73)">All</text><text class="cls-7" transform="translate(1114.21 345.25)">Music</text><text class="cls-7" transform="translate(886.96 344.93)">UX<tspan class="cls-8" x="41.67" y="0.64">・</tspan><tspan x="71.67" y="0">UI</tspan></text><text class="cls-7" transform="translate(739.69 345.25)">Web</text></g><g class="cls-5"><rect class="cls-9" x="391" y="403.77" width="330" height="234"/><rect class="cls-9" x="795" y="403.77" width="330" height="234"/><rect class="cls-9" x="1199" y="403.77" width="330" height="234"/></g><polygon class="cls-2" points="0 696.82 1920 1035.35 1920 825.75 0 487.22 0 696.82"/><polygon class="cls-3" points="1080.53 779.96 814 779.96 827.33 763.23 1093.86 763.23 1080.53 779.96"/><text class="cls-10" transform="translate(834.29 778.2)">About</text><text class="cls-11" transform="translate(912.84 1002.56)">Profile</text></g></g></svg>