<svg xmlns="http://www.w3.org/2000/svg" viewBox="0 0 835 835"><defs><style>.cls-1{fill:#fff;opacity:0;}.cls-2,.cls-3,.cls-4,.cls-5{fill:none;stroke-linecap:round;stroke-linejoin:round;}.cls-2{stroke:#ee4e2c;}.cls-2,.cls-3,.cls-4{stroke-width:80px;}.cls-3{stroke:#ca2b8e;}.cls-4{stroke:#d9d421;}.cls-5{stroke:gray;stroke-width:50px;}</style></defs><g id="レイヤー_2" data-name="レイヤー 2"><g id="レイヤー_1-2" data-name="レイヤー 1"><rect class="cls-1" width="835" height="835"/><path class="cls-2" d="M608.14,452.81S624.71,732.67,763.6,778.56c0,0-134.23-105.95-77.19-428.74"/><path class="cls-2" d="M686.36,349.38s30.5,3.27,54,74.56c0,0,68.42-122,7.28-367.8"/><path class="cls-3" d="M227.76,457.9S210.29,733,71.4,778.86c0,0,134.23-105.94,77.19-428.74"/><path class="cls-4" d="M148.64,349.69s-30.5,3.26-54,74.55c0,0-68.42-122-7.28-367.8"/><path class="cls-5" d="M144.47,213.16s53.32,333,277.36,339.65C617.44,558.65,686.3,213,686.3,213"/></g></g></svg>