<svg xmlns="http://www.w3.org/2000/svg" viewBox="0 0 178.56 58.35"><defs><style>.cls-1{fill:#141414;}.cls-2{fill:#fff;}</style></defs><g id="レイヤー_2" data-name="レイヤー 2"><g id="レイヤー_1-2" data-name="レイヤー 1"><path class="cls-1" d="M38.9,58.31C42.41,58.35,60,49.4,60,30A29.76,29.76,0,0,0,29.84,0C11.78.08,0,14.68,0,30,0,49.24,17.28,58.35,20.89,58.35c.79,0,1.7-.61,1.7-1,0-9.48-.6-11.21,1.76-14s8.08-3.07,11.15,0c2,2,1.86,3.93,1.86,14C37.36,58,38.32,58.3,38.9,58.31Z"/><path class="cls-2" d="M37.54,15.47c.63-.31,3.93-3.14,7.85-3.14,1.1,0,1.57,5.81.63,8a12.3,12.3,0,0,1,3,10.05C47.74,40.74,41.64,42,35.5,43.12c-4.4.78-5.56.71-11.15,0C18.22,42.33,12.41,40.76,11,30.71c-1-7.22,3-10.37,3-10.37-1.41-4.55.12-8,.47-8,3.77,0,6.6,2.2,8,3.14a25.59,25.59,0,0,1,7.24-1C36.91,14.72,37.23,15.63,37.54,15.47Z"/><path class="cls-2" d="M22.54,51.31c-1.78.33-4.8.46-5.58.13a6.6,6.6,0,0,1-4.71-4.24,7.31,7.31,0,0,0-1.87-2.83c-.64-.78-3-1.88-2.21-2.67.31-.31,3.14-.47,5.18,2,.64.78,1.57,2.83,3.3,3.62a7.69,7.69,0,0,0,6-.24Z"/><ellipse class="cls-1" cx="19.4" cy="48.85" rx="0.71" ry="0.39"/><ellipse class="cls-1" cx="16.96" cy="48.46" rx="0.39" ry="0.71" transform="translate(-34.21 44.37) rotate(-66.14)"/><path class="cls-1" d="M15.38,47.68a.59.59,0,0,1-.77-.17c-.26-.26-.32-.64-.15-.79a.6.6,0,0,1,.78.17C15.49,47.15,15.56,47.53,15.38,47.68Z"/><ellipse class="cls-1" cx="21.75" cy="48.53" rx="0.71" ry="0.39" transform="translate(-10.24 6.04) rotate(-12.83)"/><path class="cls-1" d="M13,45c.17-.18.58-.09.78.16s.21.64,0,.78a.66.66,0,0,1-.7-.08A.7.7,0,0,1,13,45Z"/><ellipse class="cls-1" cx="12.25" cy="43.9" rx="0.44" ry="0.67" transform="translate(-27.45 21.52) rotate(-45)"/><path class="cls-1" d="M10.52,42.33c.09-.11.5-.09.71.08a.68.68,0,0,1,.24.71.73.73,0,0,1-.71-.08C10.52,42.85,10.43,42.44,10.52,42.33Z"/><path d="M81.07,24.19c0-.81-.36-1.24-1.41-1.24h-2c-1.44,0-1.9.48-1.9,2.2v3c0,2,.63,2.18,2.14,2.18h2.16c.74,0,1-.43,1-.88V29H77.59V25H88.13v4.3c0,5-1.78,7.32-7,7.32H76.75c-6.43,0-8-2.33-8-8.4v-3c0-6.12,1.42-8.4,7.8-8.4h4.2c5.74,0,7.49,2,7.49,7.44Z"/><path d="M90.91,22.3V16.87H97.8V22.3Zm0,14.18V23.4H97.8V36.48Z"/><path d="M109.75,28.3v1.15c0,.65.1.77.87.77h6.6v6.26h-8.86c-4,0-5.4-1.87-5.4-4.72V28.3h-3V22h3V19.25h6.79V22h7.8V28.3Z"/><path d="M131.45,36.46V29.28h-4.51v7.18h-7.2V16.87h7.2v6h4.51v-6h7.22V36.46Z"/><path d="M153.89,36.51h-7.78c-3.17,0-5-1.35-5-5.11V22H148v7.15c0,.58.27,1,.8,1h2.35c.5,0,.79-.21.79-1V22h6.91V31.4C158.88,34.68,157,36.51,153.89,36.51Z"/><path d="M172.83,36.48h-6c-4.39,0-5.71-2.18-5.71-6V16.85H168v5.3a6.7,6.7,0,0,1,1.37-.14H173c3.79,0,5.52,2.26,5.52,6v2.33C178.56,34.44,177.1,36.48,172.83,36.48ZM171.65,29c0-.36-.19-.65-.77-.65h-2.21A.59.59,0,0,0,168,29v.53a.59.59,0,0,0,.67.64h2.21c.58,0,.77-.24.77-.72Z"/></g></g></svg>