<svg xmlns="http://www.w3.org/2000/svg" viewBox="0 0 180 58.35"><defs><style>.cls-1,.cls-2{fill:#fff;}.cls-2{font-size:24px;font-family:VDL-LogoJrBlack-Black-83pv-RKSJ-H, VDL-LogoJrBlack;}</style></defs><g id="レイヤー_2" data-name="レイヤー 2"><g id="レイヤー_1-2" data-name="レイヤー 1"><rect width="180" height="58.35"/><path class="cls-1" d="M38.9,58.31C42.41,58.35,60,49.4,60,30A29.76,29.76,0,0,0,29.84,0C11.78.08,0,14.68,0,30,0,49.24,17.28,58.35,20.89,58.35c.79,0,1.7-.61,1.7-1,0-9.48-.6-11.21,1.76-14s8.08-3.07,11.15,0c2,2,1.86,3.93,1.86,14C37.36,58,38.32,58.3,38.9,58.31Z"/><path d="M37.54,15.47c.63-.31,3.93-3.14,7.85-3.14,1.1,0,1.57,5.81.63,8a12.3,12.3,0,0,1,3,10.05C47.74,40.74,41.64,42,35.5,43.12c-4.4.78-5.56.71-11.15,0C18.22,42.33,12.41,40.76,11,30.71c-1-7.22,3-10.37,3-10.37-1.41-4.55.12-8,.47-8,3.77,0,6.6,2.2,8,3.14a25.59,25.59,0,0,1,7.24-1C36.91,14.72,37.23,15.63,37.54,15.47Z"/><path d="M22.54,51.31c-1.78.33-4.8.46-5.58.13a6.6,6.6,0,0,1-4.71-4.24,7.31,7.31,0,0,0-1.87-2.83c-.64-.78-3-1.88-2.21-2.67.31-.31,3.14-.47,5.18,2,.64.78,1.57,2.83,3.3,3.62a7.69,7.69,0,0,0,6-.24Z"/><ellipse class="cls-1" cx="19.4" cy="48.85" rx="0.71" ry="0.39"/><ellipse class="cls-1" cx="16.96" cy="48.46" rx="0.39" ry="0.71" transform="translate(-34.21 44.37) rotate(-66.14)"/><path class="cls-1" d="M15.38,47.68a.59.59,0,0,1-.77-.17c-.26-.26-.32-.64-.15-.79a.6.6,0,0,1,.78.17C15.49,47.15,15.56,47.53,15.38,47.68Z"/><ellipse class="cls-1" cx="21.75" cy="48.53" rx="0.71" ry="0.39" transform="translate(-10.24 6.04) rotate(-12.83)"/><path class="cls-1" d="M13,45c.17-.18.58-.09.78.16s.21.64,0,.78a.66.66,0,0,1-.7-.08A.7.7,0,0,1,13,45Z"/><ellipse class="cls-1" cx="12.25" cy="43.9" rx="0.44" ry="0.67" transform="translate(-27.45 21.52) rotate(-45)"/><path class="cls-1" d="M10.52,42.33c.09-.11.5-.09.71.08a.68.68,0,0,1,.24.71.73.73,0,0,1-.71-.08C10.52,42.85,10.43,42.44,10.52,42.33Z"/><text class="cls-2" transform="translate(67.54 36.2)">GitHub</text></g></g></svg>