<svg xmlns="http://www.w3.org/2000/svg" viewBox="0 0 180 60"><defs><style>.cls-1,.cls-3{fill:#fff;}.cls-1{opacity:0;}.cls-2{fill:#141414;}</style></defs><g id="レイヤー_2" data-name="レイヤー 2"><g id="レイヤー_1-2" data-name="レイヤー 1"><rect class="cls-1" width="180" height="60"/><path class="cls-2" d="M38.9,59c3.43,0,20.57-8.86,20.57-28.18C59.47,15.13,47.45.92,30.08,1,12.48,1.08,1,15.59,1,30.78,1,49.94,17.84,59,21.36,59c.76,0,1.66-.6,1.66-1,0-9.42-.59-11.14,1.7-14s7.88-3,10.87,0c2,2,1.82,3.91,1.82,13.91C37.41,58.63,38.34,59,38.9,59Z"/><path class="cls-3" d="M37.58,16.38c.61-.31,3.83-3.12,7.65-3.12,1.07,0,1.53,5.77.62,8a12.35,12.35,0,0,1,2.9,10C47.52,41.5,41.58,42.77,35.59,43.86c-4.28.78-5.41.71-10.87,0-6-.78-11.63-2.35-13-12.34-1-7.17,2.91-10.3,2.91-10.3-1.38-4.53.12-8,.46-8,3.67,0,6.43,2.18,7.81,3.12a24.49,24.49,0,0,1,7.06-1C37,15.63,37.27,16.53,37.58,16.38Z"/><path class="cls-3" d="M23,52c-1.74.33-4.69.46-5.44.13a6.42,6.42,0,0,1-4.59-4.21,7.38,7.38,0,0,0-1.82-2.82c-.63-.78-2.93-1.87-2.16-2.65.31-.31,3.06-.47,5,2,.62.78,1.53,2.81,3.21,3.59a7.33,7.33,0,0,0,5.86-.24Z"/><ellipse class="cls-2" cx="19.9" cy="49.55" rx="0.69" ry="0.39"/><ellipse class="cls-2" cx="17.53" cy="49.16" rx="0.39" ry="0.69" transform="translate(-34.46 44.57) rotate(-65.33)"/><path class="cls-2" d="M16,48.39c-.16.16-.51.1-.76-.16s-.31-.64-.14-.79a.59.59,0,0,1,.76.16C16.1,47.87,16.16,48.24,16,48.39Z"/><ellipse class="cls-2" cx="22.2" cy="49.24" rx="0.69" ry="0.39" transform="translate(-10.74 6.43) rotate(-13.31)"/><path class="cls-2" d="M13.7,45.73a.58.58,0,0,1,.77.16.59.59,0,0,1,0,.78.64.64,0,0,1-.69-.08A.73.73,0,0,1,13.7,45.73Z"/><ellipse class="cls-2" cx="12.94" cy="44.64" rx="0.44" ry="0.66" transform="translate(-27.18 21.18) rotate(-43.52)"/><path class="cls-2" d="M11.25,43.08c.09-.11.49-.09.69.07s.32.6.23.71-.48.08-.69-.08S11.16,43.19,11.25,43.08Z"/><path d="M76.59,27.46c0-.84-.36-1.28-1.42-1.28h-2c-1.45,0-1.91.49-1.91,2.27v3.11c0,2,.63,2.24,2.15,2.24H75.6c.75,0,1-.44,1-.91v-.47H73.09V28.25H83.71v4.42c0,5.18-1.79,7.52-7.07,7.52h-4.4c-6.49,0-8.11-2.39-8.11-8.63V28.45c0-6.3,1.43-8.64,7.87-8.64h4.23c5.78,0,7.55,2.05,7.55,7.65Z"/><path d="M86.51,25.51V19.93h6.95v5.58Zm0,14.58V26.64h6.95V40.09Z"/><path d="M105.5,31.68v1.18c0,.67.1.79.88.79H113v6.44H104.1c-4,0-5.44-1.92-5.44-4.86V31.68h-3V25.19h3V22.37h6.84v2.82h7.87v6.49Z"/><path d="M127.38,40.07V32.69h-4.55v7.38h-7.26V19.93h7.26v6.15h4.55V19.93h7.28V40.07Z"/><path d="M150,40.12h-7.84c-3.2,0-5-1.38-5-5.26V25.21h6.94v7.36c0,.59.27,1,.8,1h2.37c.51,0,.8-.22.8-1V25.21h7v9.65C155,38.24,153.17,40.12,150,40.12Z"/><path d="M169.08,40.09H163c-4.43,0-5.76-2.24-5.76-6.19v-14h7v5.45a6.21,6.21,0,0,1,1.38-.15h3.7c3.83,0,5.57,2.32,5.57,6.22v2.4C174.87,38,173.39,40.09,169.08,40.09Zm-1.18-7.67c0-.37-.19-.67-.78-.67H164.9a.6.6,0,0,0-.68.59v.55a.61.61,0,0,0,.68.66h2.22c.59,0,.78-.24.78-.74Z"/></g></g></svg>