<svg xmlns="http://www.w3.org/2000/svg" xmlns:xlink="http://www.w3.org/1999/xlink" viewBox="0 0 1920 1080"><defs><style>.cls-1{fill:url(#名称未設定グラデーション_146);}.cls-2,.cls-3,.cls-7{fill:#fff;}.cls-2{opacity:0.2;}.cls-3{opacity:0;}.cls-10,.cls-11,.cls-13,.cls-4{fill:none;}.cls-4{stroke:#4d4d4d;}.cls-10,.cls-11,.cls-12,.cls-13,.cls-4,.cls-7{stroke-miterlimit:10;}.cls-5{fill:#7095ff;}.cls-6{fill:#ffa73f;}.cls-12,.cls-7{stroke:#e6e6e6;}.cls-8{opacity:0.8;}.cls-9{fill:#ccc;}.cls-10{stroke:#9da8da;}.cls-11{stroke:#ccc;}.cls-12{fill:#fffae6;}.cls-13{stroke:#b3b3b3;}</style><linearGradient id="名称未設定グラデーション_146" x1="956.42" y1="-51.82" x2="964.1" y2="1217.97" gradientUnits="userSpaceOnUse"><stop offset="0" stop-color="#50b4ff"/><stop offset="0.09" stop-color="#61bafd"/><stop offset="0.53" stop-color="#aed7f6"/><stop offset="0.84" stop-color="#dee9f2"/><stop offset="1" stop-color="#f0f0f0"/></linearGradient></defs><g id="レイヤー_2" data-name="レイヤー 2"><g id="レイヤー_1-2" data-name="レイヤー 1"><rect class="cls-1" width="1920" height="1080"/><rect class="cls-2" y="1" width="574.69" height="1078"/><rect class="cls-3" x="2.06" y="19.58" width="570.6" height="198.13"/><path class="cls-4" d="M92.45,172.05s74.61,50.85-58.14,31.26"/><path class="cls-5" d="M163.82,96c-2.4,34.24-32.68,77.85-66.92,75.46S37.43,121.54,39.83,87.3a62.15,62.15,0,0,1,124,8.67Z"/><polygon class="cls-5" points="95.13 162.86 81.35 177.62 105.55 180.16 95.13 162.86"/><path d="M198.81,129.61a1.89,1.89,0,0,1-1.88-1.79,1.72,1.72,0,0,1,.39-1.06c4.19-5.56,6.74-11.68,8.35-19.65a1.44,1.44,0,0,1,1.51-1.13,1.55,1.55,0,0,1,1.7,1.4,1,1,0,0,1,0,.3,56.63,56.63,0,0,1-8.65,21.13A1.68,1.68,0,0,1,198.81,129.61Zm24.9.21a1.7,1.7,0,0,1-1.64-1.34,105.33,105.33,0,0,0-8.11-20.3,1.26,1.26,0,0,1-.18-.71,1.65,1.65,0,0,1,1.73-1.49,1.37,1.37,0,0,1,1.27.78,132.58,132.58,0,0,1,8.68,20.71,2.23,2.23,0,0,1,.09.59A1.82,1.82,0,0,1,223.71,129.82Zm-1.93-19.68a1,1,0,0,1-.87-.5,19.23,19.23,0,0,0-2.16-2.68,1,1,0,0,1-.33-.71,1.09,1.09,0,0,1,1.1-1,1.23,1.23,0,0,1,.8.36c1,1,2.62,2.73,2.62,3.44A1.17,1.17,0,0,1,221.78,110.14Zm2.94-1.66a1,1,0,0,1-.83-.44,18.5,18.5,0,0,0-2.17-2.44,1,1,0,0,1-.33-.72,1.05,1.05,0,0,1,1.81-.62c.3.3,2.56,2.38,2.56,3.21A1.08,1.08,0,0,1,224.72,108.48Z"/><path d="M233.64,106a1.63,1.63,0,0,1,3.23,0v10c0,6-1.66,11-6.42,14a1.72,1.72,0,0,1-2.73-1.54,1.44,1.44,0,0,1,.71-1.25c3.72-2.47,5.21-6.33,5.21-11.23Zm7.31-.08a1.63,1.63,0,0,1,3.23,0v19.19c0,.42.18.63.45.63a1.31,1.31,0,0,0,.27-.06,14.85,14.85,0,0,0,7.58-8.35,1.6,1.6,0,0,1,1.48-1.16,1.75,1.75,0,0,1,1.67,1.78c0,.83-2.44,7.75-10.14,11.32a4.18,4.18,0,0,1-1.72.39c-1.61,0-2.82-1.13-2.82-3.21Z"/><path d="M260.92,118.82a1.66,1.66,0,0,1,0-3.27h20.44a1.47,1.47,0,0,1,1.34,1.64c0,.83-.45,1.63-1.34,1.63Z"/><path d="M297.8,113.08a52.81,52.81,0,0,0-7.73-4.3,1.43,1.43,0,0,1-.92-1.31,1.76,1.76,0,0,1,1.69-1.75c.87,0,6,2.52,8.68,4.36a1.66,1.66,0,0,1,.8,1.37,2,2,0,0,1-1.78,1.87A1.21,1.21,0,0,1,297.8,113.08Zm-6.48,17.18a1.46,1.46,0,0,1-.36,0,1.79,1.79,0,0,1-1.78-1.84,1.49,1.49,0,0,1,1.28-1.52c11.47-2,17.41-6.74,20.18-15.48a1.43,1.43,0,0,1,1.42-1,1.61,1.61,0,0,1,1.73,1.55,3,3,0,0,1-.06.47C311.38,121.35,303.8,128.45,291.32,130.26Z"/><path d="M333.73,123.84l0-3.71c-4.55,2.05-6.21,4-6.21,5.47s1.75,2,7.13,2a41.26,41.26,0,0,0,6.06-.45c.09,0,.15,0,.24,0a1.29,1.29,0,0,1,1.25,1.4,1.55,1.55,0,0,1-1.4,1.6,44.51,44.51,0,0,1-6.18.36c-7.64,0-10.19-1.46-10.19-4.61,0-3.53,3.5-6.27,9.21-8.67a2.31,2.31,0,0,0-2.38-2.11c-3.71,0-7.28,3.18-10.25,7.34a1.61,1.61,0,0,1-1.31.74,1.72,1.72,0,0,1-1.69-1.63,1.63,1.63,0,0,1,.41-1A37.48,37.48,0,0,0,325.32,110c-1.76,0-3.45,0-5.11,0a1.34,1.34,0,0,1-1.25-1.46,1.2,1.2,0,0,1,1.16-1.31h.09c1.48,0,3,.06,4.48.06h1.67c.27-.8.5-1.6.74-2.44a1.27,1.27,0,0,1,1.31-.89c.8,0,1.66.48,1.66,1.31a9.47,9.47,0,0,1-.53,1.93c3.33-.15,6.68-.35,9.95-.68h.15a1.38,1.38,0,0,1,1.34,1.45,1.24,1.24,0,0,1-1.16,1.34c-2.38.21-6.87.54-11.32.63a34.92,34.92,0,0,1-2.14,4.22,8.67,8.67,0,0,1,5-1.76c2.62,0,4.52,1.1,5.2,3.72q2.28-.86,5-1.67a1.6,1.6,0,0,1,.53-.09,1.45,1.45,0,0,1,1.4,1.52,1.28,1.28,0,0,1-.92,1.28c-2.17.59-4.08,1.19-5.71,1.78v4.93a1.4,1.4,0,0,1-1.55,1.28c-.77,0-1.51-.41-1.51-1.25Z"/><path d="M358,118.35h-4c-.15,5.58-1.43,8.82-4.46,11.67a1.36,1.36,0,0,1-.95.39,1.69,1.69,0,0,1-1.67-1.6,1.39,1.39,0,0,1,.48-1.07c2.73-2.41,3.68-4.43,3.8-9.39h-3a1.19,1.19,0,0,1-1.22-1.28,1.31,1.31,0,0,1,1.22-1.4h3.06v-2.35a16.64,16.64,0,0,1-2.46.84,1.68,1.68,0,0,1-1.46-1.67.93.93,0,0,1,.74-.95,18.27,18.27,0,0,0,7.11-3.39.87.87,0,0,1,.59-.21,1.52,1.52,0,0,1,1.37,1.46c0,.71-.78,1.31-3.09,2.65v3.62h4v-6.36c0-.83.74-1.22,1.48-1.22a1.3,1.3,0,0,1,1.46,1.22v6.36h3a2.59,2.59,0,0,1,2.65,2.88c0,4.79.65,6.72,1.84,8.35.27.36.54.57.77.57.54,0,1.07-1,1.64-3.06a19.59,19.59,0,0,0-2.8-1.49,1,1,0,0,1-.68-1,1.33,1.33,0,0,1,.74-1.16,1.48,1.48,0,0,1-.68-1.19,1.08,1.08,0,0,1,.62-1,12.47,12.47,0,0,0,2.05-1.4,2.09,2.09,0,0,1-.74.12c-2.5,0-5.53-3.77-5.53-9.39,0-.23,0-.44-.32-.44H349.33a1.18,1.18,0,0,1-1.22-1.28,1.31,1.31,0,0,1,1.22-1.4h14.89a2.17,2.17,0,0,1,2.44,2.44c0,5.94,2.43,7.16,2.79,7.16s.89-.74,1.4-2.43c-.78-.42-1.85-1-2.8-1.37a1,1,0,0,1-.5-.92,1.5,1.5,0,0,1,.65-1.28,1.73,1.73,0,0,1-.77-1.34.91.91,0,0,1,.59-.86,11.29,11.29,0,0,0,2.59-1.54.83.83,0,0,1,.56-.21,1.57,1.57,0,0,1,1.31,1.54,1.11,1.11,0,0,1-.41.89,9.3,9.3,0,0,1-2.74,1.61c2.17.92,2.91,1.25,2.91,2a1.27,1.27,0,0,1-.15.56,1.74,1.74,0,0,1,1.4,1.58,7.73,7.73,0,0,1-2.32,3.89,1.41,1.41,0,0,1,1.22,1.34,1.21,1.21,0,0,1-.41.89,14.33,14.33,0,0,1-2.86,1.93,24.36,24.36,0,0,1,3.12,1.43,1.09,1.09,0,0,1,.63,1,1.06,1.06,0,0,1-.09.42,1.62,1.62,0,0,1,.92,1.39c0,.42-1.75,5.71-4.52,5.71-1.72,0-5.49-2.74-5.49-11.71,0-.48-.15-.62-.48-.62H361v11.17a1.3,1.3,0,0,1-1.46,1.22c-.74,0-1.48-.39-1.48-1.22Z"/><path d="M381.16,119.06a27.17,27.17,0,0,0,1,8.47,1.92,1.92,0,0,1,.12.68,1.71,1.71,0,0,1-3.39.24,39.12,39.12,0,0,1-.8-8.77A55.26,55.26,0,0,1,379.7,106a1.61,1.61,0,0,1,1.58-1.13,1.41,1.41,0,0,1,1.54,1.25,2.06,2.06,0,0,1-.06.39,39.79,39.79,0,0,0-1.6,11.08Zm20.45-9.54c.74,0,1.12.71,1.12,1.4a1.24,1.24,0,0,1-1,1.36c-1.31.15-2.86.27-4.58.33,0,.21.18,6.27.18,9.21a37.37,37.37,0,0,1,4.93,2.83A1.58,1.58,0,0,1,403,126a1.46,1.46,0,0,1-2.4,1.31c-.93-.68-2.06-1.46-3.27-2.17-.36,4.31-3.09,5.41-6.6,5.41-4,0-6.81-2.32-6.81-5.68,0-3.12,2.68-5,6.51-5a13.23,13.23,0,0,1,3.93.74c-.06-2.34-.09-5.2-.15-7.93h-2c-2.17,0-4.46,0-6.69-.12a1.49,1.49,0,0,1-1.43-1.55,1.28,1.28,0,0,1,1.34-1.33h.15c2.38.18,4.84.24,7.22.24h1.31c0-1.67-.09-3.18-.12-4.4v-.06c0-.8.77-1.22,1.54-1.22a1.32,1.32,0,0,1,1.46,1.25c0,1.16.06,2.64.09,4.34,1.69-.09,3.21-.21,4.4-.33Zm-7.26,14.12a10.49,10.49,0,0,0-4-1c-2.23,0-3.39.89-3.39,2.28,0,1.61,1.34,2.71,3.69,2.71s3.65-.78,3.65-3.6Zm6.34-14.77a1,1,0,0,1-.9-.57,20.29,20.29,0,0,0-1.54-2.32,1,1,0,0,1-.24-.59,1,1,0,0,1,1-1,1,1,0,0,1,.8.41c.36.42,1.93,2.38,1.93,3A1.1,1.1,0,0,1,400.69,108.87Zm2.91-1.31a1,1,0,0,1-.84-.48,16.62,16.62,0,0,0-1.57-2.17.93.93,0,0,1-.27-.62,1,1,0,0,1,1-.89c.45,0,.92.24,2.53,2.67a1,1,0,0,1,.18.54A1,1,0,0,1,403.6,107.56Z"/><path d="M432.25,110.08c-2.32-.06-4.67-.08-7.05-.11.06,2.16.06,4.33.06,6a8.23,8.23,0,0,1,.54,3.09c0,5.73-2.05,10.19-10.14,11.47l-.29,0a1.69,1.69,0,0,1-1.7-1.69,1.34,1.34,0,0,1,1.22-1.34c4.9-.86,6.93-2.65,7.76-5.08a8,8,0,0,1-4.64,1.36c-4.87,0-7.37-2.4-7.37-5.91s2.79-6.09,7.52-6.09a8,8,0,0,1,4.19,1c0-.89-.06-1.9-.09-2.82h-1.87c-4.34,0-8.71.09-13.17.23h-.06a1.3,1.3,0,0,1-1.19-1.45c0-.69.36-1.4,1.11-1.4,5.11-.06,10.13-.09,15-.09,0-.59-.06-1.19-.12-1.75v-.12c0-.77.75-1.19,1.55-1.19a1.41,1.41,0,0,1,1.54,1.25c0,.56,0,1.19.06,1.78,2.41,0,4.82,0,7.17,0a1.26,1.26,0,0,1,1.21,1.4,1.29,1.29,0,0,1-1.21,1.42Zm-14.06,4.43c-2.91,0-4.58,1.37-4.58,3.45,0,1.6,1.46,3.09,4.37,3.09,2.71,0,4.79-1,4.79-3.6C422.77,115.85,421.07,114.51,418.19,114.51Z"/><rect class="cls-3" x="2.06" y="289.08" width="570.6" height="198.13"/><path class="cls-4" d="M92.45,441.55s74.61,50.85-58.14,31.26"/><path class="cls-5" d="M163.82,365.47c-2.4,34.24-32.68,77.85-66.92,75.46S37.43,391,39.83,356.8a62.15,62.15,0,0,1,124,8.67Z"/><polygon class="cls-5" points="95.13 432.36 81.35 447.12 105.55 449.66 95.13 432.36"/><path d="M198.81,399.11a1.89,1.89,0,0,1-1.88-1.78,1.73,1.73,0,0,1,.39-1.07c4.19-5.56,6.74-11.68,8.35-19.65a1.43,1.43,0,0,1,1.51-1.12,1.54,1.54,0,0,1,1.7,1.39,1,1,0,0,1,0,.3,56.63,56.63,0,0,1-8.65,21.13A1.68,1.68,0,0,1,198.81,399.11Zm24.9.21a1.7,1.7,0,0,1-1.64-1.34,105.86,105.86,0,0,0-8.11-20.3,1.24,1.24,0,0,1-.18-.71,1.64,1.64,0,0,1,1.73-1.48,1.36,1.36,0,0,1,1.27.77A133,133,0,0,1,225.46,397a2.24,2.24,0,0,1,.09.6A1.82,1.82,0,0,1,223.71,399.32Zm-1.93-19.67a1.05,1.05,0,0,1-.87-.51,19.23,19.23,0,0,0-2.16-2.68,1,1,0,0,1-.33-.71,1.09,1.09,0,0,1,1.1-1,1.23,1.23,0,0,1,.8.36c1,.95,2.62,2.73,2.62,3.45A1.18,1.18,0,0,1,221.78,379.65Zm2.94-1.67a1,1,0,0,1-.83-.44,19.17,19.17,0,0,0-2.17-2.44,1,1,0,0,1-.33-.72,1.05,1.05,0,0,1,1.81-.62c.3.3,2.56,2.38,2.56,3.21A1.07,1.07,0,0,1,224.72,378Z"/><path d="M233.64,375.49a1.63,1.63,0,0,1,3.23,0v10c0,6-1.66,11-6.42,14a1.72,1.72,0,0,1-2.73-1.54,1.44,1.44,0,0,1,.71-1.25c3.72-2.46,5.21-6.33,5.21-11.23Zm7.31-.09a1.63,1.63,0,0,1,3.23,0v19.19c0,.42.18.63.45.63a.88.88,0,0,0,.27-.06,14.85,14.85,0,0,0,7.58-8.35,1.6,1.6,0,0,1,1.48-1.16,1.75,1.75,0,0,1,1.67,1.78c0,.83-2.44,7.76-10.14,11.32a4.18,4.18,0,0,1-1.72.39c-1.61,0-2.82-1.13-2.82-3.21Z"/><path d="M260.92,388.32a1.66,1.66,0,0,1,0-3.27h20.44a1.47,1.47,0,0,1,1.34,1.64c0,.83-.45,1.63-1.34,1.63Z"/><path d="M297.8,382.59a51.9,51.9,0,0,0-7.73-4.31,1.43,1.43,0,0,1-.92-1.31,1.76,1.76,0,0,1,1.69-1.75c.87,0,6,2.52,8.68,4.37a1.63,1.63,0,0,1,.8,1.36,2,2,0,0,1-1.78,1.87A1.26,1.26,0,0,1,297.8,382.59Zm-6.48,17.17a1.46,1.46,0,0,1-.36,0,1.79,1.79,0,0,1-1.78-1.84,1.48,1.48,0,0,1,1.28-1.51c11.47-2,17.41-6.75,20.18-15.49a1.43,1.43,0,0,1,1.42-1,1.62,1.62,0,0,1,1.73,1.55,2.88,2.88,0,0,1-.06.47C311.38,390.85,303.8,398,291.32,399.76Z"/><path d="M333.73,393.34l0-3.71c-4.55,2.05-6.21,3.95-6.21,5.47s1.75,2,7.13,2a41.26,41.26,0,0,0,6.06-.45c.09,0,.15,0,.24,0a1.3,1.3,0,0,1,1.25,1.4,1.54,1.54,0,0,1-1.4,1.6,44.51,44.51,0,0,1-6.18.36c-7.64,0-10.19-1.46-10.19-4.61,0-3.53,3.5-6.26,9.21-8.67a2.31,2.31,0,0,0-2.38-2.11c-3.71,0-7.28,3.18-10.25,7.34a1.61,1.61,0,0,1-1.31.74,1.72,1.72,0,0,1-1.69-1.63,1.58,1.58,0,0,1,.41-1,37.66,37.66,0,0,0,6.87-10.58c-1.76,0-3.45,0-5.11,0A1.34,1.34,0,0,1,319,378a1.2,1.2,0,0,1,1.16-1.31h.09c1.48,0,3,.06,4.48.06h1.67c.27-.8.5-1.6.74-2.44a1.27,1.27,0,0,1,1.31-.89c.8,0,1.66.48,1.66,1.31a9.47,9.47,0,0,1-.53,1.93c3.33-.15,6.68-.35,9.95-.68h.15a1.38,1.38,0,0,1,1.34,1.46,1.23,1.23,0,0,1-1.16,1.33c-2.38.21-6.87.54-11.32.63a34.92,34.92,0,0,1-2.14,4.22,8.67,8.67,0,0,1,5-1.76c2.62,0,4.52,1.1,5.2,3.72,1.52-.57,3.18-1.13,5-1.66a1.6,1.6,0,0,1,.53-.09,1.44,1.44,0,0,1,1.4,1.51,1.28,1.28,0,0,1-.92,1.28c-2.17.59-4.08,1.19-5.71,1.78v4.93a1.39,1.39,0,0,1-1.55,1.28c-.77,0-1.51-.41-1.51-1.25Z"/><path d="M362.53,391.15c-1.4,2.82-5.09,7.45-6.48,7.45a1.79,1.79,0,0,1-1.64-1.72,1.21,1.21,0,0,1,.6-1,28.08,28.08,0,0,0,6.92-7h-5.11a1.13,1.13,0,0,1-1.1-.72,23.54,23.54,0,0,1-2.53,1.16V397c0,2-.74,3-3,3-2.43,0-3.24-.47-3.24-1.69a1.29,1.29,0,0,1,1.13-1.43,1.55,1.55,0,0,1,.33.06,5.91,5.91,0,0,0,1.4.27c.47,0,.53-.27.53-.77v-6.16a16.88,16.88,0,0,1-2,.51,1.65,1.65,0,0,1-1.43-1.66,1.08,1.08,0,0,1,.9-1.11c.86-.17,1.69-.41,2.52-.65v-5.94h-1.75a1.25,1.25,0,0,1-1.22-1.34,1.23,1.23,0,0,1,1.22-1.34h1.75v-4.1a1.44,1.44,0,0,1,2.85,0v4.1h1.55a1,1,0,0,1,.68.21v-2.61a2,2,0,0,1,2-2h13.47a2,2,0,0,1,2,2V379a.77.77,0,0,1-.27.63,1.56,1.56,0,0,1,1,1.36,1.51,1.51,0,0,1-.06.36c-.89,2.91-1.93,3-3.83,3h-1.7a2.74,2.74,0,0,1-3-3v-2.73a1.4,1.4,0,0,1,2.77,0v2.22c0,.51.11.87.65.87h1.19c1,0,1.1-.18,1.37-1.19a1.47,1.47,0,0,1,.23-.54c-.56-.09-1-.41-1-1v-1.6a.32.32,0,0,0-.35-.36H358.45a.32.32,0,0,0-.35.36v1.9c0,.68-.66,1-1.34,1a1.74,1.74,0,0,1-.8-.18,1.24,1.24,0,0,1-1.22,1.28h-1.55v5c.57-.21,1.13-.44,1.67-.68a1.1,1.1,0,0,1,.5-.12.91.91,0,0,1,.84.71,1.32,1.32,0,0,1,.62-.15h5.71v-1.63a1.41,1.41,0,0,1,2.79,0v1.63h6.75a1.33,1.33,0,0,1,0,2.65h-6.28a34.28,34.28,0,0,0,7.35,7,1.16,1.16,0,0,1,.53,1,1.86,1.86,0,0,1-1.66,1.76,1.28,1.28,0,0,1-.81-.33,31.13,31.13,0,0,1-5.88-7.1V399a1.41,1.41,0,0,1-2.79,0Zm-5.92-6.1a.75.75,0,0,1-.24,0,1.76,1.76,0,0,1-1.57-1.75,1.13,1.13,0,0,1,1.07-1.16c3.09-.42,4.22-1.66,4.78-3.95a1,1,0,0,1,1.07-.83,1.53,1.53,0,0,1,1.58,1.33,1,1,0,0,1,0,.3C362.38,382.53,360.36,384.31,356.61,385.05Z"/><path d="M402.53,379.59c-2.32-.06-4.67-.09-7-.12.06,2.17.06,4.34.06,6a8.23,8.23,0,0,1,.54,3.09c0,5.73-2.05,10.19-10.14,11.47l-.29,0a1.69,1.69,0,0,1-1.7-1.69,1.34,1.34,0,0,1,1.22-1.34c4.9-.86,6.93-2.65,7.76-5.08a8,8,0,0,1-4.64,1.37c-4.87,0-7.37-2.41-7.37-5.92s2.79-6.09,7.52-6.09a8,8,0,0,1,4.19,1c0-.89-.06-1.9-.09-2.82h-1.87c-4.34,0-8.71.09-13.17.23h-.05a1.29,1.29,0,0,1-1.19-1.45c0-.69.35-1.4,1.1-1.4,5.11-.06,10.13-.09,15-.09,0-.59-.06-1.19-.12-1.75v-.12c0-.77.75-1.19,1.55-1.19a1.4,1.4,0,0,1,1.54,1.25c0,.56,0,1.19.06,1.78,2.41,0,4.82,0,7.17,0a1.27,1.27,0,0,1,1.21,1.4,1.29,1.29,0,0,1-1.21,1.43ZM388.47,384c-2.91,0-4.58,1.37-4.58,3.45,0,1.6,1.46,3.09,4.37,3.09,2.71,0,4.79-1,4.79-3.59C393.05,385.35,391.35,384,388.47,384Z"/><rect class="cls-3" x="2.06" y="829.31" width="570.6" height="198.13"/><path class="cls-4" d="M92.45,981.78s74.61,50.85-58.14,31.26"/><path class="cls-5" d="M163.82,905.7c-2.4,34.24-32.68,77.86-66.92,75.46S37.43,931.27,39.83,897a62.15,62.15,0,0,1,124,8.67Z"/><polygon class="cls-5" points="95.13 972.6 81.35 987.35 105.55 989.9 95.13 972.6"/><path d="M199.46,921.24a1.26,1.26,0,0,1,0-2.52h8.71a1.26,1.26,0,0,1,0,2.52Zm1.28,18.67a1.52,1.52,0,0,1-1.73-1.73v-5.26a1.52,1.52,0,0,1,1.73-1.72h5.85a1.51,1.51,0,0,1,1.72,1.72v5.26a1.52,1.52,0,0,1-1.72,1.73Zm-.39-22.83a1.26,1.26,0,0,1,0-2.52h6.81a1.26,1.26,0,0,1,0,2.52Zm0,12.49a1.2,1.2,0,0,1-1.19-1.28,1.19,1.19,0,0,1,1.19-1.25h6.81a1.16,1.16,0,0,1,1.18,1.25,1.17,1.17,0,0,1-1.18,1.28Zm0-4.17a1.26,1.26,0,0,1,0-2.52h6.78a1.26,1.26,0,0,1,0,2.52Zm5.26,8.65a.32.32,0,0,0-.36-.35h-3.21a.31.31,0,0,0-.35.35v3a.31.31,0,0,0,.35.35h3.21a.32.32,0,0,0,.36-.35Zm15.25-9.33c-1.49,0-2.17-.86-2.17-2.52v-4.76c0-.18-.06-.21-.3-.21h-4c-.18,0-.24.06-.24.24-.12,3.48-.77,5.79-3.33,7.43a1.32,1.32,0,0,1-.71.21,1.62,1.62,0,0,1-1.52-1.55,1.26,1.26,0,0,1,.6-1c1.93-1.3,2.25-2.43,2.25-6.24a1.59,1.59,0,0,1,1.79-1.72h6.39a1.57,1.57,0,0,1,1.78,1.78v5.11c0,.42.09.6.42.6s.62-.42.8-3.18a1.1,1.1,0,0,1,1.13-1.13,1.33,1.33,0,0,1,1.33,1.36v.15c-.41,3.93-.71,5.47-2.76,5.47Zm-.06,4c0-.11-.06-.2-.24-.2H210.1a1.26,1.26,0,0,1-1.22-1.34,1.24,1.24,0,0,1,1.22-1.34h11.35c1.52,0,2.32.8,2.32,2.08s-1.58,5.62-4.34,8.2a29.57,29.57,0,0,0,4.57,1.49,1.3,1.3,0,0,1,1.07,1.31,1.48,1.48,0,0,1-1.45,1.51,20.87,20.87,0,0,1-6.57-2.52,23.21,23.21,0,0,1-6.86,2.52.51.51,0,0,1-.21,0c-.74,0-1.37-.92-1.37-1.72a1,1,0,0,1,.86-1,24,24,0,0,0,5.12-1.52c-2.47-2.11-4.14-5.2-4.14-5.94a1.42,1.42,0,0,1,1.46-1.28,1,1,0,0,1,.92.54,14.34,14.34,0,0,0,4.22,5.26,10.9,10.9,0,0,0,3.78-6Z"/><path d="M253.58,936.61a1.17,1.17,0,0,1,1.21,1.31,1.61,1.61,0,0,1-1.36,1.72c-2.08.06-4.73.06-7.58.06-4.84,0-8.65-.62-11.92-4.37-1,2.2-2.88,5.14-4,5.14a2.06,2.06,0,0,1-1.81-1.9,1.32,1.32,0,0,1,.35-.86,16.45,16.45,0,0,0,4.31-9.51,1.26,1.26,0,0,1,1.37-1.1,1.47,1.47,0,0,1,1.6,1.31c0,.06,0,.14,0,.21a29.23,29.23,0,0,1-.8,3.89,10.15,10.15,0,0,0,4.88,3.56v-11.2h-7.94a1.37,1.37,0,0,1,0-2.73H251a1.37,1.37,0,0,1,0,2.73h-8.05v3.83h6.86a1.4,1.4,0,0,1,0,2.77h-6.86v5.26a23.52,23.52,0,0,0,2.94.15c2.38,0,3.74,0,7.61-.27Zm-2.5-17.42c0-.29-.33-.44-.62-.44H232.18a.39.39,0,0,0-.45.44v2.14c0,.66-.74,1-1.48,1s-1.49-.35-1.49-1v-3.2A1.92,1.92,0,0,1,230.9,916h8.86v-1.36c0-.62.83-.92,1.66-.92s1.63.3,1.63.92V916h8.86a1.92,1.92,0,0,1,2.14,2.18v3.17c0,.66-.74,1-1.49,1s-1.48-.35-1.48-1Z"/><rect class="cls-3" x="2.06" y="559.58" width="570.6" height="198.13"/><rect class="cls-3" x="32.27" y="569.48" width="133.74" height="178.31"/><path class="cls-4" d="M89.52,715.83s6,13.43-1.62,32"/><path class="cls-6" d="M162.78,637.73c-2.46,35.15-33.54,79.92-68.69,77.46S33,664,35.5,628.83a63.8,63.8,0,0,1,127.28,8.9Z"/><polygon class="cls-6" points="92.28 706.4 78.13 721.55 102.96 724.16 92.28 706.4"/><path d="M202.23,655.9c-.39.87-.91,1.19-1.38,1.19a2.36,2.36,0,0,1-1.95-2.34,1.49,1.49,0,0,1,.32-1c2.81-3.56,4.56-8.28,5.63-13.47a1.56,1.56,0,0,1,1.7-1.19c.95,0,2,.55,2,1.51a1.42,1.42,0,0,1,0,.35,55,55,0,0,1-2.7,8.64v23.5a1.62,1.62,0,0,1-1.78,1.63,1.64,1.64,0,0,1-1.79-1.63Zm21.36,3.93a37.15,37.15,0,0,0,10.23,9.67,1.41,1.41,0,0,1,.68,1.23,2.31,2.31,0,0,1-2.07,2.22c-1.38,0-7.13-5.36-10.22-10.23V673.1a1.67,1.67,0,0,1-1.82,1.59,1.61,1.61,0,0,1-1.75-1.59V662.72c-3.37,5.55-8.64,10.11-9.91,10.11a2.34,2.34,0,0,1-2.06-2.22,1.48,1.48,0,0,1,.68-1.27,34.22,34.22,0,0,0,10.06-9.51h-8.72a1.67,1.67,0,0,1-1.62-1.79,1.64,1.64,0,0,1,1.62-1.78h9.95v-3.13h-6.58a2.52,2.52,0,0,1-2.85-2.85v-7.22a2.52,2.52,0,0,1,2.85-2.85h17.4a2.52,2.52,0,0,1,2.86,2.85v7.22a2.52,2.52,0,0,1-2.86,2.85h-7.25v3.13h10.5a1.62,1.62,0,0,1,1.63,1.78,1.65,1.65,0,0,1-1.63,1.79Zm5.16-15.46a.52.52,0,0,0-.6-.59H213.37a.52.52,0,0,0-.59.59V649a.52.52,0,0,0,.59.59h14.78a.53.53,0,0,0,.6-.59Z"/><path d="M253.51,647.42a35.86,35.86,0,0,1-6.66,8.36v17.36c0,1.11-1,1.63-2,1.63s-2-.52-2-1.63V658.91c-1.47,1-1.94,1.08-2.26,1.08a2.45,2.45,0,0,1-2.22-2.42,1.39,1.39,0,0,1,.68-1.27,30.28,30.28,0,0,0,9.82-8.88h-8a1.71,1.71,0,0,1-1.63-1.86,1.69,1.69,0,0,1,1.63-1.86H251a35.11,35.11,0,0,0,1.54-3.57,1.63,1.63,0,0,1,1.66-1c1.08,0,2.22.63,2.22,1.58a12.09,12.09,0,0,1-1.07,2.94h17a1.66,1.66,0,0,1,1.63,1.86,1.68,1.68,0,0,1-1.63,1.86Zm14.31,21.32c0,4.24-3.09,6-7.93,6h-.67a18.57,18.57,0,0,1-7.06-1.66,1.76,1.76,0,0,1-1.07-1.59,1.91,1.91,0,0,1,1.91-1.9,2.71,2.71,0,0,1,.75.12,19.37,19.37,0,0,0,5.35,1.3h.44c2.57,0,3.92-1,4-2.53v-.28a6.86,6.86,0,0,0-1.71-4.32H249.66a1.79,1.79,0,0,1,0-3.57h8.89a6.08,6.08,0,0,1-.56-.59,1.06,1.06,0,0,1-.28-.76,2.19,2.19,0,0,1,1.47-1.86c2.1-.79,4.36-1.9,6.93-3.17H253.63a1.73,1.73,0,1,1,0-3.45h15.22c2,0,2.93,1.11,2.93,2.3a3,3,0,0,1-1.46,2.46A48.31,48.31,0,0,1,263.1,659c-.47.2-.63.4-.63.6a.3.3,0,0,0,.16.28c.08.08.23.27.32.35h9.58a1.79,1.79,0,0,1,0,3.57h-6.38a8.24,8.24,0,0,1,1.67,4.75Z"/><path d="M288.78,661.21c0,6.54,2.41,8.76,8.64,8.76,5.74,0,9.63-3.68,10.9-10.18a2.12,2.12,0,0,1,2.09-1.87,2.22,2.22,0,0,1,2.23,2.3c0,.56-1.59,13.95-15.22,13.95-8.17,0-12.84-3.28-12.84-12.32,0-.52,0-1,0-1.59.35-7.45.47-11.89.59-19.18a2.23,2.23,0,0,1,4.4.12v.12c-.24,6.9-.59,11.69-.83,18.94Z"/><path d="M335.77,644.13a1.87,1.87,0,0,1,0,3.73c-2.3.2-4.6.36-6.81.47a112.91,112.91,0,0,1-6.66,24.58,2.1,2.1,0,0,1-2,1.42,2.27,2.27,0,0,1-2.3-2.14,2.18,2.18,0,0,1,.19-1,85.59,85.59,0,0,0,6.58-22.71c-1.9.08-3.68.12-5.35.12a1.91,1.91,0,0,1,0-3.81c1.78,0,3.8,0,5.9-.11.2-1.35.32-2.7.48-4.08a1.88,1.88,0,0,1,2-1.43A1.92,1.92,0,0,1,330,641c0,.08,0,.2,0,.32-.12,1.07-.28,2.14-.4,3.17,2-.08,4.08-.24,6-.4Zm15.11,24.93a1.84,1.84,0,0,1,1.82,2,2.2,2.2,0,0,1-2.1,2.3c-1.87.08-3.61.12-5.2.12-10.85,0-15.18-2.22-15.18-9.19v-.68a2.21,2.21,0,0,1,2.19-2.3,1.8,1.8,0,0,1,1.9,1.87c0,4.43,1.62,6.06,10.14,6.06,1.79,0,3.85-.08,6.27-.2Zm-.28-14.66c-2.66-.2-5.59-.36-8.45-.36-1.82,0-3.64,0-5.34.2h-.16a1.94,1.94,0,0,1-1.83-2.1,1.75,1.75,0,0,1,1.63-1.86c1.9-.16,3.88-.24,5.86-.24,2.94,0,5.87.16,8.48.39a1.8,1.8,0,0,1,1.67,1.91,1.89,1.89,0,0,1-1.74,2.06Z"/><path d="M358,673.26a2.52,2.52,0,0,1-2.5-2.37,2.32,2.32,0,0,1,.52-1.43c5.59-7.41,9-15.58,11.14-26.2a1.91,1.91,0,0,1,2-1.51,2.07,2.07,0,0,1,2.26,1.87,1.29,1.29,0,0,1,0,.39,75.34,75.34,0,0,1-11.54,28.18A2.2,2.2,0,0,1,358,673.26Zm33.21.28a2.25,2.25,0,0,1-2.18-1.78c-3.6-11.81-6.5-18.87-10.82-27.07a1.69,1.69,0,0,1-.23-1,2.2,2.2,0,0,1,2.29-2,1.85,1.85,0,0,1,1.71,1,177.56,177.56,0,0,1,11.57,27.62,2.92,2.92,0,0,1,.12.79A2.42,2.42,0,0,1,391.17,673.54ZM388.6,647.3a1.4,1.4,0,0,1-1.15-.67,24.89,24.89,0,0,0-2.9-3.57,1.31,1.31,0,0,1-.43-.95,1.45,1.45,0,0,1,1.47-1.39,1.59,1.59,0,0,1,1.06.48c1.31,1.27,3.49,3.64,3.49,4.6A1.56,1.56,0,0,1,388.6,647.3Zm3.92-2.22a1.31,1.31,0,0,1-1.11-.59,24.53,24.53,0,0,0-2.89-3.25,1.3,1.3,0,0,1-.44-1,1.36,1.36,0,0,1,1.39-1.27,1.45,1.45,0,0,1,1,.43c.4.4,3.41,3.18,3.41,4.29A1.43,1.43,0,0,1,392.52,645.08Z"/><path d="M404.4,641.75a2.18,2.18,0,0,1,4.32,0v13.4c0,8-2.22,14.7-8.56,18.71a2.6,2.6,0,0,1-1.31.43,2.5,2.5,0,0,1-2.34-2.49,1.92,1.92,0,0,1,1-1.67c4.95-3.29,6.93-8.44,6.93-15Zm9.75-.11a2.18,2.18,0,0,1,4.32,0v25.6c0,.55.24.83.6.83a1.11,1.11,0,0,0,.35-.08c4.88-2.26,8.05-6.06,10.11-11.13a2.15,2.15,0,0,1,2-1.55,2.33,2.33,0,0,1,2.22,2.38c0,1.11-3.25,10.34-13.51,15.1a5.79,5.79,0,0,1-2.3.51c-2.14,0-3.77-1.5-3.77-4.28Z"/><path d="M440.78,658.88A2,2,0,0,1,439,656.7a2,2,0,0,1,1.83-2.18H468a2,2,0,0,1,1.79,2.18c0,1.11-.6,2.18-1.79,2.18Z"/><path d="M490,651.23a68.45,68.45,0,0,0-10.3-5.75,1.9,1.9,0,0,1-1.23-1.74,2.35,2.35,0,0,1,2.26-2.34c1.15,0,8,3.37,11.57,5.82a2.21,2.21,0,0,1,1.07,1.83,2.6,2.6,0,0,1-2.37,2.49A1.63,1.63,0,0,1,490,651.23Zm-8.64,22.9a1.83,1.83,0,0,1-.47,0,2.39,2.39,0,0,1-2.38-2.45,2,2,0,0,1,1.7-2c15.31-2.62,23.23-9,26.92-20.65a1.91,1.91,0,0,1,1.9-1.31,2.15,2.15,0,0,1,2.3,2.06,3.74,3.74,0,0,1-.08.63C508.07,662.25,498,671.72,481.31,674.13Z"/><path class="cls-7" d="M843.58,1h802.35a0,0,0,0,1,0,0V280.88a5,5,0,0,1-5,5H848.58a5,5,0,0,1-5-5V1A0,0,0,0,1,843.58,1Z"/><path d="M925.79,13.39a29.4,29.4,0,0,0,8.07,8.39A37.1,37.1,0,0,0,943.07,27a8,8,0,0,0-1.61,2.52,53,53,0,0,1-9.49-5.9,35.41,35.41,0,0,1-7.64-7.92,41.08,41.08,0,0,1-7.84,8.19,44.29,44.29,0,0,1-8.81,5.48A9.13,9.13,0,0,0,906,27.09a41.5,41.5,0,0,0,11-7,28.76,28.76,0,0,0,5.75-6.65Zm13,21.06c-.47.48-1.18,1.23-1.61,1.78l-7.84,9.6c-1.06,1.34-1.85,2.37-2.64,3.55l-2.79-1.66a27.4,27.4,0,0,0,3.11-3.22l7.72-9.3h-19.5c-1.49,0-2.91.08-4.56.24V32.53a43.45,43.45,0,0,0,4.56.23H932.8a25.29,25.29,0,0,0,4.41-.2Zm-22.68-9.17a20.53,20.53,0,0,0,3.11.16h10.36a23.74,23.74,0,0,0,3.3-.16V28a26.11,26.11,0,0,0-3.38-.16H919.29a21.74,21.74,0,0,0-3.15.16Z"/><path d="M953.87,17.68a24.5,24.5,0,0,0-.24-3.74h2.76a25,25,0,0,0-.2,3.78v.71h7.24v-.75a23.74,23.74,0,0,0-.19-3.74H966a24.71,24.71,0,0,0-.23,3.78v.71a16.55,16.55,0,0,0,3.27-.24v2.52a21.6,21.6,0,0,0-3.27-.16V37.37a19.06,19.06,0,0,0,3.11-.2v2.44c-.91-.08-2.05-.12-3.58-.12H952.8a16.34,16.34,0,0,0-3.19.2V37.17a15.88,15.88,0,0,0,3.15.2h1.11V20.55h-.24a17.67,17.67,0,0,0-3.39.2V18.19a16.37,16.37,0,0,0,3.39.24h.24Zm4,24.41a22.41,22.41,0,0,1-6.14,6.82A5.51,5.51,0,0,0,950,47a15.65,15.65,0,0,0,5.9-6.15Zm5.51-17.44v-4.1h-7.24v4.1Zm0,6.14V26.66h-7.24v4.13Zm0,6.58V32.8h-7.24v4.57Zm-.59,3.46a14.62,14.62,0,0,0,3.86,4.06,8,8,0,0,0-1.81,1.69,19.9,19.9,0,0,1-3.82-4.53Zm10-4.49c-.51,5.79-1.61,8.86-4.6,12.76a6.4,6.4,0,0,0-1.93-1.81,15.29,15.29,0,0,0,3.9-8.9,178.14,178.14,0,0,0,.67-18.27,39,39,0,0,0-.16-4.64,33.9,33.9,0,0,0,3.78.15H980a32.65,32.65,0,0,0,3.74-.15,31,31,0,0,0-.15,3.81V45.83c0,1.34-.36,2.17-1.07,2.56a7.52,7.52,0,0,1-3.19.44c-.55,0-1,0-3.11-.16a10.43,10.43,0,0,0-.63-2.8,21.43,21.43,0,0,0,4.33.52c1,0,1.26-.24,1.26-.87V36.34Zm.36-9.41c-.08,3.86-.08,4.69-.24,7.21h8.15V26.93Zm7.91-9.09h-7.87v6.89h7.87Z"/><path d="M1008.72,35.75c-2.28,5.2-4.61,7.56-7.44,7.56-3.74,0-6.54-4.09-6.54-9.6a16.37,16.37,0,0,1,4.14-10.87c3.15-3.47,7.44-5.24,12.71-5.24,4.42,0,8.27,1.38,10.83,3.9a13.19,13.19,0,0,1,3.82,9.61,14.32,14.32,0,0,1-9,13.58,30.13,30.13,0,0,1-6,1.81,6.13,6.13,0,0,0-1.38-2.63,23.68,23.68,0,0,0,6.58-1.86,11.88,11.88,0,0,0,7-11,10.38,10.38,0,0,0-6.26-9.88,11.37,11.37,0,0,0-4.57-1A59,59,0,0,1,1008.72,35.75ZM1003.88,22a13.61,13.61,0,0,0-6.42,11.74c0,3.78,1.65,6.69,3.78,6.69,1.65,0,3.23-1.85,4.92-5.71a53.8,53.8,0,0,0,3.58-14.57A12.47,12.47,0,0,0,1003.88,22Z"/><path d="M1045.34,47.45a25.77,25.77,0,0,0,.24-4.14V18.86a22.64,22.64,0,0,0-.24-4h3.39a22,22,0,0,0-.2,4.09V26.3a103.33,103.33,0,0,1,17.52,8.31l-1.69,2.92a81.12,81.12,0,0,0-14.69-7.8,5.1,5.1,0,0,1-1.22-.67l-.07,0a14.09,14.09,0,0,1,.15,2.32V43.27a24,24,0,0,0,.2,4.18Zm15.12-31a29.7,29.7,0,0,1,4.06,6.1l-2,1.18a28.82,28.82,0,0,0-4.06-6.26Zm4.45-2.17A33.06,33.06,0,0,1,1069,20.4l-2,1.14a28.67,28.67,0,0,0-4-6.22Z"/><path d="M1082.05,25.56a29.16,29.16,0,0,0,4.6.23h20.2a6.8,6.8,0,0,0,2.56-.27l1.46,1.69a11.23,11.23,0,0,0-1.1,2.48c-3.35,9.17-8.79,14.22-19,17.64a8.76,8.76,0,0,0-1.7-2.72c5.28-1.49,8.75-3.26,11.7-6,2.79-2.56,4.57-5.47,6.38-10.32h-20.56a35.54,35.54,0,0,0-4.56.2Zm3.38-9.14a17.81,17.81,0,0,0,4.14.28h13.15a17.77,17.77,0,0,0,4.13-.28v3a26.09,26.09,0,0,0-4.09-.19h-13.23a26.16,26.16,0,0,0-4.1.19Z"/><path d="M1130.84,27.92a85.13,85.13,0,0,1,8,7.44c1.69-1.42,3.78-3.31,5.24-4.84a57.78,57.78,0,0,0,6.49-8.55c.12-.19.16-.23.32-.47-.55,0-.55,0-22.49.08-2.12,0-3.22,0-4.56.16V18.63a29.54,29.54,0,0,0,4.6.23h23a4.94,4.94,0,0,0,2.21-.27l1.65,2a11.81,11.81,0,0,0-1.58,2.09,60,60,0,0,1-13,14.77c1.5,1.61,3.11,3.66,5.75,7.16l-2.4,2a74.51,74.51,0,0,0-15.36-16.93Z"/><path d="M1173,15.83c-1.69,3.94-3,12-3,18.47,0,1.38.08,3.7.16,5.51,0,.31,0,.39,0,1.1v.75l.15,0a35.1,35.1,0,0,1,2.33-6.93A6,6,0,0,0,1173,34l1.93.91c-1.85,3.86-3.39,8.86-3.39,11.18a4.21,4.21,0,0,0,.08.79l-2.79.27c0-.35-.08-.55-.24-1.45a62.68,62.68,0,0,1-1.1-11.7,66.46,66.46,0,0,1,2-16.18,18.75,18.75,0,0,0,.43-2.48Zm4,7.32a26.93,26.93,0,0,0,7.09.63c1.53,0,2.59,0,4.21-.11,0-3.71,0-3.71,0-6.7a8.52,8.52,0,0,0-.12-1.61h3a39.59,39.59,0,0,0-.28,6.18c0,.43,0,1.06,0,1.93a27.1,27.1,0,0,0,6.81-1.46l.12,2.68c-.08,0-.08,0-2.76.55a37.3,37.3,0,0,1-4.17.63c0,3.9.12,5.91.43,11.14a28.44,28.44,0,0,1,6.58,3.86c.47.32.55.4,1,.67l-1.22,2.76a21.26,21.26,0,0,0-5.59-4.1,2.7,2.7,0,0,1-.39-.23,2.81,2.81,0,0,0-.36-.24,5.55,5.55,0,0,1,.08,1,6.88,6.88,0,0,1-.47,2.68c-1,2.09-3.35,3.31-6.58,3.31-4.57,0-7.44-2.17-7.44-5.59,0-3.27,3.11-5.59,7.48-5.59a11.14,11.14,0,0,1,4.37.78c-.12-.82-.27-4.52-.39-10.27-1.77.08-3,.12-4.49.12s-3.07,0-4.45-.12a10.15,10.15,0,0,0-1.26-.08,5.72,5.72,0,0,0-.67,0,1.76,1.76,0,0,0-.39,0h-.16Zm7.56,14.77c-3.07,0-5.08,1.3-5.08,3.27s1.81,3.19,4.57,3.19a5.4,5.4,0,0,0,4-1.38,4.56,4.56,0,0,0,.75-3.07c0-.28,0-1.18,0-1.18A10.16,10.16,0,0,0,1184.55,37.92Z"/><path d="M1219.32,46.15a16.38,16.38,0,0,0-2.13-2.95l2.25-.87a22.65,22.65,0,0,1,2.32,3.82h7a15,15,0,0,0,2.13-3.82l2.32.91a21,21,0,0,1-1.89,2.91h7.17a28.74,28.74,0,0,0,4.13-.24v2.64a24.07,24.07,0,0,0-4.13-.27H1212a26.23,26.23,0,0,0-4.34.27V45.91a32.56,32.56,0,0,0,4.34.24Zm22.84-13.35a31.71,31.71,0,0,0-4.37-.24h-25.44a29.58,29.58,0,0,0-4.21.24V30.24a22.87,22.87,0,0,0,4.21.28h25.44a24.56,24.56,0,0,0,4.37-.28Zm-6.85-16.73a32.52,32.52,0,0,0,4.29-.2,20.45,20.45,0,0,0-.16,3.11v6.14a20,20,0,0,0,.16,3.11c-1.34-.11-2.28-.15-4.17-.15h-20.36a36.63,36.63,0,0,0-4.18.15,20.37,20.37,0,0,0,.16-3.11V19a21.39,21.39,0,0,0-.16-3.11,32.4,32.4,0,0,0,4.26.2h4.45a14,14,0,0,0-.24-3.19h2.8a13.33,13.33,0,0,0-.28,3v.2h6.26a14,14,0,0,0-.24-3.19h2.8a14.76,14.76,0,0,0-.28,3.19Zm-22.53,21.34a14.86,14.86,0,0,0-.19-2.76,37.17,37.17,0,0,0,4.57.2H1233a36.27,36.27,0,0,0,4.49-.2,14.34,14.34,0,0,0-.19,2.76v2.16a14.87,14.87,0,0,0,.19,2.72c-1.34-.12-2.6-.16-4.41-.16h-16a41.26,41.26,0,0,0-4.49.16,15.14,15.14,0,0,0,.19-2.72Zm.63-19.41v3h6.19V18Zm0,4.84v3.38h6.19V22.84Zm1.89,17.36h19.54V36.78H1215.3ZM1221.88,21h6.26V18h-6.26Zm0,5.19h6.26V22.84h-6.26Zm8.54-5.19h6.66V18h-6.66Zm0,5.19h6.66V22.84h-6.66Z"/><path d="M1262.32,14.1c-.47,1.06-.59,1.41-.9,2.2a51.47,51.47,0,0,1-2.92,6.54V44.38a32.63,32.63,0,0,0,.28,4.72h-3.07a36.63,36.63,0,0,0,.27-4.8V31.23c0-1.7,0-2.76.16-5.08a29.73,29.73,0,0,1-4.88,6.22,7.81,7.81,0,0,0-1.66-2.09,34.05,34.05,0,0,0,8.31-11.81,20.91,20.91,0,0,0,1.66-5.28Zm6,7.75a44,44,0,0,1-6.26,9.61,5.77,5.77,0,0,0-2-1.89,34.06,34.06,0,0,0,7-10.79,21.84,21.84,0,0,0,1.65-5.59l2.76.91a17.26,17.26,0,0,0-.79,2c-.55,1.61-.75,2.12-1.34,3.5h12.48a18.81,18.81,0,0,0,3.59-.24v2.68a21.5,21.5,0,0,0-3.59-.2h-9.25v6.38h8a23.14,23.14,0,0,0,3.47-.23v2.71a25.59,25.59,0,0,0-3.47-.23h-8v6.38h8.11a22.22,22.22,0,0,0,3.47-.24v2.72a22.22,22.22,0,0,0-3.47-.24h-8.11v6a21.15,21.15,0,0,0,.28,4.13h-3a24.33,24.33,0,0,0,.24-4.13V21.85Z"/><path d="M921,166.39c3.39,3,5.63,8.93,5.63,15,0,2.52-.39,4.33-1.14,5.23s-1.73,1.22-3.66,1.22c-1.22,0-2.87-.11-4.65-.27a7,7,0,0,0-.63-2.64,26.51,26.51,0,0,0,5.08.59c2,0,2.56-.94,2.56-4.72a26.67,26.67,0,0,0-.15-3c-4.18,3.43-9.38,6-16.62,8.39a9.82,9.82,0,0,0-1.54-2.2,43.81,43.81,0,0,0,17.68-8.63,17.14,17.14,0,0,0-1.1-3.31,50.52,50.52,0,0,1-14.73,6.7,7.37,7.37,0,0,0-1.45-2.17,47.62,47.62,0,0,0,9-3,32.54,32.54,0,0,0,6.15-3.43,10.72,10.72,0,0,0-2.29-2.75,44.15,44.15,0,0,1-10.51,4,7.82,7.82,0,0,0-1.46-2.08c6.15-1.34,10-2.84,13.74-5.4h-5.78a36.79,36.79,0,0,0-3.82.2v-2.52a23.09,23.09,0,0,0,3.82.24H931.8a19.17,19.17,0,0,0,3.86-.24v2.52a36.4,36.4,0,0,0-3.86-.2h-4.25a35,35,0,0,0,2.36,7.37c2.8-2.05,5.2-4.41,6-5.87l2.2,1.81c-.86.71-.86.71-2.36,2.13a47.36,47.36,0,0,1-4.8,4c2.48,4.37,5.39,7.17,10.39,10.08a12.27,12.27,0,0,0-1.93,2.21,33.4,33.4,0,0,1-6.38-5.47,33,33,0,0,1-6.73-12.45c-.32-1-.47-1.65-1-3.78h-1.18a21,21,0,0,1-2.83,2.13Zm.79-11.5a10.61,10.61,0,0,0-.27-2.44h3.07a12.13,12.13,0,0,0-.24,2.4v1.26H936a38.13,38.13,0,0,0,4-.16,15.44,15.44,0,0,0-.15,2.6V161a16.79,16.79,0,0,0,.15,2.68h-2.56v-5.4H909.59v5.4H907a18.17,18.17,0,0,0,.16-2.72v-2.4A16.85,16.85,0,0,0,907,156a37.64,37.64,0,0,0,3.94.16H921.8Z"/><path d="M984.21,162.13a20.29,20.29,0,0,0-3.62-.19,32.86,32.86,0,0,1-2.36,10.39,26.23,26.23,0,0,1-2.87,5.36,27.09,27.09,0,0,0,9.56,7.83,8,8,0,0,0-1.65,2.44,31.27,31.27,0,0,1-9.41-8.34C971,183,968.15,185.17,963,188a7.14,7.14,0,0,0-1.77-2.2,29.43,29.43,0,0,0,11.18-8.19,30.62,30.62,0,0,1-4.17-10,30.16,30.16,0,0,1-2.56,4.48,6.6,6.6,0,0,0-1.89-1.61c.39-.47.51-.63.83-1.06a21.27,21.27,0,0,0-3.51-.16h-1.65v10.63c2.32-.79,3.42-1.18,6.38-2.36l0,2.44a107.7,107.7,0,0,1-11.22,3.86c-3.07.83-5,1.34-5.82,1.65l-.71-2.83a16.46,16.46,0,0,0,3-.44V168.67a26.46,26.46,0,0,0-.2-3.9h2.72a27.82,27.82,0,0,0-.2,3.86v13c1-.23,2.21-.59,3.67-1V158.39H953a25,25,0,0,0-3.54.24v-2.8a24.2,24.2,0,0,0,3.62.24h9.53a21.13,21.13,0,0,0,3.54-.2v2.72a19.31,19.31,0,0,0-3.27-.2h-3.34V167h1.65a21.64,21.64,0,0,0,3.54-.16v2.52a34.85,34.85,0,0,0,4.41-11.3,34,34,0,0,0,1-5.95l2.76.55c-.24.79-.24.79-1.27,5.16-.19.75-.31,1.22-.51,1.93h9.37a20.75,20.75,0,0,0,3.74-.24Zm-13.78-.19c-.35,1.1-.47,1.53-.86,2.52a31.81,31.81,0,0,0,4.29,11.1,29.26,29.26,0,0,0,4.25-13.62Z"/><path d="M1010.8,171.43A20.69,20.69,0,0,0,1015,178a28.17,28.17,0,0,0,11.85,7.17,9.63,9.63,0,0,0-1.61,2.56,29,29,0,0,1-12.21-8.39,22.08,22.08,0,0,1-4-6.89,19.31,19.31,0,0,1-4.89,8.39,29.64,29.64,0,0,1-10.55,6.93,7.33,7.33,0,0,0-1.73-2.37,27.34,27.34,0,0,0,9.76-5.63,16.83,16.83,0,0,0,5.16-8.38h-10a36.91,36.91,0,0,0-4.29.23v-2.83a29,29,0,0,0,4.29.27h10.43a61,61,0,0,0,.52-7.64h-8.78a35.43,35.43,0,0,0-4.34.24v-2.8a27.9,27.9,0,0,0,4.34.28h8.82c0-1.1,0-1.54,0-2.36a26.69,26.69,0,0,0-.23-4h3.07c-.2,1.18-.2,1.18-.32,6.34h9.46a25.13,25.13,0,0,0,4.45-.28v2.8a32,32,0,0,0-4.45-.24h-9.53c0,.75,0,1.34,0,1.7a42.64,42.64,0,0,1-.48,5.94h12a26.5,26.5,0,0,0,4.45-.27v2.83a34.08,34.08,0,0,0-4.45-.23Z"/><path d="M1038.25,161.58a16.94,16.94,0,0,0,3,.2A92.23,92.23,0,0,0,1053,161c-.59-1.34-1.22-2.91-1.93-4.68-.43-1-.67-1.58-1-2.29l3.11-.43a12.8,12.8,0,0,0,1.14,3.54,32.5,32.5,0,0,0,1.42,3.47,46.52,46.52,0,0,0,9.53-2.48l.39,2.79c-.83.16-1.14.24-2.32.55a54.36,54.36,0,0,1-5.32,1.22l-1.34.28a72.84,72.84,0,0,0,7.09,11.46l-2.64,1.49a7.86,7.86,0,0,0-2.71-1.61,21.36,21.36,0,0,0-6.89-1c-3.31,0-5.71.55-7.49,1.65a4.46,4.46,0,0,0-2.12,3.66,3.93,3.93,0,0,0,1.49,3.07c1.46,1.15,4.3,1.82,7.68,1.82a26.09,26.09,0,0,0,11.19-2.52l.43,3a32.81,32.81,0,0,1-11.58,2.12c-4.8,0-8.43-1.06-10.24-2.95a6.36,6.36,0,0,1-1.77-4.33,7.36,7.36,0,0,1,4.45-6.42,16.8,16.8,0,0,1,7.64-1.46c3.39,0,6.5.55,8.15,1.42a47.27,47.27,0,0,1-4.72-7.72c-.44-.82-.44-.9-.67-1.3a114.36,114.36,0,0,1-14,1,8.6,8.6,0,0,0-1.54.12Z"/><path d="M1093.49,154.61c-.51.95-.51.95-4.37,10.83a68.07,68.07,0,0,1-2.83,6.5l-.44.86c-.15.28-.19.36-.35.71l.2.08c2.6-3.74,4.6-5.16,7.4-5.16a4.38,4.38,0,0,1,3.94,2.33,9.94,9.94,0,0,1,.67,4.45v2.67c0,2.05.15,3,.63,3.74a3.65,3.65,0,0,0,3,1.22c2.8,0,4.84-1.61,6.3-4.92a17.22,17.22,0,0,0,1.5-5.59,11,11,0,0,0,2.59,2,21.12,21.12,0,0,1-2.79,6.93,9.16,9.16,0,0,1-7.84,4.29c-2.91,0-5-1.3-5.75-3.54a16.6,16.6,0,0,1-.35-4.25v-2.25a8.37,8.37,0,0,0-.32-3,2.1,2.1,0,0,0-2.24-1.46c-2.28,0-4.84,2.09-7,5.83a40,40,0,0,0-3.62,9.06l-3-1c.51-1.1.51-1.1,6.18-16.22,4.29-11.38,5.16-13.86,5.39-15Z"/><path d="M1133.62,153.78a69.39,69.39,0,0,0,3,13c2.33-.95,3.43-1.38,9.53-3.51a21.06,21.06,0,0,0,2.52-1l1.19,3A90.24,90.24,0,0,0,1138,169.1c-6.73,2.68-9.64,5.28-9.64,8.55,0,3.58,3,5,10.75,5,4.52,0,8.93-.51,11.26-1.34l.31,3.27a20.85,20.85,0,0,0-2.91.23,77.87,77.87,0,0,1-8.7.52,26.7,26.7,0,0,1-8.74-1.07c-3.23-1.18-4.89-3.34-4.89-6.45a8.52,8.52,0,0,1,3.51-6.7,24.3,24.3,0,0,1,5.15-3.19,80.06,80.06,0,0,1-2.87-11,12.37,12.37,0,0,0-.67-2.48Z"/><path d="M1179.18,174.81c-2.28,5.2-4.6,7.56-7.44,7.56-3.74,0-6.54-4.09-6.54-9.61a16.36,16.36,0,0,1,4.14-10.86c3.15-3.47,7.44-5.24,12.72-5.24,4.41,0,8.27,1.38,10.83,3.9a13.19,13.19,0,0,1,3.82,9.61,14.34,14.34,0,0,1-9,13.58,30.25,30.25,0,0,1-6,1.81,6.23,6.23,0,0,0-1.38-2.64,23.36,23.36,0,0,0,6.58-1.85,11.89,11.89,0,0,0,7-11,10.39,10.39,0,0,0-6.26-9.89,11.37,11.37,0,0,0-4.57-1A58.66,58.66,0,0,1,1179.18,174.81Zm-4.84-13.74a13.61,13.61,0,0,0-6.42,11.73c0,3.78,1.66,6.7,3.78,6.7,1.66,0,3.23-1.85,4.92-5.71a53.8,53.8,0,0,0,3.59-14.57A12.48,12.48,0,0,0,1174.34,161.07Z"/><path d="M1205.84,184.58a19.48,19.48,0,0,0,3.31-5,22.3,22.3,0,0,0,1.81-5.08l2.25.94a28.11,28.11,0,0,1-5.32,10.83Zm10-23.12a22.64,22.64,0,0,1-7.45,9.06,9.17,9.17,0,0,0-1.89-1.85,16.19,16.19,0,0,0,4.26-3.47,16,16,0,0,0,2.83-4.64Zm-4.93-2.48a28.88,28.88,0,0,0-4.21.2v-2.6a27.32,27.32,0,0,0,4.25.24h11.54v-1.38a14.69,14.69,0,0,0-.24-2.8h3a14.39,14.39,0,0,0-.24,2.8v1.38H1237a26.53,26.53,0,0,0,4.25-.24v2.6a33.27,33.27,0,0,0-4.29-.2h-7.4v10c0,2-.75,2.6-3.19,2.6-1,0-2.17,0-3.5-.15a8.71,8.71,0,0,0-.64-2.37,27.61,27.61,0,0,0,3.82.32c.91,0,1.11-.2,1.11-.91V159h-5c-.16,3.78-.56,5.75-1.46,7.8-1.26,2.87-3,4.57-6.81,6.5a7.06,7.06,0,0,0-1.89-1.89c3.7-1.58,5.59-3.23,6.69-6a17.21,17.21,0,0,0,1-6.42Zm8,24.3c0,1.57.51,1.73,5.23,1.73,4.3,0,5.91-.2,6.54-.75.47-.39.71-1.73.83-4.68a7.76,7.76,0,0,0,2.44,1c-.39,3.86-.75,4.92-1.77,5.71s-3.15,1-8.43,1c-6.14,0-7.32-.55-7.32-3.5V177.8a26.3,26.3,0,0,0-.24-3.62h3a18.59,18.59,0,0,0-.23,3.62Zm8.34-2.21a32.21,32.21,0,0,0-5.71-6.53l1.82-1.38a35,35,0,0,1,5.82,6.22Zm6-20.32a60,60,0,0,1,7.32,8.12l-2.12,1.73a35.78,35.78,0,0,0-7-8.51Zm6.06,25.13a38.66,38.66,0,0,0-6.37-10.52l2-1.26a48.87,48.87,0,0,1,6.62,10.08Z"/><path d="M1276.73,175.8a3.82,3.82,0,0,0-.64.59,28.86,28.86,0,0,1-7.08,5.9,42.84,42.84,0,0,0,15.47,3.43,7.19,7.19,0,0,0-1.14,2.52,52.4,52.4,0,0,1-9-1.65,34.67,34.67,0,0,1-7.68-3,49.91,49.91,0,0,1-16,4.77,6.51,6.51,0,0,0-1.34-2.33,48,48,0,0,0,15-3.78,25.42,25.42,0,0,1-5.63-4.72,29.49,29.49,0,0,1-7.48,4.68,5.89,5.89,0,0,0-1.66-1.89c4-1.77,5.75-2.75,8-4.68a19.57,19.57,0,0,0,3.74-4c-1.62-.2-2.05-.59-2.05-1.89v-3a15.35,15.35,0,0,0-.2-2.84h2.64a12.78,12.78,0,0,0-.2,2.6V169c0,.36.08.48.44.59a21.77,21.77,0,0,0,3.86.2c4,0,5.67-.08,6.14-.35.63-.28.86-1,1.14-2.84a5.55,5.55,0,0,0,2.09,1.1c-1,4-1.1,4.1-8.55,4.1-1.38,0-1.73,0-2.71,0-1.15,1.54-1.46,1.89-2.09,2.64h9.84a17.8,17.8,0,0,0,3.47-.2Zm-19.62-15.4a18.43,18.43,0,0,0-1.65-3.43l-3.54.08a7.9,7.9,0,0,0-1-2.16H1253a175.64,175.64,0,0,0,19.22-1.14,32.51,32.51,0,0,0,7.71-1.54l1.89,2.24c-2.79.52-4.64.83-5.51,1l2.21.63c-1.46,2.68-1.74,3.15-2.52,4.37h3.11a42.57,42.57,0,0,0,4.45-.16,22.4,22.4,0,0,0-.16,3v2.28a16,16,0,0,0,.2,2.48h-2.56v-5.47h-28.51v5.59H1250a21,21,0,0,0,.19-2.8v-2.16a23.4,23.4,0,0,0-.15-2.92,36.68,36.68,0,0,0,4.84.2Zm-6.18,11.42a13.82,13.82,0,0,0,4.81-7l2,1a21.61,21.61,0,0,1-5.08,7.76Zm15.24-11.42a19.52,19.52,0,0,0-1.73-3.82c-2.91.16-5,.28-6.73.32a20.38,20.38,0,0,1,1.73,3.5Zm-5.63,15.95a21.68,21.68,0,0,0,6.1,4.8,21.83,21.83,0,0,0,6.3-4.8Zm8.35-8a24.14,24.14,0,0,0-5.08-3.89l1.38-1.46a30,30,0,0,1,5.27,3.7Zm4.68-7.95a19,19,0,0,0,2.48-5c-3,.43-5.35.67-9.33,1a24,24,0,0,1,1.74,4Zm7,12.84a31,31,0,0,0-5.9-7.56l1.77-1.22a42.55,42.55,0,0,1,6.1,7.28Z"/><path d="M1295.27,169.38a26.08,26.08,0,0,0,7,1.57c.2-1.93.59-5,.91-7.08a53.59,53.59,0,0,1-5.87-1.07c-.51-.12-.67-.16-1.22-.27l.35-2.6a25.29,25.29,0,0,0,7.09,1.53,62.47,62.47,0,0,0,1-7.4v-.31l3.15.35a18.82,18.82,0,0,0-.63,2.64c0,.35,0,.35-.4,2.52-.11.86-.19,1.26-.39,2.36,1.1,0,1.65,0,2.28,0a32.12,32.12,0,0,0,7.21-.67l-.12,2.72c-.79.08-.79.08-2.75.23-1.23.12-2.41.16-3.55.16-.63,0-1.3,0-3.46-.08-.63,4.53-.67,4.92-.91,7.13,1.5,0,2,0,2.6,0a34.63,34.63,0,0,0,7.24-.63l-.07,2.64c-.4,0-.52,0-1.07.08a46.68,46.68,0,0,1-5.55.31c-1,0-1.61,0-3.39-.08,0,.28,0,.28,0,.79-.08.95-.16,2.24-.16,2.91a5.81,5.81,0,0,0,1.81,4.73,8.29,8.29,0,0,0,5.55,1.69c5.28,0,8.7-2.71,8.7-6.89,0-2.48-1.22-4.68-3.74-6.85a8,8,0,0,0,2.88-.79c2.79,3,3.7,5,3.7,7.84,0,5.55-4.65,9.29-11.54,9.29-4.13,0-7.28-1.42-8.82-3.94a10.65,10.65,0,0,1-1.22-5.43,20.55,20.55,0,0,1,.16-2.6c0-.59,0-.59.08-.94a42.27,42.27,0,0,1-5.95-1,4.06,4.06,0,0,0-1.22-.24Z"/><path d="M1350.88,174.81c-2.29,5.2-4.61,7.56-7.45,7.56-3.74,0-6.53-4.09-6.53-9.61A16.35,16.35,0,0,1,1341,161.9c3.15-3.47,7.44-5.24,12.72-5.24,4.41,0,8.27,1.38,10.83,3.9a13.19,13.19,0,0,1,3.82,9.61,14.34,14.34,0,0,1-9,13.58,30.34,30.34,0,0,1-6,1.81,6.34,6.34,0,0,0-1.38-2.64,23.39,23.39,0,0,0,6.57-1.85,11.89,11.89,0,0,0,7-11,10.39,10.39,0,0,0-6.26-9.89,11.34,11.34,0,0,0-4.57-1A59.05,59.05,0,0,1,1350.88,174.81ZM1346,161.07a13.63,13.63,0,0,0-6.42,11.73c0,3.78,1.66,6.7,3.78,6.7,1.66,0,3.23-1.85,4.93-5.71a54.18,54.18,0,0,0,3.58-14.57A12.51,12.51,0,0,0,1346,161.07Z"/><path d="M1386.59,155.2a16.41,16.41,0,0,0,.75,2.4c.79,2.33,1.18,3.43,1.73,5.2a70.76,70.76,0,0,1,8.47-2.2,53.69,53.69,0,0,0-.16-7h3a36.46,36.46,0,0,0-.2,5.31s0,.79,0,1.26a20.82,20.82,0,0,1,3-.23c5.28,0,8.66,2.83,8.66,7.24,0,4.73-3.85,8.11-9.25,8.11a16.72,16.72,0,0,1-6.65-1.45c0-.32,0-.59,0-.71a16.49,16.49,0,0,0-.23-2.25,13.41,13.41,0,0,0,6.61,1.82,8,8,0,0,0,4.73-1.54,4.78,4.78,0,0,0,1.89-4c0-3-2.32-4.76-6.3-4.76-2.87,0-7.13.94-12.84,2.79,2,6.7,3.43,12.25,5.08,19.65a14,14,0,0,0,.51,1.7l-3.18.7c-.2-3.22-2.41-12.71-5-21.26a15.56,15.56,0,0,1-2.12.71,36.76,36.76,0,0,0-5.4,2.17l-1-2.8a45.06,45.06,0,0,0,5.79-1.85c1-.35,1.37-.43,2-.63a39.9,39.9,0,0,0-2.84-7.48Z"/><path d="M1434.4,157.25a15.1,15.1,0,0,0-.51,2.68c-1.66,11.22-4.77,18.62-10.4,24.57a8.66,8.66,0,0,0-2.52-2.05,25.22,25.22,0,0,0,5.71-7.8,45.53,45.53,0,0,0,4.06-13.66,32.28,32.28,0,0,0,.39-3.7,4.3,4.3,0,0,0,0-.63Zm10.91-.59a49,49,0,0,0,1.81,9.45c1.93,7,4.92,12.44,8.94,16.26a9,9,0,0,0-2.44,2.21,36.8,36.8,0,0,1-6.58-10.24,57.94,57.94,0,0,1-4.14-14.49,17,17,0,0,0-.51-2.6Z"/><path d="M1465.12,168.55a27.36,27.36,0,0,0,4.88.24h22.88a30.53,30.53,0,0,0,4.76-.2v3.19a44.24,44.24,0,0,0-4.8-.16H1470a42.33,42.33,0,0,0-4.88.16Z"/><path d="M1516.27,186.51a25.87,25.87,0,0,0,.24-4.14V157.92a22.88,22.88,0,0,0-.24-4h3.39a22.17,22.17,0,0,0-.2,4.1v7.36a103.69,103.69,0,0,1,17.52,8.31l-1.69,2.91a82.15,82.15,0,0,0-14.69-7.79,5.25,5.25,0,0,1-1.22-.67l-.08,0a13,13,0,0,1,.16,2.32v11.85a24,24,0,0,0,.2,4.18Zm15.12-31a29.84,29.84,0,0,1,4.06,6.1l-2,1.18a29.58,29.58,0,0,0-4.06-6.26Zm4.45-2.17a33.23,33.23,0,0,1,4.06,6.15l-2,1.14a28.67,28.67,0,0,0-4-6.22Z"/><path d="M916.17,236.68a4.34,4.34,0,0,0-.24.67l-.23.78-.2.87a35.15,35.15,0,0,1-6.89,13.58,8.92,8.92,0,0,0-2.6-1.69c2.32-2.24,4.1-5.2,5.79-9.68a20.12,20.12,0,0,0,1.38-5.36Zm5.51-9.65a18.24,18.24,0,0,0-.23-4h3.23a22.45,22.45,0,0,0-.2,4.1v2.56h9.92a25.46,25.46,0,0,0,4.61-.24v3a32,32,0,0,0-4.53-.19h-10v19.61a23.4,23.4,0,0,0,.2,4.17h-3.23a22.8,22.8,0,0,0,.23-4.13V232.23H912a32,32,0,0,0-4.53.19v-3a24.82,24.82,0,0,0,4.56.24h9.61Zm11.07,8.86a27.77,27.77,0,0,0,1.45,4.45,34.88,34.88,0,0,0,6.11,10.55,8.55,8.55,0,0,0-2.48,1.85A46.84,46.84,0,0,1,931,239.2c-.36-1.07-.71-1.93-1-2.56Zm1.14-14.61a32.14,32.14,0,0,1,4,5.95l-2,1.14a32.18,32.18,0,0,0-4-6.07Zm4.88-1.46a33.56,33.56,0,0,1,4.06,6.15l-2,1.14a29,29,0,0,0-4-6.18Z"/><path d="M979.76,224.86a9.48,9.48,0,0,0-1.73,1.66,69.46,69.46,0,0,1-9.21,7.91v16.78a25.71,25.71,0,0,0,.2,4.17h-3.43a20.16,20.16,0,0,0,.24-4.09v-15c-5.12,3.15-8,4.45-15.2,6.89a8.94,8.94,0,0,0-1.54-2.63,55.52,55.52,0,0,0,20.44-10.2c3.66-2.84,6.42-5.59,7.52-7.45Z"/><path d="M1002.61,224.39a19.45,19.45,0,0,0-.24,3.39c-.31,10.67-.63,13.58-2.12,17.56-1.34,3.66-3.23,6.3-6.82,9.73a7.16,7.16,0,0,0-2.36-2.13,19.58,19.58,0,0,0,6.66-9.06c1.21-3.42,1.77-8.58,1.77-16.89a17.32,17.32,0,0,0-.16-2.8Zm9.76-.43a15.7,15.7,0,0,0-.23,3.46l-.24,23.79a18.08,18.08,0,0,0,7.32-4.57,19.38,19.38,0,0,0,4.65-7.88,10.89,10.89,0,0,0,2.21,2.29,22.39,22.39,0,0,1-7.92,10.12,25.77,25.77,0,0,1-5.63,2.87c-.71.28-.71.28-1.26.47a7.08,7.08,0,0,0-.91.44l-1.57-1.81a6.63,6.63,0,0,0,.27-2.68l.24-23a15.47,15.47,0,0,0-.16-3.5Z"/><path d="M1042.93,255.42a25.71,25.71,0,0,0,.24-4.13V226.83a22.64,22.64,0,0,0-.24-4h3.39a22,22,0,0,0-.2,4.09v7.36a103.33,103.33,0,0,1,17.52,8.31L1062,245.5a81.47,81.47,0,0,0-14.69-7.8A5.1,5.1,0,0,1,1046,237l-.08,0a13,13,0,0,1,.16,2.32v11.86a23.91,23.91,0,0,0,.2,4.17Zm15.12-31a30.11,30.11,0,0,1,4.06,6.1l-2,1.19a29.33,29.33,0,0,0-4.06-6.26Zm4.45-2.16a33.15,33.15,0,0,1,4.06,6.14l-2,1.14a28.67,28.67,0,0,0-4-6.22Z"/><path d="M1079.08,238.29a26.41,26.41,0,0,0,7.05,1.58c.2-1.93.59-5,.91-7.09a53.35,53.35,0,0,1-5.87-1.06l-1.22-.28.35-2.6a25.53,25.53,0,0,0,7.09,1.54,62.29,62.29,0,0,0,.95-7.41v-.31l3.15.35a18.82,18.82,0,0,0-.63,2.64c0,.36,0,.36-.4,2.52-.12.87-.19,1.26-.39,2.36,1.1,0,1.65,0,2.28,0a31.54,31.54,0,0,0,7.21-.67l-.12,2.72c-.79.08-.79.08-2.76.24-1.22.12-2.4.15-3.54.15-.63,0-1.3,0-3.46-.07-.64,4.52-.67,4.92-.91,7.12,1.5,0,2,0,2.6,0a34,34,0,0,0,7.24-.63l-.08,2.64c-.39,0-.51,0-1.06.08a44.66,44.66,0,0,1-5.55.31c-1,0-1.62,0-3.39-.07a7,7,0,0,1,0,.78c-.08.95-.15,2.25-.15,2.92a5.81,5.81,0,0,0,1.81,4.72,8.24,8.24,0,0,0,5.55,1.7c5.28,0,8.7-2.72,8.7-6.9,0-2.48-1.22-4.68-3.74-6.85a7.75,7.75,0,0,0,2.88-.78c2.79,3,3.7,5,3.7,7.83,0,5.55-4.65,9.29-11.54,9.29-4.14,0-7.29-1.41-8.82-3.93a10.66,10.66,0,0,1-1.22-5.44,20.65,20.65,0,0,1,.16-2.6c0-.59,0-.59.07-.94a40.94,40.94,0,0,1-5.94-1,4.33,4.33,0,0,0-1.22-.23Z"/><path d="M1134.29,243.73c-2.28,5.19-4.61,7.56-7.44,7.56-3.74,0-6.54-4.1-6.54-9.61a16.37,16.37,0,0,1,4.14-10.87c3.15-3.47,7.44-5.24,12.71-5.24,4.42,0,8.27,1.38,10.83,3.9a13.19,13.19,0,0,1,3.82,9.61,14.33,14.33,0,0,1-9,13.58,31.09,31.09,0,0,1-6,1.82,6.17,6.17,0,0,0-1.38-2.64A24.05,24.05,0,0,0,1142,250a11.9,11.9,0,0,0,7-11,10.38,10.38,0,0,0-6.26-9.88,11.37,11.37,0,0,0-4.57-1A59.12,59.12,0,0,1,1134.29,243.73ZM1129.45,230a13.62,13.62,0,0,0-6.42,11.74c0,3.78,1.65,6.69,3.78,6.69,1.65,0,3.23-1.85,4.92-5.71a53.8,53.8,0,0,0,3.58-14.57A12.47,12.47,0,0,0,1129.45,230Z"/><path d="M1169.61,224.12a16.8,16.8,0,0,0,.75,2.4c.79,2.32,1.18,3.42,1.74,5.2a69,69,0,0,1,8.46-2.21,53.82,53.82,0,0,0-.16-7h3a36.63,36.63,0,0,0-.2,5.32s0,.78,0,1.26a19.51,19.51,0,0,1,3-.24c5.28,0,8.67,2.84,8.67,7.25,0,4.72-3.86,8.11-9.26,8.11a16.74,16.74,0,0,1-6.65-1.46,5.53,5.53,0,0,0,0-.71,17.18,17.18,0,0,0-.24-2.24,13.4,13.4,0,0,0,6.62,1.81,7.93,7.93,0,0,0,4.72-1.54,4.76,4.76,0,0,0,1.89-4c0-3-2.32-4.77-6.3-4.77-2.87,0-7.13,1-12.84,2.8,2,6.69,3.43,12.24,5.08,19.65a12.63,12.63,0,0,0,.52,1.69l-3.19.71c-.2-3.23-2.41-12.72-5-21.26a19.2,19.2,0,0,1-2.12.7,37.93,37.93,0,0,0-5.4,2.17l-1-2.8c1.1-.23,1.1-.23,5.79-1.85,1-.35,1.38-.43,2-.63a39.47,39.47,0,0,0-2.84-7.48Z"/><path d="M1213.64,230.1a34.72,34.72,0,0,0-.91,4.33c-.94,5.71-1,6-1.14,6.89a4.7,4.7,0,0,1-.16.91l.08,0a11.75,11.75,0,0,1,1.22-1.18c2.72-2.09,7-3.39,11.38-3.39,6.42,0,10.56,3,10.56,7.6a8.4,8.4,0,0,1-3.55,6.77c-2.52,1.77-5.63,2.6-9.8,2.6a32.2,32.2,0,0,1-6.89-.71l-3.15-.78a6.25,6.25,0,0,0,0-.75A8.93,8.93,0,0,0,1211,250a28,28,0,0,0,10,2c6.5,0,10.63-2.6,10.63-6.62,0-3.23-2.83-5.12-7.64-5.12a19,19,0,0,0-11,3.43,6.72,6.72,0,0,0-1.58,1.61l-3.07-.08c.12-.71.16-1.06.32-2.32.39-3,1.1-7.56,1.65-10.87a13,13,0,0,0,.28-2.09Zm1.73-6.85a47.59,47.59,0,0,0,13.35,4.37l-1.1,2.76a59.88,59.88,0,0,1-7.68-2.25,42.14,42.14,0,0,1-6-2.48Z"/><path d="M1257.9,250.85a5.91,5.91,0,1,1-5.9-5.9A5.9,5.9,0,0,1,1257.9,250.85Zm-9.57,0a3.67,3.67,0,1,0,3.67-3.66A3.68,3.68,0,0,0,1248.33,250.85Z"/><path d="M1296.06,224.82a30.34,30.34,0,0,0,3.55.16c3.54,0,9.21-.23,12-.55a8,8,0,0,0,2.21-.47l1.65,2.09a12.5,12.5,0,0,0-1.93,1.65,75.92,75.92,0,0,1-12.91,10,92.25,92.25,0,0,1,9.45-1.06c1.61-.12,4-.36,7-.63,1.61-.12,2.79-.24,3.58-.32a5.22,5.22,0,0,0,1.14-.16l.28,2.76h-.87a26.18,26.18,0,0,0-10.83,2.13,13.88,13.88,0,0,0-4.92,3.74,5,5,0,0,0-1.26,3.27c0,3.23,3.39,5.08,9.37,5.08a13.83,13.83,0,0,0,2.68-.24l.12,3c-.67,0-.67,0-2.68-.08-4.61-.08-8-.94-9.92-2.56a6.39,6.39,0,0,1-2.32-5c0-3.5,2.91-6.61,8.58-9.09-.55.07-.55.07-2.17.35-.67.08-4.17.55-6.41.83a102.37,102.37,0,0,0-11.62,1.77l-.32-3h.28a52.7,52.7,0,0,0,6.89-.79,82.91,82.91,0,0,0,13.07-10.16,12.75,12.75,0,0,1,1.3-1.1,94.77,94.77,0,0,1-12.32.94c-1.5.08-1.65.08-2.44.16Z"/><path d="M1338.08,225.1a23.24,23.24,0,0,0,4.37.24c3.66,0,8.66-.24,11.38-.52a4.39,4.39,0,0,0,1.61-.35l1.66,2.28c-.59.4-.59.4-4.26,4.06-5.74,5.79-7.56,7.4-10.75,9.65l.12.12c3.94-2.33,6.42-3.12,10-3.12,6.26,0,10.24,3,10.24,7.84a8.79,8.79,0,0,1-5.12,7.8,20.12,20.12,0,0,1-8.38,1.65,27.36,27.36,0,0,1-9.49-1.85,5,5,0,0,0,0-.71,14.74,14.74,0,0,0-.28-2.48,22.15,22.15,0,0,0,10,2.44c6.1,0,10.28-2.79,10.28-6.85,0-3.43-3-5.51-7.84-5.51a23.36,23.36,0,0,0-12.64,4.33,19.43,19.43,0,0,0-3.07,2.48l-2-2.44a37.24,37.24,0,0,0,5.12-3.9c4.1-3.58,9.45-8.66,13.07-12.44a3.61,3.61,0,0,1,.36-.4,4.36,4.36,0,0,0,.31-.31l-.08,0a2,2,0,0,0-.51.08c-1.69.27-6.81.59-11.22.71a16.84,16.84,0,0,0-2.83.19Z"/><path d="M1381.12,224.82a30.27,30.27,0,0,0,3.54.16c3.55,0,9.22-.23,12-.55a8,8,0,0,0,2.21-.47l1.65,2.09a12.5,12.5,0,0,0-1.93,1.65,76.31,76.31,0,0,1-12.91,10,92.25,92.25,0,0,1,9.45-1.06c1.61-.12,4-.36,7-.63,1.61-.12,2.79-.24,3.58-.32a5.22,5.22,0,0,0,1.14-.16l.28,2.76h-.87a26.18,26.18,0,0,0-10.83,2.13,13.79,13.79,0,0,0-4.92,3.74,5,5,0,0,0-1.26,3.27c0,3.23,3.39,5.08,9.37,5.08a13.91,13.91,0,0,0,2.68-.24l.12,3c-.67,0-.67,0-2.68-.08-4.61-.08-8-.94-9.92-2.56a6.39,6.39,0,0,1-2.32-5c0-3.5,2.91-6.61,8.58-9.09-.55.07-.55.07-2.17.35-.67.08-4.17.55-6.41.83a102.37,102.37,0,0,0-11.62,1.77l-.32-3h.28a52.7,52.7,0,0,0,6.89-.79,82.91,82.91,0,0,0,13.07-10.16,12.75,12.75,0,0,1,1.3-1.1,94.77,94.77,0,0,1-12.32.94c-1.5.08-1.66.08-2.44.16Z"/><path d="M1423.14,225.1a23.24,23.24,0,0,0,4.37.24c3.66,0,8.66-.24,11.38-.52a4.44,4.44,0,0,0,1.61-.35l1.66,2.28c-.59.4-.59.4-4.26,4.06-5.75,5.79-7.56,7.4-10.75,9.65l.12.12c3.94-2.33,6.42-3.12,10-3.12,6.26,0,10.24,3,10.24,7.84a8.79,8.79,0,0,1-5.12,7.8,20.17,20.17,0,0,1-8.39,1.65,27.35,27.35,0,0,1-9.48-1.85,6.65,6.65,0,0,0,0-.71,14.48,14.48,0,0,0-.27-2.48,22.15,22.15,0,0,0,10,2.44c6.1,0,10.28-2.79,10.28-6.85,0-3.43-3-5.51-7.84-5.51a23.36,23.36,0,0,0-12.64,4.33,19.43,19.43,0,0,0-3.07,2.48l-2-2.44a37.24,37.24,0,0,0,5.12-3.9c4.1-3.58,9.45-8.66,13.07-12.44a3.61,3.61,0,0,1,.36-.4l.31-.31-.08,0a2,2,0,0,0-.51.08c-1.69.27-6.81.59-11.22.71a17,17,0,0,0-2.84.19Z"/><path d="M1471.77,223c0,1.89,1.89,10.2,3,13,2.17-.91,3.47-1.42,9.53-3.51a17.59,17.59,0,0,0,2.52-1.06l1.18,3a104.6,104.6,0,0,0-11.85,3.82c-6.73,2.72-9.65,5.32-9.65,8.59,0,3.54,3,5,10.75,5,4.53,0,8.94-.51,11.27-1.34l.31,3.27a10.14,10.14,0,0,0-1.18,0l-.39,0-1.34.15a77.9,77.9,0,0,1-8.71.52,26.74,26.74,0,0,1-8.74-1.07c-3.22-1.18-4.88-3.35-4.88-6.46a8.5,8.5,0,0,1,3.51-6.69,24.26,24.26,0,0,1,5.15-3.23,79.77,79.77,0,0,1-2.87-11,15.81,15.81,0,0,0-.67-2.52Zm13.31-.59a32.11,32.11,0,0,1,4.06,6.11l-2,1.18a30.92,30.92,0,0,0-4-6.26Zm4.41-2.16a31.46,31.46,0,0,1,4.1,6.14l-2,1.1a33,33,0,0,0-4-6.18Z"/><path d="M1505,254.35a2.63,2.63,0,1,1-2.63-2.63A2.63,2.63,0,0,1,1505,254.35Z"/><path d="M1517.3,254.35a2.62,2.62,0,1,1-2.62-2.63A2.63,2.63,0,0,1,1517.3,254.35Z"/><path d="M1528.38,254.35a2.63,2.63,0,1,1-2.62-2.63A2.63,2.63,0,0,1,1528.38,254.35Z"/><rect class="cls-7" x="843.58" y="327.1" width="802.35" height="361.06" rx="5"/><g class="cls-8"><ellipse class="cls-9" cx="875.1" cy="379.55" rx="14.33" ry="14.31"/><ellipse class="cls-9" cx="875.1" cy="419.15" rx="14.33" ry="14.31"/><ellipse class="cls-9" cx="875.1" cy="458.75" rx="14.33" ry="14.31"/><ellipse class="cls-9" cx="875.1" cy="498.34" rx="14.33" ry="14.31"/><ellipse class="cls-9" cx="875.1" cy="537.94" rx="14.33" ry="14.31"/><ellipse class="cls-9" cx="875.1" cy="577.54" rx="14.33" ry="14.31"/><ellipse class="cls-9" cx="875.1" cy="617.14" rx="14.33" ry="14.31"/><ellipse class="cls-9" cx="875.1" cy="656.73" rx="14.33" ry="14.31"/></g><g class="cls-8"><line class="cls-10" x1="1612.86" y1="426.5" x2="904.12" y2="426.5"/><line class="cls-10" x1="1612.86" y1="466.17" x2="904.12" y2="466.17"/><line class="cls-11" x1="1612.86" y1="466.17" x2="904.12" y2="466.17"/><line class="cls-11" x1="1612.86" y1="500.94" x2="904.12" y2="500.94"/><line class="cls-11" x1="1612.86" y1="535.71" x2="904.12" y2="535.71"/><line class="cls-11" x1="904.12" y1="570.48" x2="1612.86" y2="570.48"/><line class="cls-11" x1="1612.86" y1="605.25" x2="904.12" y2="605.25"/><line class="cls-11" x1="1612.86" y1="640.02" x2="904.12" y2="640.02"/><line class="cls-11" x1="1612.86" y1="674.78" x2="904.12" y2="674.78"/></g><path d="M912.35,417.06a28.12,28.12,0,0,0-.28,4.69,67.47,67.47,0,0,0,1,12.25c.87,4,2.48,6.73,4,6.73.7,0,1.37-.67,2-2a28.14,28.14,0,0,0,2.05-6.73,12.74,12.74,0,0,0,2.33,2.24c-1.93,6.89-3.75,9.53-6.54,9.53-2.21,0-4.25-2.2-5.59-6s-1.93-8.79-2.13-18.47A21.09,21.09,0,0,0,909,417Zm19,2.09a34.17,34.17,0,0,1,5.63,9,37.62,37.62,0,0,1,3,10.51l-2.79,1.14A34.85,34.85,0,0,0,929,420.37Z"/><path d="M950.43,422.26c1.18-.08,1.18-.08,8.19-1.65A52.27,52.27,0,0,1,970,419.15c7.21,0,11.77,3.82,11.77,9.84,0,4.93-2.91,9.06-8.19,11.62-3.62,1.73-6.93,2.48-13,3a7,7,0,0,0-1.22-2.91,35.45,35.45,0,0,0,11-1.81c5.39-2,8.42-5.51,8.42-9.92s-3.27-7.09-8.62-7.09c-4.1,0-9.26.9-16.07,2.79a17.45,17.45,0,0,0-2.83.95Z"/><path d="M993.83,423.17c1.41,0,5.51-.51,8.7-1a48,48,0,0,0,1.18-8.34v-.52l3.15.36a24,24,0,0,0-.75,3.78c-.19,1.14-.47,2.6-.82,4.49a22.39,22.39,0,0,1,2.32-.12c2.79,0,4.45.47,5.67,1.65,1.38,1.3,1.93,3.11,1.93,6.34,0,6-1,11.26-2.64,13.55a4.12,4.12,0,0,1-3.86,1.85,14.66,14.66,0,0,1-5.94-1.54,9.59,9.59,0,0,0,.07-1.38,8.14,8.14,0,0,0-.11-1.57,14.73,14.73,0,0,0,5.86,1.81q1.49,0,2.25-1.89c1.06-2.52,1.65-6.54,1.65-10.95,0-4.17-1.18-5.51-4.84-5.51a22.32,22.32,0,0,0-2.84.2A74.22,74.22,0,0,1,998.87,441c-.52.95-1.34,2.52-2.56,4.73l-2.68-1.58a37.68,37.68,0,0,0,4.1-7.12,65.22,65.22,0,0,0,4.33-12.49c-3.39.52-5.28.83-5.63.91-.91.16-1.22.24-2.29.51Zm25.87-3.63a35.76,35.76,0,0,1,8.23,13.94l-2.52,1.46a32.32,32.32,0,0,0-8-14.14Z"/><path d="M909.26,562.94a35.1,35.1,0,0,1,7.24,4.53l-1.37,2.29a31.55,31.55,0,0,0-7.25-4.89Zm7.64,12.72a74,74,0,0,1-6.54,11.74l-2.24-2a10.38,10.38,0,0,0,1.22-1.34,39.94,39.94,0,0,0,5.55-9.92ZM911,553a47.09,47.09,0,0,1,6.78,5.24l-1.54,2.08a42,42,0,0,0-6.85-5.51Zm18.19,5a79.33,79.33,0,0,1-9,1,7.76,7.76,0,0,0-1-2.4,71.4,71.4,0,0,0,16.66-2.25,18.38,18.38,0,0,0,4.53-1.57l1.81,2.36-1.3.35c-2.28.67-5.36,1.38-9.14,2.09v6.81h7.68a26.62,26.62,0,0,0,4-.24v2.8a28.52,28.52,0,0,0-4-.24H931.7v6.7H938a18.78,18.78,0,0,0,3-.16,25.47,25.47,0,0,0-.16,3.58v7.48a30.23,30.23,0,0,0,.2,3.83H938.4v-2.25H923.16v2.25h-2.68a26,26,0,0,0,.2-3.86v-7.56a29.33,29.33,0,0,0-.16-3.47,18.76,18.76,0,0,0,2.88.16h5.78v-6.7H921.7a28.66,28.66,0,0,0-4,.24v-2.8a26,26,0,0,0,4,.24h7.48Zm-6,25.56H938.4v-7.92H923.16Z"/><path d="M958.52,558.14a30.84,30.84,0,0,1-6.18,7.6,4.72,4.72,0,0,0-1.85-1.73A26.73,26.73,0,0,0,958,554a8,8,0,0,0,.75-2.32l2.79.63a10,10,0,0,0-.67,1.38c-.35.71-.51,1.06-1.1,2.13h19.38a32,32,0,0,0,5-.28v2.84a27.92,27.92,0,0,0-5-.28Zm15.12,28.23a66,66,0,0,0-7.68-6.85c-3.7,3.43-6.49,5.28-12.32,8a6.7,6.7,0,0,0-1.89-2.16c5.63-2.36,8.86-4.29,12.21-7.37a77.55,77.55,0,0,0-7.52-4.84l1.69-1.57a73,73,0,0,1,7.52,4.76,20.22,20.22,0,0,0,4.41-6.1l2.52,1.45-.55.67-1,1.34a40.85,40.85,0,0,1-3.38,4.1,88.82,88.82,0,0,1,7.79,6.5ZM957,569.28a28,28,0,0,0-4.06.24v-2.68a23.38,23.38,0,0,0,3.66.24h18.86a30.5,30.5,0,0,0,4.45-.2,33,33,0,0,0-.15,3.35,36.72,36.72,0,0,0,1.45,11.46c.55,1.57,1.54,3.11,2,3.11s1.18-3,1.42-6.58a6,6,0,0,0,2.17,1.54,23.23,23.23,0,0,1-1.07,5.39c-.51,1.66-1.38,2.56-2.36,2.56-1.54,0-3.47-2.32-4.53-5.51-1-3-1.42-6.66-1.49-12.92Zm.67-8a18,18,0,0,0,3.42.2h16a21.25,21.25,0,0,0,3.86-.24v2.68a19.65,19.65,0,0,0-3.86-.24H961.28a22.66,22.66,0,0,0-3.66.2Z"/><path d="M993.81,562.51a39.9,39.9,0,0,1,6.77,5.08l-1.5,2.17a30.25,30.25,0,0,0-6.73-5.4Zm7.05,13a58.51,58.51,0,0,1-4.69,10.16,18.49,18.49,0,0,0-1,1.74l-2.33-2.05a6.2,6.2,0,0,0,1.26-1.5,36.84,36.84,0,0,0,4.73-9.8ZM995.78,553a34.91,34.91,0,0,1,6.3,5.16l-1.58,2a31.76,31.76,0,0,0-6.3-5.4Zm8.86,22.41c-.63.47-1,.78-2.17,1.61a6.61,6.61,0,0,0-1.38-2,20.37,20.37,0,0,0,6.3-5.59,7.42,7.42,0,0,0,1.14-2.12l2.05,1.45c-.31.44-.31.44-.83,1.14a23.61,23.61,0,0,1-3.7,4.3h17.68a24.14,24.14,0,0,1-4.72-5.24h-4.85a14.64,14.64,0,0,0-2.55.16v-2.4a16.59,16.59,0,0,0,2.63.15h3.51a12.59,12.59,0,0,0,2.52-.15c1.77,3.18,4.41,5.67,8.7,8.11a16.14,16.14,0,0,0-1.5,2.08c-1.1-.71-1.57-1-2.28-1.57V585h.9a15.93,15.93,0,0,0,2.53-.15v2.44a34.9,34.9,0,0,0-3.74-.2h-21.23a32,32,0,0,0-3.66.2v-2.44a18.57,18.57,0,0,0,2.83.15h1.82v-9.6Zm6.49-20a11.81,11.81,0,0,0-.71,1.11,27,27,0,0,1-2.67,3.62,24.06,24.06,0,0,1-4.73,3.94,6.27,6.27,0,0,0-1.46-2.05c3.78-2.17,6.7-5.32,7.33-7.88ZM1010.7,585v-8.82H1007V585Zm-3.19-23.62a18.4,18.4,0,0,0,3,.16h9.22a19,19,0,0,0,3.07-.16v2.44a19,19,0,0,0-3-.16h-9.34a18.78,18.78,0,0,0-3,.16Zm7-5.75a15.07,15.07,0,0,0-2.52.16v-2.44a16.48,16.48,0,0,0,2.64.15h2.6a12.72,12.72,0,0,0,2.52-.15c1.81,3.3,4.41,5.74,8.7,8.15a14.6,14.6,0,0,0-1.5,2.08,26.19,26.19,0,0,1-8.46-8Zm2.2,20.55h-3.89V585h3.89Zm6.15,0h-4V585h4Z"/><path d="M1036.49,577.51a59.52,59.52,0,0,0,6.93-6.65c0-1.58.12-4.06.24-7.52-5.28.35-5.28.35-6.18.55l-.16-2.72a7.87,7.87,0,0,0,1.22.08l5.16-.32c.12-3,.16-4.76.16-5.27a15.79,15.79,0,0,0-.12-2l3.11,0a44.47,44.47,0,0,0-.47,7,2.49,2.49,0,0,0,.78-.2l1,1.22a14,14,0,0,0-2,2.44,6.67,6.67,0,0,1,0,1c0,.78,0,.78-.08,2.64a2,2,0,0,1,0,.35c0,.32,0,.39,0,.63l.08,0c.59-.87,1.93-2.13,5-4.61,3.59-2.87,6.54-4.33,8.9-4.33a4.28,4.28,0,0,1,4.61,4.61,26.4,26.4,0,0,1-.91,5.75c-1.45,6.34-1.69,7.72-1.69,9.33,0,1.81.83,2.8,2.36,2.8a4.76,4.76,0,0,0,3.35-2.17,16.22,16.22,0,0,0,2.24-4.53,13,13,0,0,0,1.82,2.68,19.69,19.69,0,0,1-2.45,3.9,6.75,6.75,0,0,1-5.43,2.83,4.82,4.82,0,0,1-2.76-.83c-1.3-.9-1.85-2.28-1.85-4.48,0-2,.08-2.44,1.5-9.18a29.13,29.13,0,0,0,1-5.9,2,2,0,0,0-2.16-2.13c-1.54,0-3.43.87-6,2.68A63.83,63.83,0,0,0,1046,572v8.51a59.92,59.92,0,0,0,.12,6.53h-3.07c.24-1.45.24-1.45.28-6.49,0-4.61,0-4.61.11-6.38h-.08a4.19,4.19,0,0,1-.7.94l-1.93,2.17c-.44.47-1,1.1-1.66,1.85a8.12,8.12,0,0,0-1,1.26Z"/><path d="M1085.6,555.89a17.88,17.88,0,0,0,3.7.24c3.27,0,8.51-.24,12-.51a4.13,4.13,0,0,0,1.89-.43l1.65,2.16a7.49,7.49,0,0,0-2,1.66c-5.44,5.31-10.2,9.41-13,11.18l.08.12a19.88,19.88,0,0,1,9.65-2.44c6.57,0,10.79,3.22,10.79,8.26,0,6.15-5.71,10.2-14.45,10.2-5.56,0-8.75-2.05-8.75-5.67,0-2.64,2.44-4.6,5.71-4.6a7.93,7.93,0,0,1,6.5,3.23,11.13,11.13,0,0,1,1.81,3.77c4.14-1.14,6.3-3.54,6.3-6.89,0-3.78-3.15-6-8.46-6a25.29,25.29,0,0,0-16.58,6.73l-1.77-2.52a44.28,44.28,0,0,0,5.51-4c4.21-3.35,10.43-8.82,13.15-11.5l.55-.55.16-.16.16-.16-.08-.08a1.55,1.55,0,0,0-.36,0c-1.26.24-6,.51-12,.71a19,19,0,0,0-2.12.2Zm7.4,22.41c-2,0-3.19.94-3.19,2.44a2.67,2.67,0,0,0,1.58,2.4,10,10,0,0,0,4.41.91,14,14,0,0,0,2.87-.28C1097.81,580.19,1095.84,578.3,1093,578.3Z"/><path d="M1126.16,557a28.59,28.59,0,0,0-.28-4.18H1129a26.8,26.8,0,0,0-.27,4.18v4.76h7.87V556.8a27.35,27.35,0,0,0-.27-4h3.07a25.5,25.5,0,0,0-.28,4v5h8.39v-5a26.8,26.8,0,0,0-.27-4h3a26.21,26.21,0,0,0-.28,4v5h2.52a28.12,28.12,0,0,0,4-.23v2.75a29.66,29.66,0,0,0-4-.23H1150v9.29a26.36,26.36,0,0,0,.16,3.27,22.83,22.83,0,0,0-3.15-.16h-7.36a23.75,23.75,0,0,0-3.19.16,26.33,26.33,0,0,0,.15-3.19V564h-7.87v19.53h21.77a31.66,31.66,0,0,0,4.22-.24v2.88a31.66,31.66,0,0,0-4.22-.24h-21.77v2.48h-2.84a37,37,0,0,0,.24-4.88V564h-1.85a29.66,29.66,0,0,0-4,.23v-2.75a28.52,28.52,0,0,0,4,.23h1.85Zm13,7v10.16h8.39V564Z"/><path d="M1179.28,574.76c-2.28,5.19-4.6,7.56-7.44,7.56-3.74,0-6.54-4.1-6.54-9.61a16.37,16.37,0,0,1,4.14-10.87c3.15-3.46,7.44-5.24,12.72-5.24,4.41,0,8.27,1.38,10.83,3.9a13.18,13.18,0,0,1,3.81,9.61,14.33,14.33,0,0,1-9,13.58,30.19,30.19,0,0,1-6,1.82,6.17,6.17,0,0,0-1.38-2.64A23.7,23.7,0,0,0,1187,581a11.89,11.89,0,0,0,7-11,10.37,10.37,0,0,0-6.26-9.88,11.37,11.37,0,0,0-4.57-1A59.12,59.12,0,0,1,1179.28,574.76ZM1174.44,561a13.64,13.64,0,0,0-6.42,11.74c0,3.78,1.65,6.69,3.78,6.69,1.65,0,3.23-1.85,4.92-5.71a54.17,54.17,0,0,0,3.59-14.57A12.48,12.48,0,0,0,1174.44,561Z"/><path d="M1221.93,556.49a22.39,22.39,0,0,0-.28-4.1h3.15a24.26,24.26,0,0,0-.27,4v3.46h11.53a20.87,20.87,0,0,0,3-.16,18.66,18.66,0,0,0-.2,3.12v10.74a24.6,24.6,0,0,0,.24,3.51h-2.84V574.4h-11.73v9.18a22.84,22.84,0,0,0,.27,4.49h-3.15a26.79,26.79,0,0,0,.28-4.49V574.4h-11.1v2.68H1208a24.5,24.5,0,0,0,.24-3.51V562.83a24.68,24.68,0,0,0-.2-3.12,21.1,21.1,0,0,0,3,.16h11Zm-11.1,5.74V572h11.1v-9.81Zm25.43,9.81v-9.81h-11.73V572Z"/><path d="M1249.38,563.61a79.46,79.46,0,0,0,8.7-1,48.58,48.58,0,0,0,1.18-8.35v-.51l3.15.35a25.85,25.85,0,0,0-.75,3.78c-.15,1-.51,2.8-.82,4.49a22.39,22.39,0,0,1,2.32-.12c2.8,0,4.45.48,5.67,1.66,1.38,1.3,1.93,3.11,1.93,6.34,0,6-1,11.26-2.64,13.54a4.11,4.11,0,0,1-3.86,1.85,14.83,14.83,0,0,1-5.94-1.53,8.7,8.7,0,0,0,.08-1.42,7.07,7.07,0,0,0-.12-1.53,14.73,14.73,0,0,0,5.86,1.81q1.48,0,2.25-1.89c1.06-2.52,1.65-6.54,1.65-10.95,0-4.17-1.18-5.51-4.84-5.51a23.9,23.9,0,0,0-2.84.19,76.35,76.35,0,0,1-8.5,21.42l-2.68-1.57c3.27-4.29,6.66-12.17,8.43-19.61a51.89,51.89,0,0,0-7.92,1.42Zm25.87-3.62a36.07,36.07,0,0,1,8.23,13.94l-2.52,1.42a33.34,33.34,0,0,0-8-14.14Zm1.77-6.69a29.84,29.84,0,0,1,4.06,6.1l-2,1.18a30.38,30.38,0,0,0-4.06-6.26Zm4.45-2.13a31.89,31.89,0,0,1,4.06,6.1l-2,1.15a28.75,28.75,0,0,0-4-6.19Z"/><path d="M1297.26,568.26c-.27,9.69-1.42,14-5.24,19.49a9.61,9.61,0,0,0-2.08-1.69c4-5.52,5-9.85,5-23.12,0-1.41-.08-2.56-.16-3.62a42.72,42.72,0,0,0,4.33.16h20.13a28.27,28.27,0,0,0,3.7-.16,17.56,17.56,0,0,0-.12,2.68v3.7a19,19,0,0,0,.12,2.72,31.14,31.14,0,0,0-3.7-.16Zm28.39-11.66a33.21,33.21,0,0,0-4.41-.19H1296a34.51,34.51,0,0,0-4.33.19v-2.71a34.75,34.75,0,0,0,4.33.23h25.24a34.35,34.35,0,0,0,4.41-.23ZM1312,576a13,13,0,0,0,5,5.86,21.92,21.92,0,0,0,4.45,2.17,29.06,29.06,0,0,0,4.73,1.22,8.62,8.62,0,0,0-1.19,2.6c-4.56-1.3-7-2.36-9.33-4.06a16,16,0,0,1-5.39-6.61,13.83,13.83,0,0,1-4.89,6.61c-2.28,1.7-4.29,2.64-8.5,4a8.21,8.21,0,0,0-1.3-2.44,26.47,26.47,0,0,0,7-2.56,10.84,10.84,0,0,0,5.59-6.77h-6.42a27,27,0,0,0-3.78.19v-2.56a22.65,22.65,0,0,0,3.78.2h6.85a20.82,20.82,0,0,0,.28-2.83,10,10,0,0,0-.16-1.58h2.84a15.6,15.6,0,0,0-.24,2.44c0,.59-.12,1.18-.24,2h10.16a25.06,25.06,0,0,0,4-.24v2.64a29.66,29.66,0,0,0-4-.23Zm8.35-9.85v-4.52h-23v2.24c0,1.1,0,1.53,0,2.28Z"/><path d="M1337.9,569.24a17.79,17.79,0,0,0,3.62-.71,50.9,50.9,0,0,1,12-1.73c4.06,0,6.86,1.22,8.35,3.66a8.61,8.61,0,0,1,1.22,4.49c0,4.41-3.54,8.43-9,10.16-2.4.75-3.34.91-8.11,1.5a8.49,8.49,0,0,0-1-2.72,2.94,2.94,0,0,0,.55,0,26.84,26.84,0,0,0,7.76-1.22c4.49-1.46,7.2-4.45,7.2-8s-2.52-5.52-7.28-5.52a46,46,0,0,0-10.36,1.58,17.34,17.34,0,0,0-4.21,1.3Z"/><path d="M1377.83,559.24h1.42c.55,0,1,0,2.24-.12,4.69-.35,17.29-1.06,22.37-1.3a25.4,25.4,0,0,0,4.69-.43l.23,3a18,18,0,0,0-4.41.52,20,20,0,0,0-7.56,4c-3.15,2.64-4.84,5.83-4.84,9.1s2,6,5.51,7.28a20.14,20.14,0,0,0,5.91,1.26h.39l-.51,3.19c-.43-.07-.59-.11-1.22-.23-3.9-.67-6.26-1.5-8.51-3a9.61,9.61,0,0,1-4.37-8c0-4.56,2.68-8.94,7.37-12.09a26.3,26.3,0,0,1,3.74-2.08,76.56,76.56,0,0,1-8.67.86c-8.15.56-11.65.87-13.58,1.3Z"/><path d="M1443.63,555.54c-.43.35-.75.63-4.84,4.57a115.87,115.87,0,0,1-9.06,7.44c-1.45,1.1-1.73,1.42-1.73,2,0,.71.32,1,3.51,3.46a118.63,118.63,0,0,1,12.6,10.75,10,10,0,0,0,1.1,1l-2.48,2.44a37.26,37.26,0,0,0-5.08-5.39,128.39,128.39,0,0,0-10-8.23c-2.2-1.74-2.83-2.6-2.83-3.94A3.8,3.8,0,0,1,1426,567a33.55,33.55,0,0,1,3.35-2.68c5.24-4,10.16-8.62,11.54-10.79Z"/><path d="M1468.36,555.89a18,18,0,0,0,3.71.24c3.26,0,8.5-.24,12-.51a4.08,4.08,0,0,0,1.88-.43l1.66,2.16a7.47,7.47,0,0,0-2,1.66c-5.43,5.31-10.2,9.41-13,11.18l.07.12a19.93,19.93,0,0,1,9.65-2.44c6.58,0,10.79,3.22,10.79,8.26,0,6.15-5.71,10.2-14.45,10.2-5.55,0-8.74-2.05-8.74-5.67,0-2.64,2.44-4.6,5.71-4.6a7.93,7.93,0,0,1,6.5,3.23,11.52,11.52,0,0,1,1.81,3.77c4.13-1.14,6.3-3.54,6.3-6.89,0-3.78-3.15-6-8.47-6a25.29,25.29,0,0,0-16.58,6.73l-1.77-2.52a42.82,42.82,0,0,0,5.51-4c4.22-3.35,10.44-8.82,13.16-11.5l.55-.55.15-.16.16-.16-.08-.08a1.53,1.53,0,0,0-.35,0c-1.26.24-6,.51-12,.71a19.17,19.17,0,0,0-2.13.2Zm7.41,22.41c-2,0-3.19.94-3.19,2.44a2.68,2.68,0,0,0,1.57,2.4,10.11,10.11,0,0,0,4.41.91,14,14,0,0,0,2.88-.28C1480.57,580.19,1478.6,578.3,1475.77,578.3Z"/><path d="M1534.44,584.84a31.7,31.7,0,0,0-8-5.63c-.67-.36-1.58-.75-2.64-1.19a11.23,11.23,0,0,1,.08,1.42c0,2.09-.28,3.35-1,4.29-1.14,1.62-3.54,2.48-6.65,2.48a10.25,10.25,0,0,1-6.1-1.57,5.14,5.14,0,0,1-2.13-4.13c0-2.6,2-4.65,5.51-5.44a17.52,17.52,0,0,1,4.1-.39,17.82,17.82,0,0,1,3.54.31,1.1,1.1,0,0,1,0-.47,3.16,3.16,0,0,1,0-.43c0-.36,0-1.18-.08-2.33,0-.51,0-1.26-.07-2.28-1.42,0-3.39.08-4.65.08-2.36,0-4.21-.08-6.66-.28a9.75,9.75,0,0,0-1,0h-.31l0-2.59a48.81,48.81,0,0,0,9,.63c1,0,2.4,0,3.51,0l-.08-5.4c-1.15,0-1.77,0-2.68,0-2.87,0-6.06-.12-9.61-.39a4.66,4.66,0,0,0-.71,0,3.23,3.23,0,0,0-.55,0l0-2.68a49,49,0,0,0,10.08.79c.79,0,2.13,0,3.43,0,0-4.81,0-4.81-.2-5.67h3a45.87,45.87,0,0,0-.27,5.55c5.43-.36,9.49-.91,11.65-1.62l.2,2.68c-.67,0-.67,0-2.72.32a80.73,80.73,0,0,1-9.13.94c0,3.23,0,3.23.08,5.32,5.35-.4,8.74-.87,10.9-1.62l.16,2.72c-.51,0-.91.08-2.28.28-2.72.43-5.83.75-8.74.94.07,2.21.07,2.21.23,6a34.4,34.4,0,0,1,11,5.74,11,11,0,0,0,1.34.91Zm-13.31-7.45a14.64,14.64,0,0,0-4-.43c-3.89,0-6.45,1.42-6.45,3.51s2,3.26,5.39,3.26c2.09,0,3.58-.43,4.33-1.3.56-.55.79-1.65.79-3.54Z"/><path d="M1547.64,559.16c.74,0,1.14,0,1.41,0,.55,0,1,0,2.25-.12,2.2-.15,2.44-.19,7.28-.47l6.18-.39c4.85-.28,5.36-.32,6.66-.36l2.24-.07a26.2,26.2,0,0,0,4.69-.44l.24,2.92a16.21,16.21,0,0,0-4.41.55,19.31,19.31,0,0,0-7.56,3.93c-3.15,2.64-4.85,5.83-4.85,9.1s2,5.95,5.51,7.29a20.54,20.54,0,0,0,5.91,1.26h.39l-.51,3.19c-.43-.08-.51-.12-1.22-.24-3.9-.67-6.26-1.5-8.5-3a9.53,9.53,0,0,1-4.37-8c0-4.56,2.67-8.9,7.36-12.08a25.37,25.37,0,0,1,3.74-2.09,82.49,82.49,0,0,1-8.66.87c-7.84.55-12.17.94-13.59,1.29ZM1574,565a30.06,30.06,0,0,1,4,6.1l-2,1.19a28.13,28.13,0,0,0-4-6.27Zm4.45-2.17a32.21,32.21,0,0,1,4,6.15l-2,1.1a31.06,31.06,0,0,0-4-6.18Z"/><path d="M924.56,620.07a29.4,29.4,0,0,0,8.07,8.39,37.45,37.45,0,0,0,9.21,5.24,7.78,7.78,0,0,0-1.61,2.52,52.45,52.45,0,0,1-9.49-5.91,35.58,35.58,0,0,1-7.64-7.91,41.35,41.35,0,0,1-7.84,8.19,44.09,44.09,0,0,1-8.82,5.47,8.63,8.63,0,0,0-1.65-2.28,41.5,41.5,0,0,0,11-7,28.7,28.7,0,0,0,5.74-6.66Zm13,21.07a22.89,22.89,0,0,0-1.61,1.77l-7.84,9.61c-1.06,1.34-1.85,2.36-2.64,3.54l-2.79-1.65a28.33,28.33,0,0,0,3.11-3.23l7.71-9.29H914c-1.49,0-2.91.08-4.56.23v-2.91a40.81,40.81,0,0,0,4.56.24h17.53a25.29,25.29,0,0,0,4.41-.2ZM914.91,632a22.18,22.18,0,0,0,3.11.15h10.36a25.76,25.76,0,0,0,3.3-.15v2.71a26.38,26.38,0,0,0-3.38-.15H918.06a22,22,0,0,0-3.15.15Z"/><path d="M957.16,622.52c-1.69,3.93-3,12-3,18.46,0,1.38.08,3.7.16,5.51,0,.32,0,.4,0,1.11v.75l.16,0a34.26,34.26,0,0,1,2.32-6.94,4.31,4.31,0,0,0,.31-.78l1.93.9c-1.85,3.86-3.38,8.86-3.38,11.19a4.21,4.21,0,0,0,.08.78l-2.8.28c0-.35-.08-.55-.24-1.46a63.42,63.42,0,0,1-1.1-11.69,66.6,66.6,0,0,1,2-16.19,18.47,18.47,0,0,0,.43-2.48Zm4,7.32a27.37,27.37,0,0,0,7.09.63c1.53,0,2.6,0,4.21-.12,0-3.7,0-3.7,0-6.69a8.71,8.71,0,0,0-.12-1.62h3a39.76,39.76,0,0,0-.28,6.18c0,.44,0,1.07,0,1.93a26.63,26.63,0,0,0,6.81-1.45l.12,2.67c-.08,0-.08,0-2.76.56a39.85,39.85,0,0,1-4.17.63c0,3.89.12,5.9.43,11.14a28.44,28.44,0,0,1,6.58,3.86c.47.31.55.39,1,.67L981.77,651a21.27,21.27,0,0,0-5.59-4.09,2.17,2.17,0,0,1-.39-.24,2,2,0,0,0-.36-.23,5.55,5.55,0,0,1,.08,1,6.73,6.73,0,0,1-.47,2.68c-.95,2.08-3.35,3.31-6.58,3.31-4.56,0-7.44-2.17-7.44-5.6,0-3.27,3.11-5.59,7.48-5.59a11.21,11.21,0,0,1,4.38.79c-.12-.83-.28-4.53-.4-10.28-1.77.08-3,.12-4.49.12s-3.07,0-4.45-.12a10.15,10.15,0,0,0-1.26-.08,5.72,5.72,0,0,0-.67,0,2.27,2.27,0,0,0-.39,0h-.16Zm7.56,14.77c-3.07,0-5.08,1.29-5.08,3.26s1.81,3.19,4.57,3.19a5.43,5.43,0,0,0,4-1.38,4.6,4.6,0,0,0,.74-3.07c0-.27,0-1.18,0-1.18A10.12,10.12,0,0,0,968.7,644.61Z"/><path d="M1023.83,637.2a19.22,19.22,0,0,0-1.26,2,35.65,35.65,0,0,1-4.8,6.93c1.85,3.51,4.13,6.18,5.23,6.18.75,0,1.34-1.93,2-6.18a7.89,7.89,0,0,0,2.13,1.69,20.69,20.69,0,0,1-1.46,5.4,2.73,2.73,0,0,1-2.48,1.89c-2,0-4.8-2.76-7.2-7.17a34.71,34.71,0,0,1-10.08,6.58,7.56,7.56,0,0,0-1.82-2.17,30.39,30.39,0,0,0,10.79-6.65,42.65,42.65,0,0,1-3-11.7h-9.49v6.38a65.08,65.08,0,0,0,7-2.12l.12,2.32c-3.35,1.1-4.53,1.46-7.17,2.17v9.44c0,2-.87,2.72-3.43,2.72-1.26,0-2.79-.08-4.41-.2a7.87,7.87,0,0,0-.63-2.71,34.43,34.43,0,0,0,5,.43c.82,0,1-.16,1-.87v-8.22c-3.94,1-4.33,1.06-5.55,1.29a11.57,11.57,0,0,0-2.05.56l-.67-2.72c1.3,0,3.62-.43,8.27-1.5v-7h-4.13a28.74,28.74,0,0,0-4.06.24v-2.72a26.48,26.48,0,0,0,4.06.24h4.13v-6.14a61.08,61.08,0,0,1-6.58,1.41,8.48,8.48,0,0,0-1.1-2.16c6-.71,13-2.72,15.28-4.41l1.5,2.2-.71.24a10.54,10.54,0,0,0-1,.35c-1.81.71-2.91,1.07-4.88,1.7v6.81h9.29c-.23-2.84-.27-3.51-.35-8a17.47,17.47,0,0,0-.24-2.92h3a15.81,15.81,0,0,0-.24,3.66c0,2.68.08,4.37.31,7.29h8.71a26.88,26.88,0,0,0,3.93-.24v2.72a28.68,28.68,0,0,0-4-.24h-8.35a36.52,36.52,0,0,0,2.25,9.77,22.74,22.74,0,0,0,4.76-7.92Zm-5.47-15.55a36.64,36.64,0,0,1,6,6.34l-1.89,1.61a42.33,42.33,0,0,0-5.86-6.65Z"/><path d="M1033.88,638.15a33.57,33.57,0,0,0,1.65-10.44l2.12.47A48.4,48.4,0,0,1,1036,639Zm4.88,17.8a28.51,28.51,0,0,0,.27-4.18V624.09a26.49,26.49,0,0,0-.27-4h3a24.28,24.28,0,0,0-.28,4V652a24.28,24.28,0,0,0,.28,4Zm5.31-22.06a26.22,26.22,0,0,0-1.77-6.22L1044,627a34.94,34.94,0,0,1,2,6Zm4.22,12a18.76,18.76,0,0,0-2.88.16v-2.28a18.54,18.54,0,0,0,2.95.16h13.35a17.38,17.38,0,0,0,3-.16l1.53,1.42a34.14,34.14,0,0,1-6.89,5.67,31.64,31.64,0,0,0,11,2.56,11.69,11.69,0,0,0-1.38,2.48,35.41,35.41,0,0,1-11.89-3.78,37.92,37.92,0,0,1-12.21,3.7,7.27,7.27,0,0,0-1.22-2.33,35.43,35.43,0,0,0,11.26-2.71,23.34,23.34,0,0,1-5.35-4.89Zm17.44-11.61a28.66,28.66,0,0,0,3.66-.16,18.2,18.2,0,0,0-.16,2.84v2.28a14.07,14.07,0,0,0,.16,2.64,27.58,27.58,0,0,0-3.46-.16h-18c-1.38,0-2.44,0-3.35.12a21.1,21.1,0,0,0,.12-2.56v-2.4a23.21,23.21,0,0,0-.12-2.72c1.07.08,1.86.12,3.23.12Zm-13.58,1.81h-5.24v3.82h5.24Zm-.48-4.06c-1.49,0-2.87,0-3.78.12.08-.94.12-1.89.12-3V624a23.91,23.91,0,0,0-.16-3,41,41,0,0,0,4.14.2h9.61a27.87,27.87,0,0,0,4.29-.2,23.61,23.61,0,0,0-.16,3.11v5.08a23.67,23.67,0,0,0,.12,3c-1-.08-1.77-.08-3.78-.08Zm-1.38-6.38h13.16v-2.59h-13.16Zm0,4.49h13.16v-2.59h-13.16Zm1.86,15.75a18.12,18.12,0,0,0,4.92,3.82,21.21,21.21,0,0,0,5.35-3.82Zm7.32-9.8h-5.24v3.82h5.24Zm7.6,3.82V636.1h-5.51v3.82Z"/><path d="M1093.34,642.44c-2.29,5.2-4.61,7.56-7.45,7.56-3.74,0-6.53-4.1-6.53-9.61a16.4,16.4,0,0,1,4.13-10.87c3.15-3.46,7.44-5.23,12.72-5.23,4.41,0,8.27,1.37,10.83,3.89a13.2,13.2,0,0,1,3.82,9.61,14.34,14.34,0,0,1-9,13.59,30.34,30.34,0,0,1-6,1.81,6.34,6.34,0,0,0-1.38-2.64,23.39,23.39,0,0,0,6.57-1.85,11.89,11.89,0,0,0,7-11,10.38,10.38,0,0,0-6.26-9.88,11.34,11.34,0,0,0-4.57-1A59.15,59.15,0,0,1,1093.34,642.44Zm-4.85-13.74a13.63,13.63,0,0,0-6.42,11.73c0,3.78,1.66,6.69,3.78,6.69,1.66,0,3.23-1.85,4.93-5.7a54.27,54.27,0,0,0,3.58-14.57A12.29,12.29,0,0,0,1088.49,628.7Z"/><path d="M1122.12,626.22a32.34,32.34,0,0,0-.15-3.78,33.08,33.08,0,0,0,3.62.11h2.91a34.4,34.4,0,0,0,3.55-.11,28.65,28.65,0,0,0-.12,3.86v21.57c0,1.89,0,2.92.12,3.78h-2.44v-2h-5.16v3.23h-2.56a31.14,31.14,0,0,0,.23-4.17Zm2.33,8.31h5.16v-9.77h-5.16Zm0,13h5.16V636.65h-5.16Zm13.74-20.32a33.7,33.7,0,0,0-3.78.2v-2.6a22.75,22.75,0,0,0,3.74.24h4.17v-1.26a19.94,19.94,0,0,0-.23-3.19H1145a18.85,18.85,0,0,0-.24,3.19V625h5.6a23.52,23.52,0,0,0,3.74-.24v2.6a32.14,32.14,0,0,0-3.74-.2h-5.6v5.12h7a25.27,25.27,0,0,0,4-.24v2.64a26.35,26.35,0,0,0-3.82-.23h-1.3v4.6h1.22a25.07,25.07,0,0,0,3.86-.23v2.71a27.35,27.35,0,0,0-3.86-.23h-1.22v11c0,2.52-.86,3.11-4.52,3.11-.63,0-1.27,0-3.55-.15a7,7,0,0,0-.63-2.6,29.33,29.33,0,0,0,4.49.47c1.5,0,1.77-.16,1.77-1V641.3h-11.1a30.76,30.76,0,0,0-3.94.23v-2.71a26.21,26.21,0,0,0,4,.23h11.06v-4.6h-11.06a30.08,30.08,0,0,0-4,.23V632a25.67,25.67,0,0,0,4,.24h5.23v-5.12Zm3,23.67a35.92,35.92,0,0,0-5.47-6.62l1.93-1.38a42.75,42.75,0,0,1,5.67,6.42Z"/><path d="M1175.21,649.57a5.91,5.91,0,1,1-5.91-5.91A5.89,5.89,0,0,1,1175.21,649.57Zm-9.57,0a3.66,3.66,0,1,0,3.66-3.67A3.68,3.68,0,0,0,1165.64,649.57Z"/><path d="M1211.91,623.46a18.49,18.49,0,0,0,3.82.24c2.16,0,5.31-.12,6.61-.28a3,3,0,0,0,1.46-.47l2.09,1.65c-.51.71-.59.95-2.17,5.71-.86,2.68-1.14,3.43-1.85,5.51a31,31,0,0,1,10.75,3.11,45,45,0,0,0,.47-8,10.29,10.29,0,0,0-.15-1.93l3,0a14.78,14.78,0,0,0-.16,2.44A53.21,53.21,0,0,1,1235,640c2.13,1.1,3.47,1.81,5.4,3a6.47,6.47,0,0,0,1.14.59l-1.06,3a47,47,0,0,0-6.15-3.9,18.43,18.43,0,0,1-4,7.13,21.26,21.26,0,0,1-6.26,4.81,10,10,0,0,0-2.09-2,17.34,17.34,0,0,0,6.38-4.53,15.29,15.29,0,0,0,3.62-6.62,28.94,28.94,0,0,0-10.87-3.26,75.52,75.52,0,0,1-3.7,9.49c-1.42,2.71-2.87,3.89-4.76,3.89-3,0-5.2-2.79-5.2-6.45a8.84,8.84,0,0,1,4.69-7.8,12.84,12.84,0,0,1,7.08-1.69c1.3-3.86,1.77-5.36,3.15-9.93-3.11.24-3.7.28-7.44.4a21.2,21.2,0,0,0-2.87.2Zm0,17.09a6.54,6.54,0,0,0-1.89,4.53c0,2.08,1.14,3.74,2.56,3.74,1.61,0,3-2.44,5.82-10.83C1215.45,638.23,1213.48,639,1211.91,640.55Z"/><path d="M1265.19,622.24c-.52.94-.52.94-4.37,10.83a65.84,65.84,0,0,1-2.84,6.5l-.43.86a6.66,6.66,0,0,0-.36.71l.2.08c2.6-3.74,4.61-5.16,7.4-5.16a4.38,4.38,0,0,1,3.94,2.32,10,10,0,0,1,.67,4.45v2.68c0,2,.16,3,.63,3.74a3.65,3.65,0,0,0,3,1.22c2.8,0,4.85-1.61,6.3-4.92a17.29,17.29,0,0,0,1.5-5.59,11.35,11.35,0,0,0,2.6,2,21.33,21.33,0,0,1-2.8,6.93,9.17,9.17,0,0,1-7.83,4.29c-2.92,0-5-1.3-5.75-3.54a16,16,0,0,1-.36-4.26v-2.24a8.4,8.4,0,0,0-.31-3,2.11,2.11,0,0,0-2.25-1.46c-2.28,0-4.84,2.09-7,5.83a40.12,40.12,0,0,0-3.63,9.05l-3-.94c.51-1.1.51-1.1,6.18-16.23,4.3-11.37,5.16-13.86,5.4-15Z"/><path d="M1306.1,621.41a13.25,13.25,0,0,0-.63,2.52c-.27,1.34-.51,2.29-1.06,4.29a32.44,32.44,0,0,0,7-1.29l.12,2.71-1.38.24a48.81,48.81,0,0,1-6.46.83,73.47,73.47,0,0,1-4.37,11.49c-.95,1.89-1.3,2.56-2.8,5.16-.35.55-.59,1-.78,1.34l-2.68-1.58a34.54,34.54,0,0,0,3.78-6.14,58.82,58.82,0,0,0,4.09-10.16c-1,0-2.32.08-2.91.08s-2,0-2.6,0c-.43,0-.75,0-.87,0h-.51l0-2.71a25.53,25.53,0,0,0,4.69.31c.79,0,2.08,0,2.83,0A40.56,40.56,0,0,0,1303,621ZM1324.81,652a22.69,22.69,0,0,0-6.89-5.36,9.2,9.2,0,0,1,.07,1.26c0,4.06-2.67,6.3-7.48,6.3s-7.68-2.2-7.68-5.71a5.6,5.6,0,0,1,3.67-5,11.47,11.47,0,0,1,4.64-.86,13.11,13.11,0,0,1,4,.59c-.2-2.56-.28-4.41-.28-5.4a15.76,15.76,0,0,1,.4-3.82l2.68.28a11.9,11.9,0,0,0-.52,3.66,46.41,46.41,0,0,0,.44,6,27.94,27.94,0,0,1,7.71,4.76,4.84,4.84,0,0,0,.71.63ZM1311,644.92c-3.35,0-5.48,1.38-5.48,3.54,0,2,1.89,3.23,5,3.23,3.39,0,4.93-1.34,4.93-4.29,0-.47-.08-1.69-.08-1.69A11.74,11.74,0,0,0,1311,644.92Zm13.82-10.71a43,43,0,0,0-10.44-5.36l1.46-2.2a53.65,53.65,0,0,1,10.39,5.2Z"/><path d="M1336.46,626.85c.75,0,1.15,0,1.42,0,.55,0,1,0,2.25-.12,2.2-.16,2.44-.2,7.28-.47l6.18-.4c4.85-.27,5.36-.31,6.66-.35l2.24-.08a28.17,28.17,0,0,0,4.69-.43l.23,2.91a16.71,16.71,0,0,0-4.41.55,19.48,19.48,0,0,0-7.56,3.94c-3.15,2.64-4.84,5.83-4.84,9.09s2,6,5.51,7.29a20.14,20.14,0,0,0,5.91,1.26h.39l-.51,3.19c-.43-.08-.51-.12-1.22-.24-3.9-.67-6.26-1.49-8.51-3a9.54,9.54,0,0,1-4.37-8c0-4.57,2.68-8.9,7.37-12.09a25.37,25.37,0,0,1,3.74-2.09,82.79,82.79,0,0,1-8.66.87c-7.84.55-12.17.94-13.59,1.3Zm26.35,5.86a29.84,29.84,0,0,1,4,6.11l-2,1.18a27.47,27.47,0,0,0-4-6.26Zm4.45-2.16a31.83,31.83,0,0,1,4,6.14l-2,1.1a31.06,31.06,0,0,0-4-6.18Z"/><path d="M1381.87,623.62a17.87,17.87,0,0,0-.28-3.51h3a17.48,17.48,0,0,0-.27,3.47v6.53h.51a12.64,12.64,0,0,0,2.84-.19v2.6a18.63,18.63,0,0,0-2.8-.16h-.55v19.21a30.42,30.42,0,0,0,.27,4.26h-3a26,26,0,0,0,.28-4.29V632.36h-1a25.78,25.78,0,0,0-3.26.16v-2.6a17.26,17.26,0,0,0,3.26.19h1ZM1395.69,639a25.94,25.94,0,0,0,3.31-.15c-.08.74-.08,1.18-.12,2.2a77.87,77.87,0,0,1-.79,9.45c-.59,3.74-1.18,4.29-4.69,4.29-.51,0-1.25,0-1.88-.08a7.48,7.48,0,0,0-.52-2.48,14.14,14.14,0,0,0,3,.36c1,0,1.37-.28,1.57-1a52.76,52.76,0,0,0,1-10.39h-3.47c-.75,6.34-2.4,10.36-5.91,14.25a8.73,8.73,0,0,0-1.69-2c3.11-2.92,4.61-6.3,5.36-12.21H1389a12.74,12.74,0,0,0-2.33.16v-2.52a9.94,9.94,0,0,0,2.44.19H1391c0-.86.08-1.49.08-2.16A12.49,12.49,0,0,0,1391,635h2.6a20.18,20.18,0,0,0-.23,2.56c0,.55,0,.75-.08,1.49Zm11.85-15.16a24.82,24.82,0,0,0,3.11-.15,14,14,0,0,0-.16,1.65,25.94,25.94,0,0,1-1.14,6.58,2.82,2.82,0,0,1-1.69,1.53,8.69,8.69,0,0,1-2.52.24c-1.1,0-2.44-.08-3.94-.2a9.61,9.61,0,0,0-.51-2.48,23.33,23.33,0,0,0,4.8.47c1.07,0,1.5-.27,1.78-1.06a19.28,19.28,0,0,0,.67-4.41h-8.67c-1.65,4.13-4.37,6.61-9.57,8.86a7.42,7.42,0,0,0-1.53-2.13c4.64-1.57,7.16-3.54,8.62-6.73h-4a23.59,23.59,0,0,0-3.81.2v-2.56a27.22,27.22,0,0,0,3.93.19h4.61a13.5,13.5,0,0,0,.43-3.23,3.66,3.66,0,0,0,0-.66l2.88.15a14.66,14.66,0,0,0-.47,2.09c-.12.59-.2.94-.36,1.65Zm2,15.16a26.9,26.9,0,0,0,3.27-.15c0,.71-.08,1.49-.12,2.36-.31,6.58-.79,10.39-1.54,12-.51,1.14-1.57,1.57-3.85,1.57a17.62,17.62,0,0,1-2.64-.11,7.73,7.73,0,0,0-.51-2.49,18,18,0,0,0,3.54.4c1,0,1.38-.2,1.57-.87.6-2,1-5.55,1.07-10.55H1406a29,29,0,0,1-2.48,9.25,17.45,17.45,0,0,1-3.42,5,7.4,7.4,0,0,0-1.73-1.89c2.95-2.59,4.64-6.38,5.39-12.32h-1.06a13,13,0,0,0-2.4.16v-2.52a10.64,10.64,0,0,0,2.52.19H1404c.08-1.18.12-1.73.12-2.44s0-1.06-.08-1.65h2.56a22.9,22.9,0,0,0-.28,3.19c0,.35,0,.51-.08.9Z"/><path d="M1448.65,628.42a31.34,31.34,0,0,0,4.61-.2c-.12,1.42-.12,1.42-.2,5.16a122.58,122.58,0,0,1-1.37,16.62c-.71,3.43-1.9,4.49-5,4.49a49.28,49.28,0,0,1-7-.63,12.65,12.65,0,0,0-.67-3,36,36,0,0,0,7.48,1c2.09,0,2.6-1,3.19-5.75a145.12,145.12,0,0,0,.86-15.32h-12.16a34.7,34.7,0,0,1-3.9,13.9c-2.29,4.06-5.63,7.17-11,10.2a6.27,6.27,0,0,0-2.09-2.2,24.1,24.1,0,0,0,6.62-4.26c4.57-4.13,6.77-9.21,7.68-17.64H1428a34.34,34.34,0,0,0-4.84.24v-2.88a33.46,33.46,0,0,0,4.88.24h7.84c.11-1.77.15-3,.15-4.65a23,23,0,0,0-.23-3.81h3.11a26.48,26.48,0,0,0-.2,3.18c0,1.86,0,1.86-.2,5.28Z"/><path d="M1465.52,652.35a2.63,2.63,0,1,1-2.63-2.62A2.65,2.65,0,0,1,1465.52,652.35Z"/><path d="M1477.82,652.35a2.62,2.62,0,1,1-2.62-2.62A2.64,2.64,0,0,1,1477.82,652.35Z"/><path d="M1488.9,652.35a2.63,2.63,0,1,1-2.62-2.62A2.64,2.64,0,0,1,1488.9,652.35Z"/><path class="cls-12" d="M848.58,715.48h792.35a5,5,0,0,1,5,5v356.06a0,0,0,0,1,0,0H843.58a0,0,0,0,1,0,0V720.48A5,5,0,0,1,848.58,715.48Z"/><g class="cls-8"><ellipse class="cls-9" cx="875.1" cy="767.94" rx="14.33" ry="14.31"/><ellipse class="cls-9" cx="875.1" cy="807.53" rx="14.33" ry="14.31"/><ellipse class="cls-9" cx="875.1" cy="847.13" rx="14.33" ry="14.31"/><ellipse class="cls-9" cx="875.1" cy="886.73" rx="14.33" ry="14.31"/><ellipse class="cls-9" cx="875.1" cy="926.33" rx="14.33" ry="14.31"/><ellipse class="cls-9" cx="875.1" cy="965.92" rx="14.33" ry="14.31"/><ellipse class="cls-9" cx="875.1" cy="1005.52" rx="14.33" ry="14.31"/><ellipse class="cls-9" cx="875.1" cy="1045.12" rx="14.33" ry="14.31"/></g><g class="cls-8"><line class="cls-11" x1="1612.86" y1="814.88" x2="904.12" y2="814.88"/><line class="cls-11" x1="1612.86" y1="854.56" x2="904.12" y2="854.56"/><line class="cls-13" x1="1612.86" y1="854.56" x2="904.12" y2="854.56"/><line class="cls-11" x1="1612.86" y1="889.33" x2="904.12" y2="889.33"/><line class="cls-11" x1="1612.86" y1="924.09" x2="904.12" y2="924.09"/><line class="cls-11" x1="904.12" y1="958.86" x2="1612.86" y2="958.86"/><line class="cls-11" x1="1612.86" y1="993.63" x2="904.12" y2="993.63"/><line class="cls-11" x1="1612.86" y1="1028.4" x2="904.12" y2="1028.4"/><line class="cls-11" x1="1612.86" y1="1063.17" x2="904.12" y2="1063.17"/></g><path d="M928.15,811.73c-.47.08-.63.12-1.18.24a69.86,69.86,0,0,1-7,1.18V820a28.06,28.06,0,0,1,8.47-1.42,13.23,13.23,0,0,1,7,1.66,8.1,8.1,0,0,1-4,15.12,5.82,5.82,0,0,1-6.07-4.45,14.49,14.49,0,0,1-.47-4.45,8.66,8.66,0,0,0,2.6-1,11.39,11.39,0,0,0-.08,1.53c0,4.1,1.18,5.79,4.06,5.79a5.23,5.23,0,0,0,5.27-5.55c0-3.86-3.26-6.26-8.42-6.26a26.66,26.66,0,0,0-8.35,1.53v9.85c0,2.12-1,3.15-2.88,3.15a10.42,10.42,0,0,1-6.49-2.52,4.77,4.77,0,0,1-1.81-3.71c0-1.73,1-3.42,3.11-5.23a20.88,20.88,0,0,1,5.55-3.23v-7.44c-.36,0-.36,0-1.58.11-.7,0-1.37,0-2.52,0-.59,0-1.65,0-2.08,0h-1.62v-2.59a23.08,23.08,0,0,0,4,.27c1.06,0,2.6,0,3.78-.12v-3.89a25.92,25.92,0,0,0-.2-3.75h2.92A22.27,22.27,0,0,0,920,807v3.78a39.91,39.91,0,0,0,8-1.7Zm-10.67,11.62c-3.9,1.89-6.1,4-6.1,5.9,0,.83.55,1.62,1.69,2.37a7.33,7.33,0,0,0,3.5,1.14c.79,0,.91-.24.91-1.93ZM939.1,816a32.13,32.13,0,0,0-8-7.72l2.05-1.54a33.11,33.11,0,0,1,7.95,7.48Z"/><path d="M954.3,816.3a31.28,31.28,0,0,0,4-.67,65.28,65.28,0,0,1,12-1.42c3,0,5.15.47,6.77,1.5a7,7,0,0,1,3.35,6.26c0,4.21-2.41,7.95-6.78,10.63-3,1.81-5.55,2.64-11.42,3.74a9.66,9.66,0,0,0-1.26-2.87A25.06,25.06,0,0,0,972,830.28a9.67,9.67,0,0,0,3.38-2.8,8.79,8.79,0,0,0,2-5.35,4.76,4.76,0,0,0-2.52-4.41,10.94,10.94,0,0,0-4.84-.87c-4.06,0-11.93,1.38-15,2.64ZM960.09,804c3.86,1.46,9.57,2.37,16,2.44l-.43,2.84a71.28,71.28,0,0,1-16.54-2.6Z"/><path d="M996.32,809.49a36.1,36.1,0,0,0,8.5.67,30.56,30.56,0,0,0,1.26-7l3.15.31a23.09,23.09,0,0,0-.63,2.52c-.55,2.29-.67,2.76-1.06,4.18,7.72-.28,13-.83,15.51-1.7l.2,2.84c-.67.08-.9.08-1.73.2a134.42,134.42,0,0,1-14.61,1.14,53.15,53.15,0,0,1-3.94,10.12l0,.08c2.76-2,7.17-3.31,11.46-3.31,6.22,0,10.2,2.83,10.2,7.24,0,5.36-5.24,8.86-13.19,8.86a29.52,29.52,0,0,1-9.73-1.53,4.3,4.3,0,0,0,0-.63v-.24c0-.2-.08-.9-.2-2.16a24.2,24.2,0,0,0,9.85,2c6.22,0,10.31-2.48,10.31-6.26,0-3-2.83-4.8-7.56-4.8a21.42,21.42,0,0,0-9.13,2.13,8.29,8.29,0,0,0-3.31,2.52l-2.83-1.15a59.51,59.51,0,0,0,5.27-12.83c-2.52,0-4.25-.12-6.53-.28-.52,0-.87,0-1.11,0h-.31Z"/><path d="M1047.43,804.64a59.18,59.18,0,0,0-.51,8.27c-.16,4.73-.28,10.08-.28,11.85,0,.48,0,1.5.08,2.37.16,2.36.67,3.66,1.85,4.72a7.41,7.41,0,0,0,4.92,1.54c4.69,0,8.31-2.36,10.56-6.85a23,23,0,0,0,1.93-6.18,13.46,13.46,0,0,0,2.83,1.92c-1.49,4.57-2.64,6.9-4.37,8.94a13.87,13.87,0,0,1-11.1,4.89c-3.35,0-5.83-1-7.41-2.76s-2.16-3.94-2.16-8.07c0-2.64,0-3.63.35-16,0-1.18,0-1.89,0-2.56a12.26,12.26,0,0,0-.16-2.09Zm11,.83a31.82,31.82,0,0,1,4,6.1l-2,1.19a30.85,30.85,0,0,0-4-6.27Zm4.33-2.28a33.68,33.68,0,0,1,4.09,6.1l-2,1.14a29.38,29.38,0,0,0-4-6.18Z"/><path d="M1081.69,813.27c1.42,0,5.51-.51,8.7-1a48,48,0,0,0,1.18-8.34v-.52l3.15.36a24.38,24.38,0,0,0-.74,3.78c-.2,1.14-.48,2.6-.83,4.49a22.68,22.68,0,0,1,2.32-.12c2.8,0,4.45.47,5.67,1.65,1.38,1.3,1.93,3.11,1.93,6.34,0,6-1,11.26-2.64,13.55a4.09,4.09,0,0,1-3.85,1.85,14.7,14.7,0,0,1-5.95-1.54,8.4,8.4,0,0,0,.08-1.38,7.47,7.47,0,0,0-.12-1.57,14.72,14.72,0,0,0,5.87,1.81c1,0,1.73-.63,2.24-1.89,1.07-2.52,1.66-6.54,1.66-11,0-4.17-1.19-5.51-4.85-5.51a22.19,22.19,0,0,0-2.83.2,74.24,74.24,0,0,1-6,16.69c-.51,1-1.34,2.52-2.56,4.73l-2.68-1.58a37.68,37.68,0,0,0,4.1-7.12,65.22,65.22,0,0,0,4.33-12.49c-3.39.52-5.28.83-5.63.91-.91.16-1.22.24-2.28.51Zm25.87-3.63a35.63,35.63,0,0,1,8.23,13.94l-2.52,1.46a32.3,32.3,0,0,0-8-14.14Z"/><path d="M1139.62,804.37c-.52.94-.52.94-4.37,10.83a69.66,69.66,0,0,1-2.84,6.49l-.43.87a5.82,5.82,0,0,0-.36.71l.2.08c2.6-3.74,4.61-5.16,7.4-5.16a4.36,4.36,0,0,1,3.94,2.32,10,10,0,0,1,.67,4.45v2.68c0,2.05.16,3,.63,3.74a3.65,3.65,0,0,0,3,1.22c2.8,0,4.85-1.61,6.3-4.92a17.29,17.29,0,0,0,1.5-5.59,11.35,11.35,0,0,0,2.6,2,21.33,21.33,0,0,1-2.8,6.93,9.17,9.17,0,0,1-7.83,4.29c-2.92,0-5-1.3-5.75-3.55a15.9,15.9,0,0,1-.36-4.25v-2.24a8.72,8.72,0,0,0-.31-3,2.12,2.12,0,0,0-2.25-1.45c-2.28,0-4.84,2.08-7,5.83a40.56,40.56,0,0,0-3.62,9.05l-3-.94c.51-1.11.51-1.11,6.18-16.23,4.3-11.38,5.16-13.86,5.4-15Z"/><path d="M912.68,943.42a19.36,19.36,0,0,0,3.81.23c2.17,0,5.32-.12,6.62-.27a2.9,2.9,0,0,0,1.46-.48l2.08,1.66c-.51.71-.59.94-2.16,5.71-.87,2.68-1.14,3.42-1.85,5.51a30.82,30.82,0,0,1,10.75,3.11,45.06,45.06,0,0,0,.47-8,9.41,9.41,0,0,0-.16-1.93l3,0a14.69,14.69,0,0,0-.16,2.44,54.37,54.37,0,0,1-.71,8.54c2.13,1.11,3.46,1.81,5.39,3a8.41,8.41,0,0,0,1.15.59l-1.07,3a46.67,46.67,0,0,0-6.14-3.9,18.65,18.65,0,0,1-4.06,7.13,21.22,21.22,0,0,1-6.26,4.8,10.24,10.24,0,0,0-2.08-2.05A17.41,17.41,0,0,0,929.1,968a15.35,15.35,0,0,0,3.62-6.62,29.19,29.19,0,0,0-10.87-3.27,77.11,77.11,0,0,1-3.7,9.49c-1.42,2.72-2.88,3.9-4.77,3.9-3,0-5.19-2.8-5.19-6.46a8.83,8.83,0,0,1,4.68-7.79,12.89,12.89,0,0,1,7.09-1.7c1.3-3.86,1.77-5.35,3.15-9.92-3.11.24-3.7.28-7.44.39a21.38,21.38,0,0,0-2.88.2Zm0,17.08a6.54,6.54,0,0,0-1.89,4.53c0,2.09,1.14,3.74,2.55,3.74,1.62,0,3-2.44,5.83-10.82C916.22,958.18,914.25,958.93,912.68,960.5Z"/><path d="M965.56,942.19c-.51.95-.51.95-4.37,10.83a65.84,65.84,0,0,1-2.84,6.5c-.07.16-.23.47-.43.87a4.27,4.27,0,0,0-.35.71l.19.07c2.6-3.74,4.61-5.15,7.41-5.15a4.34,4.34,0,0,1,3.93,2.32,9.82,9.82,0,0,1,.67,4.45v2.68c0,2,.16,3,.63,3.74a3.69,3.69,0,0,0,3,1.22c2.79,0,4.84-1.62,6.3-4.92a17.34,17.34,0,0,0,1.49-5.6,11.29,11.29,0,0,0,2.6,2,21.34,21.34,0,0,1-2.79,6.93,9.17,9.17,0,0,1-7.84,4.29c-2.91,0-5-1.29-5.75-3.54a16.6,16.6,0,0,1-.35-4.25V963.1a8.37,8.37,0,0,0-.32-3,2.11,2.11,0,0,0-2.24-1.46c-2.29,0-4.85,2.09-7,5.83a40.34,40.34,0,0,0-3.62,9.06l-3-.95c.52-1.1.52-1.1,6.19-16.22,4.29-11.38,5.16-13.86,5.39-15Z"/><path d="M1006.08,941.37a13,13,0,0,0-.63,2.52c-.27,1.34-.51,2.28-1.06,4.29a33,33,0,0,0,7.05-1.3l.12,2.72-1.38.23a47.19,47.19,0,0,1-6.46.83,73.6,73.6,0,0,1-4.37,11.5c-1,1.89-1.3,2.56-2.8,5.16-.35.55-.59,1-.78,1.34l-2.68-1.58a34.91,34.91,0,0,0,3.78-6.14,58.82,58.82,0,0,0,4.09-10.16c-1,0-2.32.08-2.91.08s-2,0-2.6,0c-.43,0-.75,0-.87,0h-.51l0-2.72a24.53,24.53,0,0,0,4.69.32c.79,0,2.08,0,2.83,0a40.65,40.65,0,0,0,1.34-7.41Zm18.71,30.55a22.67,22.67,0,0,0-6.89-5.35,9.2,9.2,0,0,1,.07,1.26c0,4.06-2.67,6.3-7.48,6.3s-7.68-2.21-7.68-5.71a5.57,5.57,0,0,1,3.67-5,11.47,11.47,0,0,1,4.64-.87,13.11,13.11,0,0,1,4,.59c-.2-2.56-.28-4.41-.28-5.39a15.71,15.71,0,0,1,.4-3.82l2.68.27a12,12,0,0,0-.52,3.67,46.11,46.11,0,0,0,.44,6,28.2,28.2,0,0,1,7.71,4.77,4.84,4.84,0,0,0,.71.63Zm-13.86-7c-3.35,0-5.48,1.37-5.48,3.54,0,2,1.89,3.23,5,3.23,3.39,0,4.93-1.34,4.93-4.29,0-.48-.08-1.7-.08-1.7A11.72,11.72,0,0,0,1010.93,964.88Zm13.82-10.71a42.61,42.61,0,0,0-10.44-5.36l1.46-2.21a54.81,54.81,0,0,1,10.39,5.2Z"/><path d="M1043.06,942.47c-1.69,3.94-3,12-3,18.47,0,1.38.08,3.7.15,5.51,0,.32,0,.39,0,1.1v.75l.16,0a35.69,35.69,0,0,1,2.32-6.93,5,5,0,0,0,.32-.79l1.93.91c-1.85,3.86-3.39,8.86-3.39,11.18a4.21,4.21,0,0,0,.08.79l-2.79.27c0-.35-.08-.55-.24-1.45a62.6,62.6,0,0,1-1.1-11.7,67,67,0,0,1,2-16.18A17.86,17.86,0,0,0,1040,942Zm4,7.32a26.89,26.89,0,0,0,7.08.63c1.54,0,2.6,0,4.22-.11,0-3.71,0-3.71,0-6.7a8.52,8.52,0,0,0-.12-1.61h3a41.45,41.45,0,0,0-.27,6.18c0,.43,0,1.06,0,1.93a26.66,26.66,0,0,0,6.81-1.46l.12,2.68c-.08,0-.08,0-2.76.55a37.69,37.69,0,0,1-4.17.63c0,3.9.11,5.91.43,11.15a28.61,28.61,0,0,1,6.58,3.85c.47.32.55.4,1,.67l-1.22,2.76a21.43,21.43,0,0,0-5.59-4.1,1.8,1.8,0,0,1-.4-.23,2.12,2.12,0,0,0-.35-.24,5.59,5.59,0,0,1,.08,1,6.86,6.86,0,0,1-.47,2.67c-1,2.09-3.35,3.31-6.58,3.31-4.57,0-7.44-2.16-7.44-5.59,0-3.27,3.11-5.59,7.48-5.59a11,11,0,0,1,4.37.79c-.12-.83-.28-4.53-.39-10.28-1.77.08-3,.12-4.49.12s-3.07,0-4.45-.12a10.15,10.15,0,0,0-1.26-.08,5.83,5.83,0,0,0-.67,0,1.84,1.84,0,0,0-.4,0H1047Zm7.56,14.77c-3.07,0-5.08,1.3-5.08,3.27s1.81,3.19,4.57,3.19a5.4,5.4,0,0,0,4-1.38,4.61,4.61,0,0,0,.75-3.07c0-.28,0-1.18,0-1.18A10.16,10.16,0,0,0,1054.6,964.56Z"/><path d="M1090.24,941.64c0,1.89,1.89,10.2,3,13,2.16-.91,3.46-1.42,9.53-3.51a18.11,18.11,0,0,0,2.52-1.06l1.18,3a103.33,103.33,0,0,0-11.85,3.82c-6.74,2.72-9.65,5.32-9.65,8.59,0,3.54,3,5,10.75,5,4.53,0,8.94-.51,11.26-1.34l.32,3.27a10.41,10.41,0,0,0-1.19,0l-.39,0-1.34.15a77.25,77.25,0,0,1-8.7.51,26.75,26.75,0,0,1-8.74-1.06c-3.23-1.18-4.88-3.35-4.88-6.46a8.51,8.51,0,0,1,3.5-6.69,24.62,24.62,0,0,1,5.16-3.23,81,81,0,0,1-2.88-11,18.35,18.35,0,0,0-.66-2.53Zm13.3-.59a31.19,31.19,0,0,1,4.06,6.11l-2,1.18a30.49,30.49,0,0,0-4-6.26Zm4.42-2.16a31.41,31.41,0,0,1,4.09,6.14l-2,1.1a32.52,32.52,0,0,0-4-6.18Z"/><path d="M1123.63,954.13a31.28,31.28,0,0,0,4-.67,65.28,65.28,0,0,1,12-1.42c3,0,5.15.47,6.77,1.5a7,7,0,0,1,3.35,6.26c0,4.21-2.41,8-6.78,10.63-3,1.81-5.55,2.64-11.42,3.74a10,10,0,0,0-1.26-2.88,24.93,24.93,0,0,0,11.07-3.19,9.54,9.54,0,0,0,3.38-2.79,8.8,8.8,0,0,0,2-5.36,4.78,4.78,0,0,0-2.52-4.41,11,11,0,0,0-4.84-.86c-4.06,0-11.93,1.38-15,2.63Zm5.79-12.29c3.86,1.46,9.57,2.36,16,2.44l-.43,2.84a72.36,72.36,0,0,1-16.54-2.6Z"/><path d="M1161.87,955.82a15.35,15.35,0,0,0,3.07.2h1.81a17.49,17.49,0,0,0,3-.2,28.87,28.87,0,0,0-.19,4.17v7.72a5.5,5.5,0,0,0,1.89,2.6c2.08,1.61,4.45,2.17,9.21,2.17a144.14,144.14,0,0,0,17.32-.75,8.87,8.87,0,0,0-.9,2.83c-4.33.16-9.29.24-14.37.24-6.34,0-8.67-.36-11.11-1.77a9.84,9.84,0,0,1-3.34-3.31,43.54,43.54,0,0,1-4.57,4.1c-.36.27-.59.51-1.38,1.18l-1.34-2.56a23,23,0,0,0,6.14-4.73v-9.49h-2.36a15.3,15.3,0,0,0-2.91.2Zm2.48-14.85a46.78,46.78,0,0,1,6.14,7.09l-2,1.77a37.2,37.2,0,0,0-6-7.32Zm28.7,11.9a18.7,18.7,0,0,0,3.15-.16,23.22,23.22,0,0,0-.15,3.11v11.42c0,2-.71,2.44-4.26,2.44-.74,0-1.37,0-2.79-.08a12.24,12.24,0,0,0-.55-2.32,24.3,24.3,0,0,0,3.86.31c1,0,1.37-.15,1.37-.67v-12h-18.15v11.38a21.5,21.5,0,0,0,.2,3.59H1173a22.39,22.39,0,0,0,.2-3.59V955.82a21.75,21.75,0,0,0-.16-3.11,18.72,18.72,0,0,0,3,.16h.4v-8.35a23,23,0,0,0-.16-3.23,30.6,30.6,0,0,0,3.46.16h9.89a25.38,25.38,0,0,0,3.58-.16,20.58,20.58,0,0,0-.16,3.23Zm-10-3.74a24.3,24.3,0,0,0-.12-2.8,26.9,26.9,0,0,0,3,.12h4.8v-2.92h-12v9.34h4.29Zm7,14.09a15.37,15.37,0,0,0,.12,2.32c-.83-.07-1.62-.11-2.8-.11h-5.9v1.93h-2.29a20.55,20.55,0,0,0,.12-2.41v-5.19a20.25,20.25,0,0,0-.12-2.4,22.4,22.4,0,0,0,2.8.11h5.39a22.4,22.4,0,0,0,2.8-.11,16.9,16.9,0,0,0-.12,2.32Zm-8.58.32h6.41v-4.22h-6.41Zm9.25-10.67v-4.53h-5.47v4.53Z"/><path d="M1215.66,958.93c-2.56,2.13-3.74,3.94-3.74,5.79s1.14,3.11,3.34,3.86a25.25,25.25,0,0,0,7.21.78c4.92,0,9.61-.59,11.81-1.49l.36,3.23c-.55,0-.59.08-1.34.19a63.31,63.31,0,0,1-10.63.91,27.76,27.76,0,0,1-9.06-1.22c-2.95-1.22-4.49-3.23-4.49-6,0-2.56,1.5-5,4.53-7.6Zm-4.14-14.37a45.1,45.1,0,0,0,10.48.94,43.27,43.27,0,0,0,10-.82l.2,2.6a60,60,0,0,0-9.93,6l-2-1.61a61,61,0,0,1,7-4.18,30.74,30.74,0,0,1-6,.51,75.78,75.78,0,0,1-8.66-.51c-.75-.08-.75-.08-1.3-.12Zm19.65,6.81a31.19,31.19,0,0,1,4,6.1l-2,1.18a30.35,30.35,0,0,0-4-6.26Zm4.3-2.32a30.26,30.26,0,0,1,4.09,6.14l-2,1.1a33,33,0,0,0-4-6.18Z"/><path d="M1257.72,942.16a59.5,59.5,0,0,0-.52,8.3c-.15,4.73-.27,10.09-.27,11.86,0,.47,0,1.45.08,2.36.16,2.36.67,3.66,1.85,4.72a7.39,7.39,0,0,0,4.92,1.54c4.69,0,8.31-2.36,10.55-6.85a23.24,23.24,0,0,0,1.93-6.18,11.25,11.25,0,0,0,2.84,1.89c-1.5,4.6-2.64,6.93-4.37,8.93a13.8,13.8,0,0,1-11.11,4.93c-3.34,0-5.83-.95-7.4-2.76s-2.17-3.94-2.17-8.07c0-2.64,0-3.62.36-16,0-1.18,0-1.93,0-2.56a11.84,11.84,0,0,0-.16-2.08Z"/><path d="M1291.54,946.88H1293c.55,0,1,0,2.24-.12,4.69-.35,17.29-1.06,22.37-1.3a26.35,26.35,0,0,0,4.69-.43l.23,3a18,18,0,0,0-4.41.52,19.88,19.88,0,0,0-7.56,4c-3.15,2.64-4.84,5.83-4.84,9.1s2,5.94,5.51,7.28a20.14,20.14,0,0,0,5.91,1.26h.39l-.51,3.19-1.22-.23c-3.9-.67-6.26-1.5-8.51-3a9.59,9.59,0,0,1-4.37-8c0-4.57,2.68-8.94,7.37-12.09a25.35,25.35,0,0,1,3.74-2.08,76.3,76.3,0,0,1-8.67.86c-8.15.55-11.65.87-13.58,1.3Z"/><path d="M1363.09,972.48a31.53,31.53,0,0,0-8-5.64c-.67-.35-1.58-.74-2.64-1.18a11.23,11.23,0,0,1,.08,1.42c0,2.09-.28,3.35-1,4.29-1.15,1.62-3.55,2.48-6.66,2.48a10.27,10.27,0,0,1-6.1-1.57,5.16,5.16,0,0,1-2.13-4.14c0-2.6,2-4.64,5.51-5.43a17.05,17.05,0,0,1,4.1-.39,17.82,17.82,0,0,1,3.54.31,1.1,1.1,0,0,1,0-.47,3.16,3.16,0,0,1,0-.43c0-.36,0-1.18-.08-2.33,0-.51,0-1.26-.07-2.28-1.42,0-3.39.08-4.65.08-2.36,0-4.21-.08-6.65-.28-.44,0-.75,0-1,0H1337l0-2.6a47.74,47.74,0,0,0,9,.63c1,0,2.41,0,3.51,0l-.08-5.39c-1.14,0-1.77,0-2.68,0-2.87,0-6.06-.12-9.61-.39a4.66,4.66,0,0,0-.71,0,3.23,3.23,0,0,0-.55,0l0-2.68a49.29,49.29,0,0,0,10.08.78c.79,0,2.13,0,3.43,0,0-4.81,0-4.81-.2-5.67h3a45.87,45.87,0,0,0-.27,5.55c5.43-.36,9.49-.91,11.65-1.62l.2,2.68c-.67,0-.67,0-2.72.32a80.73,80.73,0,0,1-9.13.94c0,3.23,0,3.23.08,5.32,5.35-.4,8.74-.87,10.9-1.62l.16,2.72c-.51,0-.9.08-2.28.28-2.72.43-5.83.74-8.74.94.07,2.2.07,2.2.23,6a34.65,34.65,0,0,1,11,5.75,13.37,13.37,0,0,0,1.34.91ZM1349.78,965a14.56,14.56,0,0,0-4-.43c-3.9,0-6.46,1.42-6.46,3.5s2,3.27,5.39,3.27c2.09,0,3.59-.43,4.33-1.3.56-.55.79-1.65.79-3.54Z"/><path d="M1394.44,943.53a13.07,13.07,0,0,0-.16-2.28h3a34,34,0,0,0-.19,4.92v.43c7.44,0,10.47-.11,11.77-.27v2.8a68.86,68.86,0,0,0-7.52-.2c-.59,0-1,0-4.21.08v7.79a11.31,11.31,0,0,1,.94,4.65,12.7,12.7,0,0,1-5.27,10.28,25.08,25.08,0,0,1-6.23,3.19,8.32,8.32,0,0,0-1.73-2.48,20.29,20.29,0,0,0,6.38-3,10.18,10.18,0,0,0,4.41-8.31,5.43,5.43,0,0,1-1.06,1.93A6.58,6.58,0,0,1,1383.1,959c0-3.74,3-6.5,7-6.5a6.07,6.07,0,0,1,4.57,1.77c0-.55,0-.7,0-2.16,0-.16,0-.55,0-1v-2c-7.92.15-15.87.55-18.51,1l-.12-2.87c.71,0,1,0,1.58,0,1.14,0,1.14,0,7.48-.24,3.78-.16,6.85-.24,9.53-.32Zm-1.69,11.86a5,5,0,0,0-2.64-.63,4.16,4.16,0,0,0-4.37,4.13,3.81,3.81,0,0,0,4,3.9,4.41,4.41,0,0,0,4.61-4.65A2.84,2.84,0,0,0,1392.75,955.39Z"/><path d="M1418.78,951.09c1.41,0,5.51-.51,8.7-1a47.94,47.94,0,0,0,1.18-8.35v-.51l3.15.35a24.45,24.45,0,0,0-.75,3.79c-.2,1.14-.47,2.59-.82,4.48.9-.07,1.41-.11,2.32-.11,2.79,0,4.45.47,5.67,1.65,1.38,1.3,1.93,3.11,1.93,6.34,0,6-1,11.26-2.64,13.55a4.14,4.14,0,0,1-3.86,1.85,14.91,14.91,0,0,1-6-1.54,8.46,8.46,0,0,0,.08-1.38,8.14,8.14,0,0,0-.11-1.57,14.73,14.73,0,0,0,5.86,1.81q1.49,0,2.25-1.89c1.06-2.52,1.65-6.54,1.65-10.95,0-4.17-1.18-5.51-4.84-5.51a23.9,23.9,0,0,0-2.84.19,74.13,74.13,0,0,1-5.94,16.7c-.52.95-1.34,2.52-2.56,4.73l-2.68-1.58a37.32,37.32,0,0,0,4.09-7.13,64.19,64.19,0,0,0,4.34-12.48c-3.39.51-5.28.83-5.63.91a21.66,21.66,0,0,0-2.29.51Zm25.87-3.62a35.68,35.68,0,0,1,8.23,13.94l-2.52,1.46a32.27,32.27,0,0,0-8-14.14Z"/><path d="M1475,965.51a12,12,0,0,0,.16-2.56,7.17,7.17,0,0,1,1.45-4.73c.79-1.06,1.19-1.38,3.47-3a18.51,18.51,0,0,0,2.68-2.13,4.72,4.72,0,0,0,1.38-3.27c0-3-2.6-5-6.34-5a7.2,7.2,0,0,0-5.87,2.48,7.75,7.75,0,0,0-1.42,3.23l-3.31-.51c.83-2.84,1.62-4.17,3.23-5.51a11.3,11.3,0,0,1,7.48-2.32c5.44,0,9.41,3.07,9.41,7.28a7.41,7.41,0,0,1-.94,3.82c-.71,1.18-1.42,1.89-3.58,3.42-2.33,1.62-3,2.17-3.55,3a5.78,5.78,0,0,0-1,3.62,15.37,15.37,0,0,0,.16,2.17Zm3.62,3.66v3.7h-3.82v-3.7Z"/><path d="M1506.4,958.93c0-2.32,0-4,.11-5.91a32.09,32.09,0,0,1-3.62,5.87,6.65,6.65,0,0,0-1.57-2.28,38,38,0,0,0,6.73-11.66,21.89,21.89,0,0,0,1.34-4.92l2.64.9a31.71,31.71,0,0,0-1.15,3.35c-.43,1.26-1.14,3.07-2.08,5.12V971c0,2.36,0,3.54.15,4.92h-2.79a38.92,38.92,0,0,0,.24-4.84Zm9-2.64a32.11,32.11,0,0,0-3.66.2v-2.4a24.25,24.25,0,0,0,3.62.19h3.78a27.38,27.38,0,0,0-2.08-4.52H1515a33.25,33.25,0,0,0-3.66.19v-2.52a29.69,29.69,0,0,0,3.62.2h5.43v-3.54a22.66,22.66,0,0,0-.23-3.71h2.56a34,34,0,0,0-.12,3.71v3.54H1526v-3.54c0-2,0-2.72-.11-3.71h2.56a20.45,20.45,0,0,0-.24,3.71v3.54h6a19.83,19.83,0,0,0,3.59-.24V950a24.39,24.39,0,0,0-3.59-.19h-2.87a39,39,0,0,1-2.4,4.52h4.21a23.59,23.59,0,0,0,3.58-.19v2.4a30,30,0,0,0-3.58-.2H1525c0,1.85,0,2,0,2.88h6.85a29.28,29.28,0,0,0,3.59-.2v2.36a30.51,30.51,0,0,0-3.59-.19h-7c-.15,1.53-.19,1.89-.39,3h9.49a28.5,28.5,0,0,0,3.7-.2v2.56a27.39,27.39,0,0,0-3.7-.24h-8.15c2.64,3.63,6.61,5.87,12.56,7.09a7.2,7.2,0,0,0-1.26,2.52,25.83,25.83,0,0,1-9.69-4.84,16.69,16.69,0,0,1-3.78-4.22,13.28,13.28,0,0,1-4.76,5.79,22.57,22.57,0,0,1-7.64,3.11,6.76,6.76,0,0,0-1.26-2.28c3.62-.75,5.35-1.38,7.2-2.52a10.37,10.37,0,0,0,4.18-4.65h-6.7a29.16,29.16,0,0,0-3.78.24V964a24.61,24.61,0,0,0,3.75.2H1522a25.26,25.26,0,0,0,.43-3h-5.63a23.8,23.8,0,0,0-3.62.19V959a23.42,23.42,0,0,0,3.58.2h5.83c0-1,0-1.26,0-2.88ZM1515.1,941a28.23,28.23,0,0,1,3.23,5l-1.93,1a19.72,19.72,0,0,0-3.15-5Zm11.42,13.27a22.78,22.78,0,0,0,2.2-4.52h-9.17a30.64,30.64,0,0,1,2,4.52Zm9.41-12.24a30.67,30.67,0,0,1-3.59,5l-2-.87a18.71,18.71,0,0,0,3.42-5.12Z"/><path d="M914.24,1011.38c-1.69,3.94-3,12-3,18.47,0,1.38.08,3.7.16,5.51,0,.32,0,.4,0,1.11v.74l.15,0a35.1,35.1,0,0,1,2.33-6.93,6.57,6.57,0,0,0,.31-.78l1.93.9c-1.85,3.86-3.39,8.86-3.39,11.19a4.21,4.21,0,0,0,.08.78l-2.79.28c0-.36-.08-.55-.24-1.46a62.57,62.57,0,0,1-1.1-11.69,66.54,66.54,0,0,1,2-16.19,18.75,18.75,0,0,0,.43-2.48Zm4,7.33a27.33,27.33,0,0,0,7.08.63c1.54,0,2.6,0,4.22-.12,0-3.7,0-3.7,0-6.69a8.71,8.71,0,0,0-.12-1.62h2.95a41.63,41.63,0,0,0-.27,6.18c0,.44,0,1.07,0,1.93a26.74,26.74,0,0,0,6.81-1.45l.12,2.67c-.08,0-.08,0-2.76.56a39.85,39.85,0,0,1-4.17.63c0,3.89.12,5.9.43,11.14a28.44,28.44,0,0,1,6.58,3.86c.47.31.55.39,1,.67l-1.22,2.75a21.22,21.22,0,0,0-5.59-4.09,2.17,2.17,0,0,1-.39-.24,2.81,2.81,0,0,0-.36-.24,5.7,5.7,0,0,1,.08,1,6.91,6.91,0,0,1-.47,2.68c-1,2.08-3.35,3.3-6.58,3.3-4.57,0-7.44-2.16-7.44-5.59,0-3.27,3.11-5.59,7.48-5.59a11.12,11.12,0,0,1,4.37.79c-.12-.83-.27-4.53-.39-10.28-1.77.08-3,.12-4.49.12s-3.07,0-4.45-.12a10.15,10.15,0,0,0-1.26-.08,5.72,5.72,0,0,0-.67,0,1.76,1.76,0,0,0-.39,0h-.16Zm7.56,14.77c-3.07,0-5.08,1.29-5.08,3.26s1.81,3.19,4.57,3.19a5.4,5.4,0,0,0,4-1.38,4.6,4.6,0,0,0,.75-3.07c0-.27,0-1.18,0-1.18A10.15,10.15,0,0,0,925.78,1033.48Z"/><path d="M958.7,1024.26a4.34,4.34,0,0,0-.24.67l-.23.79-.2.86a35.19,35.19,0,0,1-6.89,13.59,8.94,8.94,0,0,0-2.6-1.7c2.32-2.24,4.1-5.19,5.79-9.68a20.12,20.12,0,0,0,1.38-5.36Zm5.51-9.65a17.23,17.23,0,0,0-.24-4h3.23a23.61,23.61,0,0,0-.19,4.09v2.56h9.92a26.73,26.73,0,0,0,4.61-.23v3a30.16,30.16,0,0,0-4.53-.2H967v19.61a24.76,24.76,0,0,0,.19,4.17H964a21.49,21.49,0,0,0,.24-4.13v-19.65h-9.65a30,30,0,0,0-4.52.2v-3a26.06,26.06,0,0,0,4.56.23h9.61Zm11.07,8.86a27.45,27.45,0,0,0,1.45,4.45,34.88,34.88,0,0,0,6.11,10.55,8.45,8.45,0,0,0-2.48,1.86,47.3,47.3,0,0,1-6.86-13.55c-.35-1.06-.7-1.93-1-2.56Zm1.14-14.61a31.94,31.94,0,0,1,4,5.95l-2,1.14a32.21,32.21,0,0,0-4-6.06Zm4.88-1.45a33.15,33.15,0,0,1,4.06,6.14l-2,1.14a29,29,0,0,0-4-6.18Z"/><path d="M992.17,1025.05a27.8,27.8,0,0,0,4.89.23h22.87a31.07,31.07,0,0,0,4.77-.19v3.19a44.46,44.46,0,0,0-4.81-.16H997.06a42.43,42.43,0,0,0-4.89.16Z"/><path d="M1042.93,1043a25.61,25.61,0,0,0,.24-4.13v-24.45a22.79,22.79,0,0,0-.24-4h3.39a22,22,0,0,0-.2,4.09v7.37a103.33,103.33,0,0,1,17.52,8.31l-1.69,2.91a82.76,82.76,0,0,0-14.69-7.8,4.77,4.77,0,0,1-1.22-.67l-.08,0a13,13,0,0,1,.16,2.33v11.85a23.91,23.91,0,0,0,.2,4.17Zm15.12-31a29.84,29.84,0,0,1,4.06,6.1l-2,1.18a29.33,29.33,0,0,0-4.06-6.26Zm4.45-2.17a33.15,33.15,0,0,1,4.06,6.14l-2,1.14a28.67,28.67,0,0,0-4-6.22Z"/><path d="M1099.09,1020.52c-.56,11.93-4.37,17.8-14.93,22.84a5.84,5.84,0,0,0-1.93-2.52c5.59-2,10.28-6.07,12.09-10.52a28.84,28.84,0,0,0,1.85-9.8H1085.3a36.53,36.53,0,0,1-6.85,8.35,5.6,5.6,0,0,0-2.32-1.85,30.16,30.16,0,0,0,8.43-10.87,20.21,20.21,0,0,0,2-5.51l3,.94a17.2,17.2,0,0,0-1,2.17,28.87,28.87,0,0,1-2,4.29,6.58,6.58,0,0,0,.83,0h17.48a30.71,30.71,0,0,0,4.85-.24v2.88c-.55,0-1-.08-1.18-.08l-3.7,0Zm5.11-11.3a29.43,29.43,0,0,1,4.06,6.1l-2,1.18a30.76,30.76,0,0,0-4-6.26Zm4.69-1.81a35.51,35.51,0,0,1,4.1,6.14l-2,1.14a27.53,27.53,0,0,0-4-6.18Z"/><path d="M1119.76,1025.05a27.74,27.74,0,0,0,4.88.23h22.88a31.24,31.24,0,0,0,4.77-.19v3.19a44.46,44.46,0,0,0-4.81-.16h-22.84a42.33,42.33,0,0,0-4.88.16Z"/><path d="M1178.87,1011.31a15.19,15.19,0,0,0-1.07,2.83,212.57,212.57,0,0,1-8.19,23c5.24-.36,14.5-1.58,19.14-2.49a75.47,75.47,0,0,0-6.06-10.19l2.44-1.34a101.5,101.5,0,0,1,9.8,17.8l-2.75,1.49a53.44,53.44,0,0,0-2.33-5.31,241.53,241.53,0,0,1-24.21,3.26,27,27,0,0,0-3.35.44l-.39-3.27,1.1,0c.28,0,2.44-.12,3.35-.2a150,150,0,0,0,5.94-15.59c1.93-6,2.8-9.1,3.11-11.34Z"/><path d="M1212.14,1011.54a56.9,56.9,0,0,0-1.65,6.3,58.06,58.06,0,0,0-1.18,12.33c0,3.07.08,5.39.23,7.48a37,37,0,0,1,2.56-7.68l1.89.91c-1.77,3.89-3.18,8.62-3.18,10.82v.59l-2.84.24c-.08-.63-.12-.83-.24-1.57a57.12,57.12,0,0,1-1-11.15,65.1,65.1,0,0,1,1.77-15.59,21.05,21.05,0,0,0,.55-3.15Zm10,15.83c-2,2.17-3,4.06-3,5.79,0,2.91,2.48,4.33,7.56,4.33a25.83,25.83,0,0,0,9.06-1.38l.39,3c-.51,0-.59.08-1.38.2a40.64,40.64,0,0,1-8.07.79c-4.49,0-7.32-1-9-3a5.63,5.63,0,0,1-1.18-3.63c0-2.4,1-4.52,3.43-7.32Zm-5-11.65a27,27,0,0,0,6.7.59,42.14,42.14,0,0,0,10.55-1.07l.2,2.8c-.08,0-1,.12-2.72.35a65.48,65.48,0,0,1-8.46.51,51.61,51.61,0,0,1-6.31-.39Z"/><path d="M1259.56,1013.75a15.43,15.43,0,0,0-.52,2.67c-1.65,11.23-4.76,18.63-10.39,24.58a8.5,8.5,0,0,0-2.52-2,25.33,25.33,0,0,0,5.71-7.8,45.33,45.33,0,0,0,4.05-13.66,31,31,0,0,0,.4-3.7,4.23,4.23,0,0,0,0-.63Zm10.9-.59a50.12,50.12,0,0,0,1.81,9.45c1.93,7,4.93,12.44,8.94,16.26a9.29,9.29,0,0,0-2.44,2.2,36.58,36.58,0,0,1-6.57-10.23,58.06,58.06,0,0,1-4.14-14.49,17,17,0,0,0-.51-2.6Z"/><path d="M1297.75,1023.47a84,84,0,0,1,8,7.45,67.56,67.56,0,0,0,5.23-4.85,57.07,57.07,0,0,0,6.5-8.54c.12-.2.16-.24.32-.48-.55,0-.55,0-22.49.08-2.12,0-3.23,0-4.57.16v-3.11a28.26,28.26,0,0,0,4.61.24h23a4.71,4.71,0,0,0,2.2-.28l1.66,2a11,11,0,0,0-1.58,2.09,60.19,60.19,0,0,1-13,14.76c1.49,1.62,3.11,3.66,5.75,7.17l-2.4,2a74.78,74.78,0,0,0-15.36-16.94Z"/><path d="M1335.44,1025.8a18.72,18.72,0,0,0,3.62-.71,51,51,0,0,1,12-1.74q6.09,0,8.35,3.67a8.58,8.58,0,0,1,1.22,4.49c0,4.41-3.54,8.42-9,10.15-2.4.75-3.34.91-8.11,1.5a8.49,8.49,0,0,0-1-2.72,2.89,2.89,0,0,0,.55,0,26.84,26.84,0,0,0,7.76-1.22c4.49-1.45,7.2-4.45,7.2-8s-2.52-5.51-7.28-5.51a45.89,45.89,0,0,0-10.36,1.57,17.34,17.34,0,0,0-4.21,1.3Z"/><path d="M1375.37,1015.79h1.42c.55,0,1,0,2.24-.11,4.69-.36,17.29-1.07,22.37-1.3a26,26,0,0,0,4.68-.44l.24,3a18,18,0,0,0-4.41.51,19.91,19.91,0,0,0-7.56,4c-3.15,2.63-4.84,5.82-4.84,9.09s2,6,5.51,7.29a20.47,20.47,0,0,0,5.91,1.26h.39l-.51,3.19-1.22-.24c-3.9-.67-6.26-1.5-8.51-3a9.6,9.6,0,0,1-4.37-8c0-4.57,2.68-8.94,7.37-12.09a25.37,25.37,0,0,1,3.74-2.09,78.45,78.45,0,0,1-8.67.87c-8.15.55-11.65.86-13.58,1.29Z"/><path d="M1414.57,1043.4a2.63,2.63,0,1,1-2.63-2.63A2.64,2.64,0,0,1,1414.57,1043.4Z"/><path d="M1426.87,1043.4a2.63,2.63,0,1,1-2.62-2.63A2.63,2.63,0,0,1,1426.87,1043.4Z"/><path d="M1438,1043.4a2.63,2.63,0,1,1-2.63-2.63A2.64,2.64,0,0,1,1438,1043.4Z"/></g></g></svg>