<svg xmlns="http://www.w3.org/2000/svg" viewBox="0 0 300 301"><defs><style>.cls-1{fill:#e6e6e6;opacity:0;}.cls-2{fill:none;}.cls-2,.cls-3{stroke:#000;stroke-miterlimit:10;}.cls-3{fill:#fff;}</style></defs><g id="レイヤー_2" data-name="レイヤー 2"><g id="レイヤー_1-2" data-name="レイヤー 1"><rect class="cls-1" y="0.5" width="300" height="300"/><path class="cls-2" d="M150,.5H18a.59.59,0,0,0-.59.64L41.68,270.52a.6.6,0,0,0,.43.52l107.73,29.44a.58.58,0,0,0,.32,0L257.89,271a.6.6,0,0,0,.43-.52L282.58,1.14A.59.59,0,0,0,282,.5Z"/><polygon class="cls-3" points="150.06 89.22 150.05 89.22 150 89.22 150 89.22 150.06 89.22"/><path class="cls-2" d="M150.05,208.27l-.07,0h0v.45a.6.6,0,0,0-.44-.57l-35.72-9.76a.58.58,0,0,1-.43-.51l-2.18-24.22A1.17,1.17,0,0,0,110,172.6h-32a.57.57,0,0,0-.48.27.53.53,0,0,0-.1.37l4.62,51.31a.58.58,0,0,0,.43.51l66.69,18.23a.68.68,0,0,0,.2,0l.55.15v0h0V208.28h0"/><path class="cls-2" d="M150,122.49H107.38a.59.59,0,0,1-.59-.53L104,89.73a.59.59,0,0,1,.12-.39L150,89.22h0V55.69H67.67a.6.6,0,0,0-.56.39l.8,9.39,2.15,24,3,33.39,3,32.92a.56.56,0,0,0,.38.15l33.56-.08,40-.09v-.1h0V122.49Z"/><path class="cls-2" d="M150.07,89.22H150V55.69h82.47A.57.57,0,0,1,233,56v0a.52.52,0,0,1,0,.25l-.82,9.14-.5,5.89-1.63,18.07h0l-80-.21"/><path class="cls-2" d="M150.14,155.62H150V122.49h76.51a.57.57,0,0,1,.52.33l0,.07-3,32.81,0,0-1.55,17.13,0,.06-4.65,51.62a.56.56,0,0,1-.43.51L150.73,243.3h0l-.55.15h0l-.07,0H150V208.28h0l36.17-9.89a.58.58,0,0,0,.43-.51l3.69-41.63a.59.59,0,0,0-.59-.64H150.14"/><path class="cls-2" d="M149.63,22.31l.76,255.92a.59.59,0,0,0,.75.56L239,253.54a.57.57,0,0,0,.42-.51l20-230.25a.59.59,0,0,0-.59-.64l-108.65.34a.58.58,0,0,0-.59.58"/></g></g></svg>