<svg xmlns="http://www.w3.org/2000/svg" viewBox="0 0 301 300"><defs><style>.cls-1{fill:#e6e6e6;opacity:0;}.cls-2{fill:none;stroke:#000;stroke-miterlimit:10;}</style></defs><g id="レイヤー_2" data-name="レイヤー 2"><g id="レイヤー_1-2" data-name="レイヤー 1"><rect class="cls-1" x="0.5" width="300" height="300"/><path class="cls-2" d="M247.2,4.07H53.8C25.69,4.07.5,26.3.5,55.16V244.84c0,28.86,25.19,51.09,53.3,51.09H247.2c28.11,0,53.3-22.23,53.3-51.09V55.16C300.5,26.3,275.31,4.07,247.2,4.07Z"/><rect class="cls-2" x="199.02" y="108.52" width="28.15" height="99.26"/><circle class="cls-2" cx="213.09" cy="82.22" r="15.56"/><polygon class="cls-2" points="104.94 76.67 139.76 76.67 186.43 207.78 156.88 207.78 145.69 176.72 99.76 176.67 89.39 207.78 62.72 207.78 62.72 204.78 104.2 85.56 104.2 84.81 104.94 76.67"/><polygon class="cls-2" points="107.17 151.48 138.28 151.48 122.72 101.11 121.98 101.11 107.17 151.48"/></g></g></svg>