<svg xmlns="http://www.w3.org/2000/svg" viewBox="0 0 300 300"><defs><style>.cls-1{fill:#e6e6e6;opacity:0;}.cls-2{fill:#300;}.cls-3{fill:#ff9a00;}</style></defs><g id="レイヤー_2" data-name="レイヤー 2"><g id="レイヤー_1-2" data-name="レイヤー 1"><rect class="cls-1" width="300" height="300"/><path class="cls-2" d="M246.7,4.07H53.3C25.19,4.07,0,26.3,0,55.16V244.84c0,28.86,25.19,51.09,53.3,51.09H246.7c28.11,0,53.3-22.23,53.3-51.09V55.16C300,26.3,274.81,4.07,246.7,4.07Z"/><rect class="cls-3" x="198.52" y="108.52" width="28.15" height="99.26"/><circle class="cls-3" cx="212.59" cy="82.22" r="15.56"/><polygon class="cls-3" points="104.44 76.67 139.26 76.67 185.93 207.78 156.38 207.78 145.19 176.72 99.26 176.67 88.89 207.78 62.22 207.78 62.22 204.78 103.7 85.56 103.7 84.81 104.44 76.67"/><polygon class="cls-2" points="106.67 151.48 137.78 151.48 122.22 101.11 121.48 101.11 106.67 151.48"/></g></g></svg>