<svg xmlns="http://www.w3.org/2000/svg" xmlns:xlink="http://www.w3.org/1999/xlink" viewBox="0 0 300 300"><defs><style>.cls-1{fill:#e6e6e6;}.cls-1,.cls-2{opacity:0;}.cls-2{fill:#fff;}.cls-3{fill:#d7d7d7;}.cls-4{fill:url(#名称未設定グラデーション_6);}.cls-5{fill:#c6c8cc;}.cls-6{fill:#a8aeb7;}.cls-7{stroke:#b9bec9;opacity:0.6;fill:url(#名称未設定グラデーション_13);}.cls-10,.cls-11,.cls-18,.cls-7,.cls-9{stroke-miterlimit:10;}.cls-10,.cls-7{stroke-width:3px;}.cls-8{fill:#aaaab4;opacity:0.24;}.cls-10,.cls-11,.cls-18,.cls-9{fill:none;}.cls-9{stroke:#c1c4ca;}.cls-11,.cls-9{stroke-width:2px;}.cls-10{stroke:#5a646e;}.cls-10,.cls-11{opacity:0.7;}.cls-11{stroke:#797d8a;}.cls-12{fill:#5c6063;}.cls-13{fill:#a9afb7;}.cls-14{fill:#c5c5c5;}.cls-15{fill:url(#名称未設定グラデーション_6-2);}.cls-16{fill:url(#名称未設定グラデーション_6-3);}.cls-17{fill:#191b1c;}.cls-18{stroke:#303131;stroke-width:4px;}</style><linearGradient id="名称未設定グラデーション_6" x1="838.29" y1="-558.3" x2="1044.98" y2="-311.98" gradientTransform="translate(-724.16 708.45) rotate(-7.77)" gradientUnits="userSpaceOnUse"><stop offset="0" stop-color="#a7a8a9"/><stop offset="1" stop-color="#181a1c"/></linearGradient><linearGradient id="名称未設定グラデーション_13" x1="889.56" y1="-527.35" x2="993.11" y2="-403.95" gradientTransform="translate(-724.16 708.45) rotate(-7.77)" gradientUnits="userSpaceOnUse"><stop offset="0" stop-color="#e8e9f0"/><stop offset="1" stop-color="#f8f9fb"/></linearGradient><linearGradient id="名称未設定グラデーション_6-2" x1="830.36" y1="-552.16" x2="1037.05" y2="-305.83" xlink:href="#名称未設定グラデーション_6"/><linearGradient id="名称未設定グラデーション_6-3" x1="953.29" y1="-655.3" x2="1159.98" y2="-408.98" xlink:href="#名称未設定グラデーション_6"/></defs><g id="レイヤー_2" data-name="レイヤー 2"><g id="レイヤー_1-2" data-name="レイヤー 1"><rect class="cls-1" width="300" height="300"/><rect class="cls-2" width="300" height="300"/><path class="cls-3" d="M246.53,18c-1.21-7.69-7.17-15.66-20.68-13.81L131.85,17l-94,12.83C24.34,31.66,20.73,40.93,21.63,48.67c.06.46,15.92,116.67,15.92,116.67S53.4,281.56,53.47,282c1.21,7.69,7.17,15.66,20.68,13.81l94-12.82,94-12.83c13.52-1.84,17.13-11.11,16.23-18.85-.06-.46-15.92-116.67-15.92-116.67S246.6,18.44,246.53,18Z"/><path class="cls-4" d="M220.5,14.44,133.13,26.37,45.76,38.29c-17.22,2.35-16.23.06-13.87,17.36L46.69,164.1,61.48,272.55c2.36,17.3.8,15.36,18,13l87.37-11.93,87.37-11.92c17.22-2.35,16.23-.06,13.87-17.36L253.31,135.9,238.52,27.45C236.16,10.15,237.72,12.09,220.5,14.44Z"/><rect class="cls-5" x="118.71" y="218.87" width="86.03" height="38.6" transform="translate(-30.71 24.05) rotate(-7.77)"/><circle class="cls-6" cx="145.57" cy="119.81" r="81.76"/><circle class="cls-7" cx="145.57" cy="119.81" r="80.54"/><path class="cls-8" d="M178.38,46.6l-1.75,10.48-1.91,11.43-2.13,12.76-2.65,15.84-2.61,15.61-3.52,21.05L161.2,149.4l-2.65,15.84L156.42,178l-1.91,11.43-1.78,10.65c1-.1,2.08-.22,3.13-.36A80.55,80.55,0,0,0,178.38,46.6Z"/><circle class="cls-9" cx="145.88" cy="119.77" r="70.17"/><circle class="cls-9" cx="145.88" cy="119.77" r="59.19"/><circle class="cls-9" cx="145.88" cy="119.77" r="47.29"/><circle class="cls-10" cx="145.88" cy="119.77" r="33.56"/><circle class="cls-11" cx="145.88" cy="119.77" r="23.19"/><circle class="cls-12" cx="145.88" cy="119.77" r="2.75"/><rect class="cls-13" x="120.57" y="220.57" width="82.98" height="35.72" transform="translate(-30.75 24.1) rotate(-7.77)"/><path class="cls-14" d="M245.92,18.07c-1.2-7.7-7.16-15.66-20.68-13.82L184.53,9.81l-1.63,9.76,37-5c3.34-.46,6-.9,8.07-1.19,9-1.26,8.31.06,10.24,14.15L253,136,267.8,244.4c1.92,14.09,2.93,15.18-6.07,16.37-2.1.29-4.75.57-8.09,1l-87.08,11.89-.29,0-26.45,3.61-1.63,9.76,29.35-4,94-12.83c13.52-1.84,17.12-11.11,16.22-18.85-.05-.45-15.92-116.67-15.92-116.67S246,18.52,245.92,18.07Z"/><path class="cls-3" d="M253.64,261.79c3.34-.45,6-.73,8.09-1-2.05.27-4.61.55-7.8,1Z"/><path class="cls-15" d="M253.64,261.79c3.34-.45,6-.73,8.09-1-2.05.27-4.61.55-7.8,1Z"/><path class="cls-3" d="M228,13.34c-2.1.29-4.73.73-8.07,1.19l.29,0C223.38,14.05,225.92,13.63,228,13.34Z"/><path class="cls-16" d="M228,13.34c-2.1.29-4.73.73-8.07,1.19l.29,0C223.38,14.05,225.92,13.63,228,13.34Z"/><path class="cls-3" d="M237.91,27.53,252.71,136l14.8,108.45c1.9,13.93,2.9,15.16-5.78,16.33,9-1.19,8-2.28,6.07-16.37L253,136,238.21,27.49C236.28,13.4,237,12.08,228,13.34,236.65,12.15,236,13.6,237.91,27.53Z"/><path class="cls-3" d="M226,108.84a81.77,81.77,0,0,1-70,92.07c-1.17.16-2.33.29-3.5.39l-3.18,19.08,51.79-7.07,5.22,38.25-63.68,8.68-2.85,17.09,26.45-3.61.29,0,87.08-11.89.29,0c3.19-.43,5.75-.71,7.8-1,8.68-1.17,7.68-2.4,5.78-16.33L252.71,136,237.91,27.53C236,13.6,236.65,12.15,228,13.34c-2.05.29-4.59.71-7.78,1.15l-.29,0-37,5-4.31,25.79A81.69,81.69,0,0,1,226,108.84Z"/><path class="cls-17" d="M226,108.84a81.77,81.77,0,0,1-70,92.07c-1.17.16-2.33.29-3.5.39l-3.18,19.08,51.79-7.07,5.22,38.25-63.68,8.68-2.85,17.09,26.45-3.61.29,0,87.08-11.89.29,0c3.19-.43,5.75-.71,7.8-1,8.68-1.17,7.68-2.4,5.78-16.33L252.71,136,237.91,27.53C236,13.6,236.65,12.15,228,13.34c-2.05.29-4.59.71-7.78,1.15l-.29,0-37,5-4.31,25.79A81.69,81.69,0,0,1,226,108.84Z"/><polygon class="cls-5" points="201.13 213.31 149.34 220.38 149.03 222.18 200.16 215.21 204.99 250.6 142.87 259.07 142.67 260.25 206.35 251.56 201.13 213.31"/><path class="cls-6" d="M226,108.84a81.69,81.69,0,0,0-47.39-63.48l-.21,1.24a80.55,80.55,0,0,1-22.52,153.1c-1.05.14-2.09.26-3.13.36l-.21,1.24c1.17-.1,2.33-.23,3.5-.39A81.77,81.77,0,0,0,226,108.84Z"/><path class="cls-18" d="M220.8,14.4,133.42,26.33,46.05,38.25c-17.22,2.35-16.83.14-14.47,17.44L46.37,164.14l14.8,108.45c2.36,17.3,1.4,15.28,18.62,12.93l87.37-11.93,87.38-11.92c17.21-2.35,16.23-.06,13.87-17.36l-14.8-108.45L238.81,27.41C236.45,10.11,238,12.05,220.8,14.4Z"/></g></g></svg>